<svg id="Layer_1" data-name="Layer 1" xmlns="http://www.w3.org/2000/svg" viewBox="0 0 1900.42 567.16"><defs><style>.cls-1{fill:#f3f3f3;}.cls-2{fill:none;stroke:#403e56;stroke-miterlimit:10;}.cls-3{fill:#292561;}.cls-4{fill:#56b894;}.cls-5{fill:#403e56;}.cls-6{fill:#f9c1c7;}.cls-7{fill:#302e41;}.cls-8{fill:#010101;opacity:0.1;isolation:isolate;}.cls-9{fill:#e6e6e5;}.cls-10{fill:#ccc;}.cls-11{fill:#3b3868;}.cls-12{fill:#e7e8eb;}</style></defs><title>search</title><path class="cls-1" d="M201.83,759.72H354.44c8.4,0,15.21,7.33,15.21,16.37V998.27c0,9-6.81,16.37-15.21,16.37H201.83c-8.4,0-15.21-7.33-15.21-16.37V776.09C186.62,767.05,193.43,759.72,201.83,759.72Z" transform="translate(-24.73 -515.38)"/><path class="cls-2" d="M193.06,748.13H345.67c8.4,0,15.21,7.33,15.21,16.37V986.68c0,9-6.81,16.37-15.21,16.37H193.06c-8.4,0-15.21-7.33-15.21-16.37V764.5C177.85,755.46,184.66,748.13,193.06,748.13Z" transform="translate(-24.73 -515.38)"/><rect class="cls-2" x="162.49" y="259.13" width="162.69" height="202.16"/><ellipse class="cls-2" cx="244.63" cy="245.84" rx="3.99" ry="4.29"/><ellipse class="cls-2" cx="244.63" cy="474.37" rx="8.77" ry="9.44"/><path class="cls-3" d="M264.38,796.66c-14.76,0-26.72,12.87-26.72,28.75h0c0,15.89,28,74.46,28,74.46s25.45-58.57,25.45-74.46S279.13,796.66,264.38,796.66Zm0,47.93c-7.73,0-14-6.75-14-15.07s6.27-15.06,14-15.06,14,6.74,14,15.06-6.26,15.07-14,15.07Z" transform="translate(-24.73 -515.38)"/><ellipse class="cls-3" cx="239.65" cy="404.41" rx="26.72" ry="9.44"/><path class="cls-2" d="M169,789.1a9.21,9.21,0,0,0-7.9,5.94c-2,5.14.57,11.18,4.39,14.92s8.72,5.89,13.17,8.71c6,3.78,11.37,9,14.36,15.77s3.32,15.08-.2,21.52c-3.27,6-9.21,9.55-14.88,12.85" transform="translate(-24.73 -515.38)"/><ellipse class="cls-4" cx="149.33" cy="274.17" rx="6.98" ry="3.65"/><ellipse class="cls-4" cx="154.92" cy="298.2" rx="6.98" ry="3.65"/><ellipse class="cls-4" cx="142.16" cy="302.06" rx="6.98" ry="3.65"/><ellipse class="cls-4" cx="162.09" cy="322.23" rx="6.98" ry="3.65"/><ellipse class="cls-4" cx="176.05" cy="322.23" rx="6.98" ry="3.65"/><line class="cls-2" x1="18.94" y1="566.66" x2="161.89" y2="566.66"/><path class="cls-2" d="M38.42,1007.69a8.59,8.59,0,0,0-7.35,5.54c-1.84,4.78.53,10.4,4.08,13.89s8.12,5.49,12.27,8.11c5.58,3.52,10.58,8.41,13.37,14.68s3.09,14-.19,20c-3,5.57-8.57,8.9-13.85,12" transform="translate(-24.73 -515.38)"/><ellipse class="cls-4" cx="18.38" cy="492.73" rx="6.5" ry="3.4"/><ellipse class="cls-4" cx="23.58" cy="515.11" rx="6.5" ry="3.4"/><ellipse class="cls-4" cx="11.7" cy="518.71" rx="6.5" ry="3.4"/><ellipse class="cls-4" cx="30.26" cy="537.49" rx="6.5" ry="3.4"/><ellipse class="cls-4" cx="43.26" cy="537.49" rx="6.5" ry="3.4"/><path class="cls-2" d="M54.18,1021.42a7,7,0,0,1,6,4.52c1.5,3.91-.43,8.5-3.34,11.35s-6.63,4.47-10,6.62a28,28,0,0,0-10.92,12c-2.28,5.12-2.52,11.47.16,16.36,2.48,4.55,7,7.27,11.31,9.77" transform="translate(-24.73 -515.38)"/><ellipse class="cls-4" cx="25.62" cy="506.38" rx="5.31" ry="2.77"/><ellipse class="cls-4" cx="21.38" cy="524.65" rx="5.31" ry="2.77"/><ellipse class="cls-4" cx="31.08" cy="527.59" rx="5.31" ry="2.77"/><ellipse class="cls-4" cx="15.92" cy="542.93" rx="5.31" ry="2.77"/><ellipse class="cls-4" cx="5.31" cy="542.93" rx="5.31" ry="2.77"/><path class="cls-5" d="M76.51,1064.42a25.47,25.47,0,0,0,6.31,2.4c2.6.4,4.06-2.43,3.51-3.42s1.69-.18,3.17,3.42c0,0,6.31,8,10,8.39s3.74,5.81,1.85,6-5.57,1.6-10,0-8.54-6-10.4-6-8.17-3.2-6.31-4.8S76.51,1064.42,76.51,1064.42Z" transform="translate(-24.73 -515.38)"/><path class="cls-5" d="M113.1,1073.45a19,19,0,0,0,5.67-.38c2.55-.66,2.93-3.87,2.09-4.57s1.49-.84,4.11,1.9c0,0,8.62,4.9,12.21,3.79s5.48,3.9,3.79,4.83a20.34,20.34,0,0,1-9.3,2.82c-4.69.3-10-1-11.73-.23s-8.69.29-7.52-1.93S113.1,1073.45,113.1,1073.45Z" transform="translate(-24.73 -515.38)"/><ellipse class="cls-6" cx="82.06" cy="351.86" rx="14.48" ry="15.59"/><path class="cls-6" d="M95.46,873.44s2.23,16.78-3,19.18,26.37,1.6,26.37,1.6S114.4,879,115.52,875,95.46,873.44,95.46,873.44Z" transform="translate(-24.73 -515.38)"/><path class="cls-7" d="M90.27,969s-1.12,30.37-2.23,33.57-2.23,24.77-2.23,24.77l-9.65,39.17,8.91,3.19s12.25-23.18,13.74-26,13.36-47.56,13.36-47.56-1.11,27.58-1.11,36.77,2.23,42.76,2.23,42.76l7-.8,9.29-42.36S143,975.34,134.08,969,90.27,969,90.27,969Z" transform="translate(-24.73 -515.38)"/><path class="cls-6" d="M144.48,978.54s.37,23.18-4.09,19.58,0-21.58,0-21.58Z" transform="translate(-24.73 -515.38)"/><path class="cls-6" d="M82.84,970.55s.37,23.17-4.08,19.58,0-21.58,0-21.58Z" transform="translate(-24.73 -515.38)"/><path class="cls-3" d="M137.42,903s-7.42-9.19-13.74-8-40.84.8-40.84.8S71.33,911.4,74.3,914.6s12.62,59.94,12.62,59.94S112.55,971,121.46,971s12.62-1.6,12.62-1.6-11.88-25.58-6.31-37.17a241.06,241.06,0,0,1,13.74-24Z" transform="translate(-24.73 -515.38)"/><path class="cls-3" d="M135.2,905.81l6.31,2.39s3.71,14,3.71,25.18.37,16.79,1.86,20.78,6.31,22.78,3.71,26.78a26,26,0,0,1-5.2,6l-8.54-.8s-.37-13.19-2.6-14.39-5.2-8.79-5.2-8.79-7-24.37-2.59-32.37S135.2,905.81,135.2,905.81Z" transform="translate(-24.73 -515.38)"/><path class="cls-5" d="M111.43,920.59s3.71-17.58-3.34-16.78S91.38,905,88.78,905s-17.45-2-19.68,8.39-5.2,23.18,1.12,31.17c0,0,2.22,35.17,10.76,37.57s31.19,5.19,39.36-6.4,4.83-24.38,4.83-24.38h-3.71Z" transform="translate(-24.73 -515.38)"/><polygon class="cls-5" points="98.95 436.78 101.93 415.2 100.44 437.58 98.95 436.78"/><path class="cls-8" d="M73.93,947.37s6.31,3.19,19.31,1.2v6L73.93,953Z" transform="translate(-24.73 -515.38)"/><polygon class="cls-5" points="83.17 388.23 92.83 382.63 84.66 390.23 83.17 388.23"/><path class="cls-3" d="M128.51,897.81s7.43,2.8,7.43,0-6.69-5.19-10.77-6.79-23.39-4-26.36-5.19-17.08-3.2-18.2,1.59-1.48,14.79,4.09,16,20-2,27.47-1.2S128.51,897.81,128.51,897.81Z" transform="translate(-24.73 -515.38)"/><path class="cls-8" d="M128.51,897.81s7.43,2.8,7.43,0-6.69-5.19-10.77-6.79-23.39-4-26.36-5.19-17.08-3.2-18.2,1.59-1.48,14.79,4.09,16,20-2,27.47-1.2S128.51,897.81,128.51,897.81Z" transform="translate(-24.73 -515.38)"/><polygon class="cls-5" points="51.98 391.43 54.51 385.72 54.95 392.63 51.98 391.43"/><ellipse class="cls-7" cx="79.55" cy="351" rx="13.56" ry="16.95"/><ellipse class="cls-7" cx="81.94" cy="341.99" rx="13.56" ry="9.23"/><ellipse class="cls-6" cx="92.51" cy="355.93" rx="1.4" ry="2.57"/><path class="cls-7" d="M115.29,855a9.32,9.32,0,0,0,3.56-4.43,5,5,0,0,1,.07,1.4,4.71,4.71,0,0,0,1.7-.55l-.13,1.5a14.33,14.33,0,0,0,2.8-2.42,11.15,11.15,0,0,1-3.72,10" transform="translate(-24.73 -515.38)"/><path class="cls-5" d="M412.73,798.42c-.73-1.16-1.44-2.35-2.12-3.54l1.1-.73c.67,1.17,1.38,2.34,2.1,3.49Z" transform="translate(-24.73 -515.38)"/><path class="cls-5" d="M406.7,787.4c-1.21-2.54-2.33-5.17-3.33-7.8l1.2-.53c1,2.6,2.09,5.19,3.28,7.7Zm-6-15.87c-.79-2.72-1.49-5.51-2.08-8.29l1.27-.31c.57,2.75,1.26,5.5,2,8.18Zm-3.51-16.73c-.37-2.82-.63-5.69-.78-8.54l1.29-.08c.15,2.81.41,5.65.77,8.43Zm.38-17.08-1.3,0c.06-2.85.24-5.73.51-8.56l1.29.15C397.76,732.06,397.59,734.9,397.53,737.72Zm1.65-16.82-1.28-.26c.5-2.8,1.11-5.61,1.81-8.36l1.25.37c-.69,2.71-1.29,5.48-1.78,8.25Zm4.2-16.3-1.22-.49c.92-2.67,1.95-5.34,3.07-7.92l1.18.59c-1.11,2.55-2.13,5.18-3,7.82ZM581,700.28c-1-2.58-2.14-5.16-3.35-7.65l1.15-.65c1.22,2.53,2.37,5.14,3.39,7.76Zm-171-11-1.13-.69c1.32-2.48,2.74-4.92,4.24-7.27l1.07.79C412.73,684.41,411.32,686.82,410,689.26Zm163.69-4c-1.4-2.37-2.91-4.71-4.48-7l1-.84c1.59,2.28,3.12,4.65,4.53,7.06Zm-154.79-10-1-.88c1.68-2.21,3.45-4.37,5.29-6.43l.93,1C422.33,671,420.58,673.13,418.93,675.31Zm145.32-3.52c-1.74-2.1-3.58-4.14-5.48-6.08l.9-1c1.92,2,3.78,4,5.55,6.16Zm-134.43-8.68-.86-1c2-1.89,4.07-3.71,6.19-5.41l.78,1.12C433.83,659.46,431.78,661.25,429.82,663.11Zm123-3c-2-1.76-4.17-3.46-6.33-5l.73-1.15c2.19,1.6,4.35,3.32,6.41,5.1ZM442.42,653l-.69-1.19c2.25-1.51,4.58-2.94,6.93-4.24l.59,1.24C446.93,650.1,444.63,651.5,442.42,653Zm97.43-2.37c-2.28-1.38-4.64-2.68-7-3.85l.54-1.27c2.41,1.19,4.79,2.5,7.1,3.9Zm-83.47-5.39-.5-1.29c2.44-1.09,5-2.08,7.48-3l.39,1.33C461.27,643.18,458.79,644.16,456.38,645.24Zm69.18-1.68c-2.45-1-5-1.82-7.5-2.56l.34-1.34c2.56.74,5.12,1.61,7.61,2.59Zm-54.22-3.49-.3-1.36c2.58-.64,5.21-1.17,7.84-1.59l.18,1.38c-2.58.41-5.18.94-7.72,1.57Zm39.05-1c-2.56-.5-5.18-.9-7.79-1.18l.13-1.39c2.64.28,5.3.69,7.9,1.2Zm-23.5-1.49-.09-1.4c2.64-.18,5.33-.24,8-.19l0,1.4C492.14,637.39,489.49,637.45,486.89,637.63Z" transform="translate(-24.73 -515.38)"/><path class="cls-5" d="M584.91,712.29c-.35-1.32-.73-2.66-1.13-4l1.24-.43c.4,1.33.78,2.69,1.13,4Z" transform="translate(-24.73 -515.38)"/><path class="cls-5" d="M577,634.13h-1.3c0-1.4,0-2.82.07-4.22l1.29.05C577,631.35,577,632.75,577,634.13Z" transform="translate(-24.73 -515.38)"/><path class="cls-5" d="M577.61,621.57l-1.29-.15c.28-2.81.66-5.64,1.12-8.42l1.28.25C578.26,616,577.89,618.79,577.61,621.57ZM580.38,605l-1.26-.35c.65-2.74,1.4-5.48,2.23-8.16l1.23.44C581.76,599.61,581,602.32,580.38,605ZM787.22,590.3c-1-2.59-2-5.17-3.18-7.68l1.16-.61c1.15,2.53,2.24,5.15,3.22,7.77Zm-201.9-1.22-1.2-.54c1-2.61,2.12-5.21,3.3-7.74l1.16.63C587.41,583.93,586.32,586.5,585.32,589.08Zm195-13.88c-1.3-2.41-2.7-4.8-4.17-7.11l1.07-.78c1.48,2.33,2.9,4.75,4.22,7.19Zm-188-1.14-1.12-.72c1.35-2.42,2.79-4.83,4.3-7.15l1.06.8c-1.49,2.29-2.91,4.67-4.24,7.07Zm179.2-12.74c-1.61-2.19-3.31-4.35-5.06-6.41l1-.94c1.77,2.08,3.5,4.26,5.13,6.48ZM601.3,560.27l-1-.88c1.65-2.19,3.4-4.35,5.19-6.41l.95.95C604.66,556,602.93,558.1,601.3,560.27ZM761,548.92c-1.89-1.92-3.86-3.8-5.87-5.57l.83-1.08c2,1.8,4,3.69,5.93,5.63ZM612,548l-.88-1c1.93-1.92,3.94-3.79,6-5.56l.81,1.09c-2,1.75-4,3.59-5.92,5.49Zm137-9.75c-2.12-1.61-4.32-3.16-6.54-4.6l.67-1.2c2.25,1.46,4.47,3,6.62,4.66Zm-124.77-.76-.74-1.15c2.16-1.6,4.4-3.14,6.66-4.58l.66,1.2c-2.24,1.42-4.45,2.94-6.58,4.53Zm111.4-7.94c-2.31-1.27-4.69-2.46-7.08-3.55l.5-1.29c2.42,1.1,4.83,2.31,7.17,3.6Zm-98-.59-.57-1.25c2.35-1.26,4.77-2.44,7.2-3.51l.49,1.29c-2.4,1.06-4.79,2.23-7.12,3.47Zm83.58-6c-2.46-.9-5-1.71-7.49-2.42l.33-1.35c2.54.72,5.09,1.54,7.57,2.45ZM652,522.59l-.4-1.33c2.49-.87,5.05-1.67,7.6-2.35l.31,1.35c-2.52.68-5,1.46-7.51,2.33Zm54-3.84c-2.55-.51-5.15-.92-7.72-1.24l.14-1.38c2.61.31,5.24.73,7.82,1.25Zm-38.87-.23-.22-1.37c2.58-.49,5.22-.88,7.83-1.16l.13,1.39c-2.58.28-5.18.66-7.74,1.14Zm23.35-1.65c-2.59-.11-5.23-.12-7.81,0l0-1.4c2.61-.08,5.28-.07,7.91.05Z" transform="translate(-24.73 -515.38)"/><path class="cls-5" d="M791,602.28c-.35-1.33-.72-2.67-1.11-4l1.23-.42c.4,1.33.78,2.69,1.13,4Z" transform="translate(-24.73 -515.38)"/><ellipse class="cls-3" cx="387.24" cy="298.62" rx="21.6" ry="1.74"/><ellipse class="cls-3" cx="559.52" cy="214.34" rx="21.6" ry="1.74"/><ellipse class="cls-3" cx="772.3" cy="126.57" rx="21.6" ry="1.74"/><polygon class="cls-5" points="698.79 190.76 763.75 120.85 764.66 121.84 699.71 191.75 698.79 190.76"/><rect class="cls-5" x="570.86" y="199.69" width="109.09" height="1.4"/><polygon class="cls-5" points="489.94 274.88 550.95 209.21 551.87 210.19 490.85 275.86 489.94 274.88"/><rect class="cls-5" x="398.58" y="283.97" width="72.91" height="1.4"/><polygon class="cls-5" points="306.32 370.78 378.77 292.81 379.68 293.79 307.23 371.76 306.32 370.78"/><path class="cls-5" d="M412,813c-6.62,0-12-5.77-12-12.9s5.37-12.91,12-12.91,12,5.78,12,12.91h0C424,807.17,418.59,812.94,412,813Zm0-24.41c-5.9,0-10.69,5.15-10.69,11.51s4.79,11.51,10.69,11.51,10.7-5.16,10.7-11.51h0C422.66,793.7,417.88,788.55,412,788.54Z" transform="translate(-24.73 -515.38)"/><path class="cls-5" d="M507.56,813c-6.62,0-12-5.78-12-12.9s5.37-12.91,12-12.91,12,5.78,12,12.91h0C519.55,807.17,514.18,812.94,507.56,813Zm0-24.41c-5.9,0-10.69,5.15-10.69,11.51s4.79,11.51,10.69,11.51,10.7-5.16,10.7-11.51h0C518.25,793.7,513.47,788.55,507.56,788.54Z" transform="translate(-24.73 -515.38)"/><path class="cls-5" d="M584.25,728.67c-6.62,0-12-5.77-12-12.9s5.37-12.9,12-12.9,12,5.77,12,12.9S590.87,728.67,584.25,728.67Zm0-24.41c-5.9,0-10.69,5.15-10.69,11.51s4.79,11.51,10.69,11.51,10.69-5.15,10.69-11.51-4.79-11.5-10.69-11.51Z" transform="translate(-24.73 -515.38)"/><path class="cls-5" d="M716,728.67c-6.63,0-12-5.77-12-12.9s5.36-12.9,12-12.9,12,5.77,12,12.9S722.64,728.67,716,728.67Zm0-24.41c-5.91,0-10.7,5.15-10.7,11.51s4.79,11.51,10.7,11.51,10.69-5.15,10.69-11.51-4.79-11.5-10.69-11.51Z" transform="translate(-24.73 -515.38)"/><path class="cls-5" d="M797,640.91c-6.62,0-12-5.78-12-12.91s5.37-12.9,12-12.9,12,5.78,12,12.9S803.65,640.9,797,640.91Zm0-24.41c-5.9,0-10.69,5.15-10.69,11.5s4.79,11.51,10.69,11.51,10.7-5.15,10.7-11.51-4.79-11.5-10.7-11.5Z" transform="translate(-24.73 -515.38)"/><path class="cls-5" d="M323.4,908.27c-6.62,0-12-5.77-12-12.9s5.37-12.9,12-12.9,12,5.77,12,12.9h0C335.39,902.49,330,908.27,323.4,908.27Zm0-24.41c-5.9,0-10.69,5.15-10.69,11.51s4.79,11.51,10.69,11.51,10.7-5.15,10.7-11.51h0C334.09,889,329.31,883.87,323.4,883.86Z" transform="translate(-24.73 -515.38)"/><path class="cls-3" d="M412,723.91c-11.93,0-21.6,10.41-21.6,23.25h0c0,12.84,21.6,55.21,21.6,55.21s21.61-42.37,21.61-55.21S423.9,723.91,412,723.91Zm0,35.45c-6.26,0-11.34-5.46-11.34-12.2S405.71,735,412,735s11.34,5.47,11.34,12.21-5.07,12.2-11.34,12.2Z" transform="translate(-24.73 -515.38)"/><path class="cls-3" d="M584.25,636.72c-11.93,0-21.6,10.41-21.6,23.25s21.6,55.22,21.6,55.22,21.6-42.38,21.6-55.22-9.67-23.25-21.6-23.25Zm0,35.46c-6.26,0-11.34-5.47-11.34-12.21s5.08-12.2,11.34-12.2,11.34,5.46,11.34,12.2-5.07,12.21-11.34,12.21Z" transform="translate(-24.73 -515.38)"/><path class="cls-3" d="M797,553c-11.93,0-21.6,10.4-21.6,23.24h0c0,12.84,21.6,55.22,21.6,55.22s21.61-42.38,21.61-55.22S809,553,797,553Zm0,35.45c-6.26,0-11.34-5.46-11.34-12.21s5.08-12.2,11.34-12.2,11.35,5.46,11.35,12.2S803.3,588.48,797,588.48Z" transform="translate(-24.73 -515.38)"/><path class="cls-1" d="M1484.14,1022.81s-7.4,16.27-2.63,32.19,19.88,25.45,19.88,25.45,7.4-16.27,2.63-32.19S1484.14,1022.81,1484.14,1022.81Z" transform="translate(-24.73 -515.38)"/><path class="cls-1" d="M1515.45,1022.33s8.16,15.91,4.15,32-18.67,26.36-18.67,26.36-8.15-15.91-4.14-32S1515.45,1022.33,1515.45,1022.33Z" transform="translate(-24.73 -515.38)"/><path class="cls-9" d="M1868.63,1023.44s-7.39,16.28-2.63,32.19,19.89,25.45,19.89,25.45,7.39-16.27,2.63-32.19S1868.63,1023.44,1868.63,1023.44Z" transform="translate(-24.73 -515.38)"/><path class="cls-9" d="M1900,1023s8.15,15.9,4.14,32-18.67,26.35-18.67,26.35-8.15-15.9-4.14-32S1900,1023,1900,1023Z" transform="translate(-24.73 -515.38)"/><circle class="cls-3" cx="1687.24" cy="350.16" r="33.96"/><path class="cls-3" d="M1709.39,1076.72V998.67a4.13,4.13,0,0,1,4.12-4.12h9.37a4.13,4.13,0,0,1,4.12,4.12v78.05a4.14,4.14,0,0,1-4.12,4.13h-9.37A4.14,4.14,0,0,1,1709.39,1076.72Z" transform="translate(-24.73 -515.38)"/><path class="cls-3" d="M1681.59,956.18l-69.37-35.76a4.14,4.14,0,0,1-1.78-5.56l4.29-8.32a4.14,4.14,0,0,1,5.56-1.78l69.37,35.77a4.13,4.13,0,0,1,1.78,5.55l-4.29,8.33A4.14,4.14,0,0,1,1681.59,956.18Z" transform="translate(-24.73 -515.38)"/><path class="cls-3" d="M1662.2,1033.23l45.39-63.49a4.13,4.13,0,0,1,5.76-1l7.61,5.44a4.14,4.14,0,0,1,1,5.76l-45.4,63.49a4.13,4.13,0,0,1-5.75,1l-7.62-5.44A4.13,4.13,0,0,1,1662.2,1033.23Z" transform="translate(-24.73 -515.38)"/><path class="cls-3" d="M1682.91,1079.84l-21.6-43.39c-.63-1.27.51-3.12,2.55-4.13l8.38-4.18c2-1,4.21-.81,4.84.46l21.6,43.39c.63,1.27-.51,3.12-2.55,4.14l-8.38,4.17C1685.71,1081.31,1683.54,1081.11,1682.91,1079.84Z" transform="translate(-24.73 -515.38)"/><path class="cls-7" d="M1681.25,876.5a5.15,5.15,0,0,1-2-3.86,3.48,3.48,0,0,1,1.18-2.85,4.52,4.52,0,0,1,4.24-.61l-1.72-12.51,1.26-.17,2,14.71-1-.48c-1.21-.56-2.88-.84-3.92,0a2.22,2.22,0,0,0-.73,1.84,3.87,3.87,0,0,0,1.51,2.87c1.56,1.15,3.64,1.29,6,1.36l0,1.27C1685.87,878,1683.26,878,1681.25,876.5Z" transform="translate(-24.73 -515.38)"/><rect class="cls-7" x="1666.72" y="342.37" width="6.83" height="1.27"/><path class="cls-10" d="M1711.86,906.53c27.69,0,46.32,47.18,46.32,74.86s-18.63,25.38-46.32,25.38-53.93,2.31-53.93-25.38S1684.18,906.53,1711.86,906.53Z" transform="translate(-24.73 -515.38)"/><path class="cls-7" d="M1691.9,829.58c-.21,1.2,1.63,1.71,1.83.51a24,24,0,0,1,1.56-5.4c3-7.15,9.37-12.77,16.52-15.61a35.75,35.75,0,0,1,21.38-1.3,43.11,43.11,0,0,1,19.19,10.29A40.7,40.7,0,0,1,1764,837.5a49.72,49.72,0,0,1,.2,24,53.77,53.77,0,0,1-10.7,21.91c-5.84,7.12-13.62,13.79-14.68,23.53a15.19,15.19,0,0,0,3,11,10.39,10.39,0,0,0,9.36,4.15,9.59,9.59,0,0,0,7.76-5.34c1.53-3.56-.06-7.5-3.08-9.71a7.55,7.55,0,0,0-9.72.6A8.53,8.53,0,0,0,1744,917a1,1,0,0,0,1.3.34,1,1,0,0,0,.34-1.3,6.08,6.08,0,0,1,.06-4.48c1.19-3.11,4.55-5.13,7.78-3.76,3.08,1.31,5.16,5.09,3.65,8.28-1.34,2.84-4.7,4.29-7.73,4.1-3.59-.22-6.41-3.1-7.74-6.26-3.62-8.56,2.57-17.09,8-23.23a102.44,102.44,0,0,0,8.34-10.15,56.07,56.07,0,0,0,5.54-10.54c5.73-14.37,5.56-31.72-2.91-45a44.18,44.18,0,0,0-35.88-20.14,34.89,34.89,0,0,0-20.63,6.31c-6.17,4.38-11,10.88-12.22,18.44Z" transform="translate(-24.73 -515.38)"/><path class="cls-7" d="M1691.94,829.87c.88.85,2.23-.49,1.34-1.35a12,12,0,0,0-7.88-3.24,11.69,11.69,0,0,0-11.89,8.08,12.59,12.59,0,0,0,4.62,13.7c1,.71,2-.94,1-1.64a10,10,0,0,1-3.87-5.94,9.79,9.79,0,0,1,4.53-11,10.68,10.68,0,0,1,12.19,1.43Z" transform="translate(-24.73 -515.38)"/><path class="cls-3" d="M1718.64,950.13,1654,993.92a4.12,4.12,0,0,1-5.72-1.1l-5.26-7.75a4.14,4.14,0,0,1,1.1-5.73l64.6-43.79a4.12,4.12,0,0,1,5.73,1.1l5.26,7.75A4.14,4.14,0,0,1,1718.64,950.13Z" transform="translate(-24.73 -515.38)"/><polygon class="cls-11" points="1578.02 395.51 1578.02 395.51 1578.02 395.51 1578.02 395.51"/><polygon class="cls-11" points="1581.78 400.79 1581.78 400.79 1581.78 400.79 1581.78 400.79"/><path class="cls-11" d="M1602.84,910.85l-.09,0h0a.39.39,0,0,0-.09.55l3.3,4.62h0a.4.4,0,0,0,.55.1.27.27,0,0,0,.07-.08l19.23,27h0a3,3,0,0,0,4.11.68l16.6-11.84a9.43,9.43,0,0,0,1.77-6.29l-17.87-25.05h0a.23.23,0,0,0,0-.32l-1.9-2.67a.24.24,0,0,0-.33,0h0l-.76-1.06h0a.24.24,0,0,0,.06-.34l-1.87-2.62h0a.24.24,0,0,0-.34-.06l0,0-1.06-1.47h0a.22.22,0,0,0,.05-.31l-1-1.37a.21.21,0,0,0-.31,0s0,0,0,0l-2.38-3.35h0a3,3,0,0,0-4.11-.68L1600,898.07a9.43,9.43,0,0,0-1.77,6.29Z" transform="translate(-24.73 -515.38)"/><path class="cls-1" d="M1601.46,898.78a2.08,2.08,0,0,0-.5,2.9l27,37.82h0a2.09,2.09,0,0,0,2.91.48l15.36-11a2.09,2.09,0,0,0,.48-2.91l-27-37.82h0a2.09,2.09,0,0,0-2.91-.47l-2.33,1.63.21.3a1.71,1.71,0,0,1-.4,2.39l-7.81,5.58a1.7,1.7,0,0,1-2.34-.41l-.21-.29-2.44,1.75Z" transform="translate(-24.73 -515.38)"/><path class="cls-12" d="M1611,892.2a.37.37,0,0,1,.52.09h0a.37.37,0,0,1-.09.52l-2.38,1.7h0a.37.37,0,0,1-.52-.09h0a.37.37,0,0,1,.09-.52l2.38-1.7Z" transform="translate(-24.73 -515.38)"/><circle class="cls-12" cx="1583.04" cy="379.64" r="0.42"/><path class="cls-3" d="M1617.32,702.86a42.51,42.51,0,0,0-42.51,42.51c0,23.49,40.48,110.08,40.48,110.08s44.54-86.61,44.54-110.08h0a42.51,42.51,0,0,0-42.51-42.51Zm-22.27,48.59h0a22.27,22.27,0,1,1,22.27,22.27A22.27,22.27,0,0,1,1595.05,751.45Z" transform="translate(-24.73 -515.38)"/><rect class="cls-5" x="1439.79" y="565.43" width="460.63" height="1.27"/></svg>