<?xml version="1.0" encoding="iso-8859-1"?>
<!-- Generator: Adobe Illustrator 19.0.0, SVG Export Plug-In . SVG Version: 6.00 Build 0)  -->
<svg version="1.1" id="Capa_1" xmlns="http://www.w3.org/2000/svg" xmlns:xlink="http://www.w3.org/1999/xlink" x="0px" y="0px"
	 viewBox="0 0 512.337 512.337" style="enable-background:new 0 0 512.337 512.337;" xml:space="preserve">
<path style="fill:#344A5E;" d="M126.668,455.804c0,0,105.6-1.067,122.667-51.2c0,0,22.4,74.667,11.733,106.667H95.734
	L126.668,455.804z"/>
<g>
	<path style="fill:#425A6B;" d="M207.734,162.47c0,0,28.8,4.267,29.867,22.4c1.067,17.067,6.4,90.667,6.4,90.667l-29.867-81.067
		C215.201,193.404,202.401,171.004,207.734,162.47z"/>
	<ellipse style="fill:#425A6B;" cx="86.134" cy="291.537" rx="35.2" ry="66.133"/>
</g>
<path style="fill:#FFD15C;" d="M215.201,64.337c0,0,0,16,2.133,20.267c2.133,4.267,4.267,9.6,4.267,10.667s-3.2,5.333-3.2,8.533
	s1.067,18.133-1.067,24.533c-2.133,7.467-4.267,18.133-4.267,24.533c0,5.333-16,17.067-22.4,17.067v26.667l-10.667,10.667
	l-37.333-57.6c0,0-10.667-16-9.6-20.267c1.067-4.267,1.067-4.267,1.067-4.267h1.067V108.07c0,0-19.2-28.8,9.6-41.6
	C172.534,51.537,215.201,64.337,215.201,64.337z"/>
<path style="fill:#F5B54C;" d="M182.134,203.004l7.467-7.467V168.87c0,0-21.333-2.133-44.8-22.4
	C144.801,146.47,175.734,192.337,182.134,203.004z"/>
<path style="fill:#E8EAE8;" d="M249.334,405.67c0,0-18.133,38.4-40.533,45.867c-22.4,7.467-44.8,5.333-57.6,2.133
	c-12.8-3.2-12.8-8.533-12.8-8.533s13.867-42.667,12.8-70.4c0-28.8-8.533-85.333-8.533-87.467s-17.067-116.267-17.067-116.267
	l23.467-6.4l18.133,6.4c0,0,16,19.2,16,25.6c0,0,6.4-17.067,8.533-22.4c2.133-4.267,2.133-4.267,2.133-4.267l19.2,21.333
	l17.067,45.867l7.467,86.4L249.334,405.67z"/>
<path style="fill:#425A6B;" d="M48.801,173.137c0,0,10.667-7.467,23.467-1.067c11.733,6.4,18.133,22.4,21.333,37.333
	c2.133,13.867,3.2,57.6-2.133,69.333c-5.333,11.733-30.933,91.733-30.933,91.733s3.2,112-5.333,141.867h71.467
	c0,0,52.267-52.267,52.267-146.133c0,0-13.867-110.933-25.6-135.467c-11.733-24.533-29.867-89.6-29.867-89.6
	s-17.067,8.533-22.4,10.667C95.734,152.87,64.801,162.47,48.801,173.137z"/>
<path style="fill:#CED6E0;" d="M119.201,349.137l22.4-19.2c0,0,12.8,38.4-2.133,53.333
	C126.668,395.004,119.201,349.137,119.201,349.137z"/>
<path style="fill:#F3F3F3;" d="M202.401,163.537l-1.067,20.267c-1.067-5.333-11.733-4.267-11.733-4.267V168.87
	C192.801,168.87,198.134,166.737,202.401,163.537z"/>
<path style="fill:#67C5B8;" d="M292.001,203.004c0,0-11.733,88.533-12.8,98.133c-1.067,9.6-6.4,23.467-2.133,32
	s23.467,21.333,34.133,14.933c9.6-6.4,0-82.133,0-82.133l2.133-69.333C313.334,196.604,319.734,177.404,292.001,203.004z"/>
<path style="fill:#425A6B;" d="M477.601,424.87c0,0,27.733,24.533,17.067,87.467H324.001c0,0-22.4-64-17.067-92.8
	c5.333-28.8,5.333-28.8,5.333-28.8L477.601,424.87z"/>
<g>
	<path style="fill:#F26F5A;" d="M297.334,175.27c1.067,10.667,1.067,21.333,0,32c-1.067,6.4-2.133,12.8-4.267,19.2
		c-4.267,16-8.533,32-16,46.933c2.133-13.867,4.267-28.8,2.133-42.667c-1.067-5.333-2.133-10.667-3.2-16
		c-1.067-5.333,0-11.733,2.133-16c1.067-2.133,3.2-3.2,4.267-5.333c3.2-5.333,3.2-12.8,2.133-19.2
		c-1.067-6.4-2.133-13.867-1.067-20.267c1.067-6.4,6.4-12.8,12.8-12.8c5.333,0,10.667,4.267,12.8,9.6
		c2.133,5.333,2.133,10.667,1.067,17.067"/>
	<path style="fill:#F26F5A;" d="M366.668,136.87c0,23.467-16,42.667-37.333,42.667c-20.267,0-37.333-19.2-37.333-42.667
		s-20.267-94.933,0-94.933C313.334,41.937,366.668,113.404,366.668,136.87z"/>
	<ellipse style="fill:#F26F5A;" cx="368.801" cy="92.07" rx="22.4" ry="45.867"/>
</g>
<path style="fill:#FFD15C;" d="M287.734,54.737c0,0,0,18.133,3.2,27.733c3.2,9.6,8.533,9.6,9.6,13.867
	c0,4.267-1.067,11.733,8.533,18.133c9.6,7.467,16,29.867,25.6,27.733c9.6-2.133,10.667-2.133,10.667-2.133s-10.667,19.2-18.133,22.4
	c-8.533,4.267-9.6,51.2-9.6,51.2l16,19.2l70.4,2.133l17.067-86.4c0,0-48-25.6-49.067-37.333s3.2-27.733-3.2-40.533
	c-7.467-13.867-34.133-27.733-34.133-27.733S310.134,31.27,287.734,54.737z"/>
<path style="fill:#E8EAE8;" d="M315.467,189.137c0,0,5.333,32,30.933,34.133c25.6,2.133,44.8-33.067,49.067-38.4l3.2,29.867
	l-9.6,125.867l41.6,93.867c0,0-67.2,3.2-86.4-4.267s-28.8-17.067-28.8-17.067s4.267-54.4,0-78.933c-4.267-25.6-9.6-112-9.6-112
	L315.467,189.137z"/>
<path style="fill:#48B9A5;" d="M318.668,352.337l3.2,52.267c0,0-3.2,45.867-6.4,53.333c-3.2,6.4-12.8-13.867-12.8-18.133
	c0-3.2,4.267-74.667,7.467-85.333c2.133-10.667-8.533-102.4-8.533-102.4l6.4-11.733C306.934,239.27,321.868,325.67,318.668,352.337z
	"/>
<path style="fill:#E8EAE8;" d="M320.801,194.47c0,0-2.133,30.933-6.4,40.533c-3.2,9.6-4.267,6.4-4.267,13.867
	c0,7.467,9.6,62.933,9.6,82.133s1.067,74.667,1.067,74.667s-3.2-58.667-3.2-71.467c0-12.8-17.067-73.6-17.067-85.333
	s14.933-92.8,14.933-92.8L320.801,194.47"/>
<path style="fill:#67C5B8;" d="M320.801,194.47c0,0-2.133,30.933-6.4,40.533c-3.2,9.6-4.267,6.4-4.267,13.867
	c0,7.467,9.6,62.933,9.6,82.133s1.067,74.667,1.067,74.667s-3.2-58.667-3.2-71.467c0-12.8-17.067-73.6-17.067-85.333
	s14.933-92.8,14.933-92.8L320.801,194.47"/>
<path style="fill:#48B9A5;" d="M503.201,428.07c0,0-59.733,33.067-69.333,44.8l-26.667-39.467c0,0-21.333-64-24.533-90.667
	c-3.2-26.667-1.067-64,2.133-83.2c3.2-20.267,16-66.133,16-66.133l10.667-60.8c7.467,1.067,34.133,4.267,44.8,8.533
	c11.733,5.333,16,6.4,16,6.4s-21.333-4.267-32,56.533c-5.333,27.733,21.333,121.6,30.933,140.8
	C480.801,366.204,503.201,428.07,503.201,428.07z"/>
<path style="fill:#67C5B8;" d="M409.334,131.537L409.334,131.537c7.467,3.2,11.733,11.733,9.6,19.2l-2.133,6.4
	c0,0-28.8,97.067-30.933,123.733c-2.133,25.6,7.467,107.733,12.8,126.933c5.333,19.2,7.467,28.8,7.467,28.8
	s-23.467-54.4-27.733-69.333s-10.667-82.133-7.467-102.4c4.267-20.267,27.733-84.267,28.8-93.867
	C402.934,160.337,409.334,131.537,409.334,131.537z"/>
<path style="fill:#F26F5A;" d="M344.268,140.07c8.533,20.267,10.667,42.667,7.467,64c-1.067,7.467-3.2,13.867-3.2,21.333
	c-1.067,7.467,0,14.933,2.133,21.333c-5.333-8.533-8.533-20.267-7.467-29.867c0,0-7.467,24.533,2.133,46.933
	c0,0-14.933-26.667-14.933-40.533c0,0-8.533,7.467-12.8,21.333c-4.267,14.933-3.2,19.2-8.533,23.467c0,0,5.333-17.067,6.4-25.6
	c1.067-8.533,12.8-24.533,12.8-24.533s-19.2,9.6-23.467,21.333c0,0,3.2-14.933,8.533-19.2c0,0-12.8-12.8-16-26.667
	c-3.2-14.933-12.8-10.667-13.867-23.467c-1.067-12.8,9.6-49.067,9.6-49.067l23.467,23.467l16,4.267L344.268,140.07z"/>
<path id="SVGCleanerId_0" style="fill:#344A5E;" d="M277.068,284.07c0,1.067,0,1.067,1.067,1.067l1.067,1.067h50.133l-8.533-46.933
	c0-2.133-2.133-4.267-4.267-3.2l-42.667,8.533c-2.133,0-3.2,2.133-3.2,5.333L277.068,284.07z"/>
<g>
	<path id="SVGCleanerId_0_1_" style="fill:#344A5E;" d="M277.068,284.07c0,1.067,0,1.067,1.067,1.067l1.067,1.067h50.133
		l-8.533-46.933c0-2.133-2.133-4.267-4.267-3.2l-42.667,8.533c-2.133,0-3.2,2.133-3.2,5.333L277.068,284.07z"/>
</g>
<path style="fill:#425A6B;" d="M278.134,286.204h49.067l-6.4-39.467c0-2.133-2.133-3.2-4.267-3.2l-41.6,7.467
	c-2.133,0-3.2,2.133-3.2,4.267L278.134,286.204z"/>
<g>
	<path style="fill:#F26F5A;" d="M370.934,85.67c0,0,3.2,18.133-1.067,33.067c-4.267,14.933-6.4,20.267-6.4,30.933
		c1.067,10.667-2.133,28.8-5.333,41.6c-4.267,12.8,5.333,24.533-7.467,39.467c0,0,11.733-9.6,11.733-27.733
		c0,0,2.133,18.133-5.333,30.933c-8.533,12.8-10.667,16-10.667,22.4c0,0,11.733-10.667,20.267-12.8
		c8.533-2.133,27.733-30.933,29.867-44.8c3.2-14.933,6.4-32,10.667-42.667c4.267-9.6,8.533-17.067,11.733-33.067
		s-5.333-25.6-10.667-44.8c-5.333-19.2-19.2-40.533-19.2-40.533l-19.2-4.267l-11.733,22.4
		C358.134,55.804,369.867,66.47,370.934,85.67z"/>
	<path style="fill:#F26F5A;" d="M285.601,68.604c1.067-12.8,12.8-22.4,25.6-20.267c3.2,1.067,8.533,1.067,12.8,3.2
		c14.933,3.2,29.867,10.667,33.067,29.867l5.333-1.067c0,0,0-21.333,5.333-29.867c4.267-8.533,22.4-11.733,22.4-11.733
		s-14.933-34.133-38.4-38.4c-23.467-3.2-51.2,17.067-62.933,32c-10.667,13.867-13.867,24.533-13.867,35.2s9.6,48,10.667,55.467
		c1.067,7.467,0,8.533-2.133,22.4c-2.133,13.867-1.067,30.933,2.133,23.467c0-1.067,1.067-21.333,7.467-35.2
		c6.4-13.867,7.467-14.933,6.4-23.467s-13.867-38.4-13.867-38.4S285.601,71.804,285.601,68.604z"/>
</g>
<g>
	<ellipse style="fill:#FFD15C;" cx="368.801" cy="71.804" rx="8.533" ry="14.933"/>
	<path style="fill:#FFD15C;" d="M379.467,302.204l-7.467,24.533c0,0-20.267-13.867-23.467-14.933c-3.2-1.067-17.067-3.2-20.267-3.2
		c-4.267,0-17.067-1.067-17.067-1.067s-9.6-1.067-14.933-6.4c-5.333-4.267-19.2-11.733-20.267-14.933c-1.067-2.133,0-3.2,0-3.2l0,0
		l0,0c-2.133-3.2,3.2-4.267,3.2-4.267s0,0,1.067,0c2.133,1.067,6.4,2.133,11.733,5.333c8.533,3.2,21.333,4.267,22.4,4.267
		c2.133,0,3.2-4.267,2.133-5.333c-1.067-1.067-13.867-12.8-13.867-12.8c-2.133-6.4,5.333-5.333,5.333-5.333
		s7.467,4.267,11.733,7.467l0,0c2.133,1.067,3.2,2.133,4.267,3.2c1.067,1.067,3.2,1.067,4.267,1.067c2.133,0,3.2-2.133,3.2-2.133
		c-1.067-1.067-6.4-1.067-6.4-1.067h-1.067l-2.133-10.667h4.267c4.267,0,11.733,2.133,11.733,2.133s4.267,2.133,8.533,7.467
		c4.267,5.333,5.333,10.667,5.333,10.667l12.8,7.467L379.467,302.204z"/>
</g>
<path style="fill:#67C5B8;" d="M492.534,251.004c-3.2,13.867-12.8,80-14.933,87.467c-1.067,3.2-3.2,6.4-5.333,10.667
	c-3.2,5.333-8.533,10.667-12.8,9.6s-39.467-8.533-68.267-14.933c-2.133-1.067-5.333-1.067-7.467-1.067
	c-17.067-3.2-29.867-6.4-29.867-6.4s6.4-2.133,7.467-9.6c2.133-7.467,9.6-30.933,6.4-38.4c0,0,8.533,2.133,14.933,4.267
	c2.133,1.067,3.2,1.067,4.267,2.133c1.067,1.067,3.2,1.067,5.333,2.133c5.333,1.067,12.8,2.133,17.067,3.2
	c5.333,0,23.467,5.333,23.467,5.333s2.133-17.067,1.067-27.733c-1.067-10.667,0-56.533,6.4-69.333c10.667-60.8,32-56.533,32-56.533
	C500.001,159.27,500.001,223.27,492.534,251.004z"/>
<path style="fill:#48B9A5;" d="M448.801,311.804c-5.333-5.333-11.733-8.533-19.2-10.667v2.133c8.533,3.2,17.067,8.533,21.333,17.067
	c5.333,9.6,6.4,21.333,2.133,32c4.267-6.4,6.4-12.8,5.333-20.267c0,5.333,1.067,11.733,1.067,17.067c0,3.2,1.067,7.467,2.133,3.2
	c1.067-2.133,1.067-3.2,1.067-5.333C463.734,333.137,458.401,320.337,448.801,311.804z"/>
<g>
	<path style="fill:#F5B54C;" d="M331.467,271.27L331.467,271.27c1.067,0,2.133,0,2.133,1.067c0,0,0,2.133-3.2,2.133c0,0,0,0-1.067,0
		l0,0c4.267,0,11.733,0,16,1.067C341.068,274.47,334.668,272.337,331.467,271.27z"/>
	<path style="fill:#F5B54C;" d="M277.068,280.87L277.068,280.87l1.067,1.067c1.067,1.067,2.133,2.133,3.2,3.2
		c1.067,1.067,3.2,2.133,5.333,3.2c1.067,1.067,2.133,1.067,3.2,2.133c1.067,1.067,2.133,1.067,3.2,2.133
		c1.067,1.067,2.133,1.067,3.2,2.133c1.067,1.067,2.133,1.067,3.2,1.067c1.067,0,2.133,1.067,3.2,1.067
		c1.067,0,2.133,1.067,2.133,1.067c1.067,0,1.067,0,2.133,1.067h1.067h1.067h1.067l0,0l0,0h-1.067h-1.067h-1.067
		c-1.067,0-1.067,0-2.133,0h-1.067h-1.067c-1.067,0-2.133-1.067-3.2-1.067c-1.067,0-2.133-1.067-3.2-1.067
		c-1.067-1.067-2.133-1.067-3.2-2.133c-1.067-1.067-2.133-1.067-3.2-2.133c-1.067-1.067-2.133-1.067-3.2-2.133
		c-2.133-1.067-3.2-2.133-5.333-3.2c-1.067-1.067-1.067-1.067-2.133-2.133l-1.067-1.067
		C277.068,281.937,277.068,281.937,277.068,280.87L277.068,280.87z"/>
</g>
<g>
	<path style="fill:#F26F5A;" d="M317.601,203.004L317.601,203.004c0,1.067,0,1.067,0,1.067s0,0,0,1.067s-1.067,1.067-1.067,2.133
		c-1.067,1.067-1.067,1.067-2.133,2.133c-1.067,1.067-2.133,1.067-3.2,2.133c0,0,0,0-1.067,0c0,0,0,0-1.067,0
		c0,0-1.067,1.067-2.133,1.067c-1.067,1.067-2.133,1.067-3.2,2.133c-1.067,0-1.067,1.067-1.067,1.067l0,0l0,0l0,0l0,0l0,0l0,0l0,0
		l-1.067,1.067c-1.067,1.067-2.133,2.133-2.133,3.2c-1.067,1.067-1.067,2.133-2.133,3.2c0,1.067-1.067,2.133-1.067,3.2
		c0,1.067,0,2.133,0,3.2c0,1.067,0,2.133,0,2.133v1.067v1.067v1.067c0,0,0,0,0,1.067l0,0l0,0c0,0,0,0,0-1.067c0,0,0,0,0-1.067
		v-1.067v-1.067c0-1.067,0-2.133,0-3.2c0-1.067,0-2.133,0-3.2c0-1.067,0-2.133,1.067-3.2c0-1.067,1.067-2.133,2.133-3.2
		c1.067-1.067,1.067-2.133,2.133-3.2l1.067-1.067l0,0l0,0l0,0l0,0c0,0,1.067-1.067,2.133-1.067c1.067-1.067,2.133-1.067,3.2-2.133
		l1.067-1.067c0,0,0,0,1.067,0c0,0,0,0,1.067,0c1.067-1.067,2.133-1.067,2.133-2.133c1.067-1.067,2.133-2.133,2.133-3.2
		c0,0,0,0,0-1.067l0,0l0,0L317.601,203.004z"/>
	<path style="fill:#F26F5A;" d="M299.467,193.404c0,0,1.067,11.733,2.133,23.467c0,3.2,0,5.333,0,8.533c0,3.2,0,5.333-1.067,7.467
		c0,2.133-1.067,4.267-1.067,5.333c0,1.067,0,1.067-1.067,1.067l0,0l0,0v-1.067c0-1.067,1.067-3.2,1.067-5.333
		c0-2.133,0-4.267,0-7.467c0-2.133-1.067-5.333-1.067-8.533c-2.133-11.733-4.267-22.4-4.267-22.4L299.467,193.404z"/>
	<path style="fill:#F26F5A;" d="M395.467,196.604L395.467,196.604c0,1.067-1.067,2.133-1.067,3.2
		c-1.067,2.133-1.067,5.333-3.2,8.533c-1.067,3.2-3.2,7.467-4.267,12.8c-1.067,2.133-2.133,4.267-3.2,6.4
		c-1.067,2.133-2.133,4.267-3.2,7.467c-1.067,2.133-3.2,4.267-4.267,6.4c-2.133,2.133-4.267,3.2-6.4,4.267
		c-2.133,1.067-4.267,2.133-5.333,3.2c-2.133,1.067-3.2,3.2-4.267,4.267c-1.067,1.067-2.133,3.2-3.2,4.267s-1.067,2.133-2.133,3.2
		c0,1.067-1.067,2.133-1.067,2.133c0,1.067,0,1.067,0,1.067s0,0,0-1.067c0-1.067,0-1.067,1.067-2.133c0-1.067,1.067-2.133,2.133-3.2
		c1.067-1.067,2.133-3.2,3.2-4.267s2.133-3.2,4.267-4.267c2.133-1.067,3.2-2.133,5.333-4.267c2.133-1.067,4.267-2.133,5.333-4.267
		c2.133-2.133,3.2-4.267,4.267-6.4c1.067-2.133,2.133-4.267,3.2-6.4c1.067-2.133,2.133-4.267,2.133-6.4
		c1.067-4.267,3.2-8.533,4.267-12.8c1.067-3.2,2.133-6.4,2.133-8.533c0-1.067,0-2.133,1.067-2.133c0-1.067,0-1.067,0-1.067
		L395.467,196.604z"/>
	<path style="fill:#F26F5A;" d="M284.534,49.404L284.534,49.404c-1.067,1.067-1.067,1.067-1.067,1.067l0,0l0,0
		c0,0,0,1.067-1.067,1.067c0,0,0,1.067-1.067,1.067l-1.067,1.067c0,1.067-1.067,1.067-1.067,2.133s-1.067,1.067-1.067,2.133
		s-1.067,1.067-1.067,2.133s-1.067,3.2-1.067,5.333s-1.067,3.2-1.067,5.333s0,4.267,0,5.333s0,2.133,0,3.2c0,1.067,0,2.133,0,3.2
		c0,2.133,0,4.267,0,5.333c0,3.2,1.067,6.4,1.067,9.6c1.067,3.2,1.067,5.333,1.067,6.4c0,2.133,1.067,2.133,1.067,2.133
		s0-1.067-1.067-2.133c0-2.133-1.067-4.267-2.133-6.4c-1.067-3.2-1.067-6.4-2.133-9.6c0-2.133-1.067-3.2-1.067-5.333
		c0-1.067,0-2.133,0-3.2c0-1.067,0-2.133,0-3.2c0-2.133,0-4.267,0-6.4s0-4.267,1.067-5.333c0-2.133,1.067-3.2,1.067-5.333
		c0-1.067,0-2.133,1.067-2.133c0-1.067,0-1.067,1.067-2.133c1.067,1.067,2.133,0,2.133-1.067c0,0,0-1.067,1.067-1.067
		c0-1.067,1.067-1.067,1.067-1.067s0-1.067,1.067-1.067c0,0,0,0,0-1.067l0,0c0,0,0,0,0-1.067V47.27L284.534,49.404z"/>
</g>
<path style="fill:#344A5E;" d="M144.801,124.07l7.467-2.133c0,0-4.267-13.867,0-19.2c4.267-5.333,4.267-5.333,4.267-5.333
	s-9.6-21.333,5.333-22.4s33.067,9.6,41.6,6.4c8.533-3.2,12.8-11.733,12.8-11.733s8.533-3.2,5.333-11.733
	c-3.2-8.533-16-32-45.867-41.6c-28.8-8.533-50.133,11.733-58.667,22.4c-7.467,10.667-8.533,36.267,0,57.6c0,0,18.133,3.2,22.4,12.8
	C144.801,117.67,144.801,124.07,144.801,124.07z"/>
<path style="fill:#FFD15C;" d="M140.534,107.004c4.267,8.533,2.133,16-4.267,16c-6.4,0-14.933-7.467-18.133-16
	c-4.267-8.533-2.133-16,4.267-16C128.801,91.004,136.268,98.47,140.534,107.004z"/>
<path style="fill:#F3F3F3;" d="M167.201,171.004c0,0-13.867-3.2-23.467,10.667l-19.2-44.8c0,0,3.2-11.733,8.533-14.933
	C133.068,123.004,144.801,153.937,167.201,171.004z"/>
<path style="fill:#344A5E;" d="M242.934,432.337c0,0,1.067-74.667-5.333-100.267c-6.4-24.533-3.2-73.6-12.8-92.8
	c-9.6-19.2-22.4-55.467-22.4-55.467l1.067-20.267c4.267-3.2,8.533-7.467,9.6-10.667l-4.267,21.333l6.4,2.133
	c2.133,1.067,4.267,2.133,4.267,4.267c2.133,7.467,8.533,24.533,10.667,32c3.2,9.6,6.4,34.133,8.533,40.533
	c1.067,5.333,17.067,65.067,17.067,85.333C256.801,357.67,254.667,404.604,242.934,432.337z"/>
<path style="fill:#F26F5A;" d="M222.667,339.537h-33.067c-2.133,0-4.267-2.133-5.333-4.267l-8.533-52.267h59.733l-8.533,52.267
	C228.001,337.404,225.868,339.537,222.667,339.537z"/>
<ellipse style="fill:#F05640;" cx="206.667" cy="283.004" rx="29.867" ry="8.533"/>
<ellipse style="fill:#CED6E0;" cx="206.667" cy="283.004" rx="23.467" ry="6.4"/>
<path style="fill:#344A5E;" d="M132.001,124.07c0,0-4.267,4.267-2.133,13.867c2.133,9.6,13.867,21.333,21.333,52.267
	c7.467,30.933,19.2,80,22.4,99.2c2.133,19.2,6.4,75.733,6.4,75.733s-9.6-52.267-14.933-66.133
	c-5.333-13.867-29.867-66.133-33.067-76.8c-3.2-10.667-14.933-41.6-14.933-41.6l10.667-3.2l-10.667-8.533
	c0,0-3.2-18.133-4.267-21.333c-1.067-3.2,3.2-7.467,5.333-10.667C119.201,135.804,127.734,125.137,132.001,124.07z"/>
<path style="fill:#FFD15C;" d="M135.201,331.004c0,0,19.2,2.133,26.667-1.067s8.533-17.067,22.4-21.333
	c6.4-2.133,12.8-3.2,17.067-4.267s8.533-1.067,12.8,0l17.067,3.2c3.2,1.067,6.4,3.2,6.4,6.4c0,2.133-1.067,3.2-3.2,3.2
	c0,0,9.6,1.067,9.6,5.333c1.067,5.333-3.2,6.4-10.667,5.333c-6.4-1.067-19.2,0-19.2,0l-16,3.2h4.267c0,0,10.667-2.133,19.2-1.067
	c8.533,1.067,13.867,1.067,12.8,6.4c-1.067,4.267-3.2,4.267-8.533,4.267c-4.267,0-12.8,2.133-16,2.133c0,0,12.8-2.133,13.867,2.133
	c1.067,4.267-6.4,7.467-10.667,7.467c-4.267,1.067-12.8,2.133-16,5.333c0,0-11.733,8.533-26.667,9.6s-43.733,0-43.733,0
	S123.468,343.804,135.201,331.004z"/>
<path style="fill:#344A5E;" d="M94.668,261.67c0,0-10.667,36.267-17.067,40.533c0,0-6.4,9.6-9.6,13.867
	c-3.2,4.267-3.2,7.467,2.133,8.533c4.267,1.067,17.067,0,19.2,3.2c0,0,10.667,0,17.067,3.2c6.4,4.267,26.667-2.133,34.133,0
	c0,0-17.067,16,0,58.667c0,0-84.267-14.933-92.8-14.933s-19.2-1.067-27.733-7.467c-8.533-7.467-11.733-23.467-10.667-34.133
	s8.533-46.933,9.6-51.2c1.067-4.267,8.533-36.267,8.533-36.267s-7.467-53.333,21.333-72.533s64,14.933,62.933,39.467
	C110.668,236.07,94.668,261.67,94.668,261.67z"/>
<g>
	<path style="fill:#F5B54C;" d="M209.868,342.737c0,0-1.067,0-2.133,1.067c-1.067,0-1.067,0-2.133,0c-1.067,0-1.067,0-2.133,0
		h-1.067h-1.067c-1.067,0-1.067,0-2.133,0c-1.067,0-1.067,0-1.067,0h-1.067l0,0h1.067c1.067,0,1.067,0,2.133-1.067
		c1.067,0,1.067,0,2.133,0h1.067h1.067c1.067,0,1.067,0,2.133,0C209.868,342.737,209.868,342.737,209.868,342.737z"/>
	<path style="fill:#F5B54C;" d="M232.268,317.137c0,0-1.067,0-2.133,0c-1.067,0-3.2,0-4.267,0c-2.133,0-4.267,0-6.4-1.067
		c-1.067,0-2.133,0-4.267,0c-1.067,0-2.133,0-4.267,0c-1.067,0-2.133,0-4.267,0c-1.067,0-2.133,0-4.267,1.067
		c-2.133,0-4.267,1.067-6.4,1.067c-2.133,0-3.2,0-4.267,1.067c-1.067,0-2.133,0-2.133,0s1.067,0,2.133,0
		c1.067,0,3.2-1.067,4.267-1.067c2.133,0,4.267-1.067,6.4-1.067c1.067,0,2.133,0,4.267-1.067c1.067,0,2.133,0,4.267,0
		c1.067,0,3.2,0,4.267,0c1.067,0,2.133,0,4.267,0s4.267,1.067,6.4,1.067c2.133,0,3.2,1.067,4.267,1.067
		C232.268,316.07,232.268,317.137,232.268,317.137z"/>
</g>
<g>
</g>
<g>
</g>
<g>
</g>
<g>
</g>
<g>
</g>
<g>
</g>
<g>
</g>
<g>
</g>
<g>
</g>
<g>
</g>
<g>
</g>
<g>
</g>
<g>
</g>
<g>
</g>
<g>
</g>
</svg>
