<?xml version="1.0" encoding="iso-8859-1"?>
<!-- Generator: Adobe Illustrator 19.0.0, SVG Export Plug-In . SVG Version: 6.00 Build 0)  -->
<svg version="1.1" id="Capa_1" xmlns="http://www.w3.org/2000/svg" xmlns:xlink="http://www.w3.org/1999/xlink" x="0px" y="0px"
	 viewBox="0 0 512.087 512.087" style="enable-background:new 0 0 512.087 512.087;" xml:space="preserve">
<path style="fill:#E8EAE8;" d="M24.533,39.51v292.267c0,11.733,9.6,21.333,21.333,21.333h372.267c11.733,0,21.333-9.6,21.333-21.333
	V39.51H24.533z"/>
<rect x="56.533" y="153.644" style="fill:#F5B54C;" width="34.133" height="62.933"/>
<rect x="116.267" y="130.177" style="fill:#67C5B8;" width="34.133" height="86.4"/>
<rect x="177.067" y="174.977" style="fill:#F26F5A;" width="34.133" height="42.667"/>
<rect x="237.867" y="83.244" style="fill:#344A5E;" width="34.133" height="133.333"/>
<path style="fill:#F26F5A;" d="M441.6,0.044H22.4c-12.8,0-22.4,9.6-22.4,22.4s9.6,22.4,22.4,22.4h419.2c11.733,0,22.4-9.6,22.4-22.4
	S453.333,0.044,441.6,0.044z"/>
<path style="fill:#E8EAE8;" d="M238.933,406.444V327.51h-13.867v78.933c-8.533,3.2-16,10.667-16,21.333c0,12.8,9.6,22.4,22.4,22.4
	c12.8,0,22.4-9.6,22.4-22.4C253.867,418.177,247.467,409.644,238.933,406.444z M231.467,437.377c-5.333,0-8.533-4.267-8.533-8.533
	c0-5.333,4.267-8.533,8.533-8.533c5.333,0,8.533,4.267,8.533,8.533C241.067,433.11,236.8,437.377,231.467,437.377z"/>
<path style="fill:#425A6B;" d="M327.467,386.177c0,0,24.533,24.533,57.6,22.4c33.067-1.067,68.267-19.2,68.267-19.2
	c26.667,28.8,29.867,71.467,19.2,122.667H314.667C314.667,481.11,316.8,408.577,327.467,386.177z"/>
<path style="fill:#FFD15C;" d="M200.533,231.51c0,0-1.067-3.2,1.067-4.267c0,0,0,0,1.067,0c0,0,2.133,4.267,8.533,6.4
	c6.4,2.133,10.667,3.2,12.8,3.2c0,0,2.133,0,4.267,2.133c2.133,2.133,8.533,7.467,8.533,7.467s2.133,2.133,4.267,6.4
	c2.133,4.267,6.4,6.4,6.4,6.4l10.667,7.467l-10.667,25.6l-10.667-9.6c0,0-5.333-4.267-9.6-4.267c-5.333,0-8.533-2.133-8.533-2.133
	l-8.533-5.333c0,0-5.333-3.2-4.267-9.6c0,0-4.267-4.267-3.2-9.6c0,0-6.4-3.2-6.4-5.333s0-4.267,1.067-4.267
	c0,0-8.533-6.4-7.467-12.8c1.067-6.4,11.733,6.4,11.733,6.4L200.533,231.51z"/>
<path style="fill:#48B9A5;" d="M464,294.444h46.933v-9.6c0,0,0,0,0-27.733s-10.667-36.267-10.667-36.267s-21.333-24.533-26.667-28.8
	c-4.267-4.267-27.733-20.267-27.733-21.333l0,0L416,184.577l-24.533,1.067l-1.067-1.067l-5.333-3.2l-8.533,7.467H374.4l-19.2,11.733
	c0,0-6.4,3.2-8.533,9.6c-1.067,3.2-3.2,9.6-5.333,14.933c0,2.133-1.067,4.267-1.067,6.4c-1.067,4.267-2.133,7.467-3.2,11.733
	c-1.067,2.133-1.067,4.267-2.133,6.4c-1.067,4.267-1.067,4.267,0,1.067c0,4.267-1.067,8.533-2.133,11.733l0,0
	c0,0,1.067,6.4-5.333,13.867c-6.4,7.467-4.267,17.067-4.267,17.067s-2.133,0-3.2,2.133c0,0-9.6-6.4-35.2-12.8l-25.6-16
	c0,0-7.467,20.267-12.8,25.6l-2.133,7.467l22.4,12.8c0,0,22.4,19.2,42.667,26.667c19.2,7.467,19.2,9.6,19.2,9.6
	s-1.067,28.8,2.133,38.4c3.2,8.533,3.2,10.667,3.2,10.667c22.4,12.8,48,16,76.8,8.533l40.533-4.267l7.467-6.4
	c-5.333-10.667,10.667-40.533,19.2-65.067L464,294.444z"/>
<path style="fill:#425A6B;" d="M376.533,358.444c0,0-9.6,25.6,9.6,30.933C404.267,395.777,391.467,358.444,376.533,358.444z"/>
<path style="fill:#F5B54C;" d="M408.533,188.844l28.8-24.533l-4.267-22.4l-2.133-16l-11.733-12.8l-59.733,39.467
	c4.267,6.4,9.6,9.6,13.867,11.733c4.267,2.133,7.467,4.267,9.6,7.467l0,0c2.133,4.267,5.333,10.667,8.533,17.067L408.533,188.844
	L408.533,188.844z"/>
<path style="fill:#FFD15C;" d="M380.8,67.244l-6.4,6.4c0,0-11.733,14.933-13.867,20.267c-2.133,5.333-1.067,7.467-1.067,7.467
	s1.067,4.267,0,6.4c-1.067,2.133-7.467,9.6-8.533,11.733c-1.067,2.133-2.133,7.467,2.133,7.467h3.2c0,0,2.133,1.067,2.133,3.2
	s0,5.333,2.133,5.333c0,0-2.133,1.067-2.133,3.2c0,0,2.133,1.067,2.133,4.267s-4.267,8.533,3.2,12.8s41.6-1.067,57.6-38.4
	C436.267,81.11,398.933,61.91,380.8,67.244z"/>
<g>
	<path style="fill:#344A5E;" d="M440.533,130.177c-4.267,2.133-7.467,11.733-7.467,11.733c-2.133-4.267-13.867-2.133-13.867-2.133
		c-1.067-4.267-2.133-13.867-2.133-19.2c0-3.2-1.067-5.333-2.133-8.533c-2.133-2.133-4.267-4.267-8.533-3.2
		c-6.4,1.067-9.6,7.467-10.667,10.667l-6.4-2.133c3.2-6.4,5.333-18.133,1.067-20.267l0,0c-5.333-3.2-5.333-9.6-2.133-13.867
		c7.467-8.533,11.733-7.467,12.8-7.467c0,0-1.067,0-7.467-3.2c-7.467-3.2-18.133-1.067-18.133-1.067s-4.267-1.067-4.267-7.467
		c0-2.133,1.067-3.2,2.133-5.333c2.133-4.267,7.467-7.467,12.8-7.467c13.867-1.067,36.267,5.333,48,12.8
		c12.8,10.667,13.867,25.6,13.867,38.4C449.067,115.244,444.8,128.044,440.533,130.177z"/>
</g>
<path style="fill:#67C5B8;" d="M398.933,188.844L396.8,199.51l-10.667,19.2c0,0-2.133,3.2-2.133,5.333
	c0,2.133-10.667,24.533-10.667,24.533s-3.2,8.533-3.2,10.667c0,2.133-5.333,20.267-5.333,20.267s-2.133,13.867-2.133,18.133
	s-7.467,80,0,99.2c1.067,4.267,3.2,7.467,3.2,9.6c-4.267-1.067-8.533-1.067-12.8-3.2L352,395.777c0,0-3.2-58.667,0-82.133
	c3.2-23.467,8.533-39.467,8.533-39.467s3.2-12.8,4.267-18.133c1.067-5.333,9.6-23.467,11.733-34.133
	c2.133-10.667,11.733-23.467,11.733-23.467v-8.533l5.333-3.2l2.133-1.067l1.067,1.067L398.933,188.844z"/>
<path style="fill:#F3F3F3;" d="M455.467,385.11l4.267,12.8c0,0-19.2,14.933-56.533,17.067c-36.267,2.133-36.267,2.133-36.267,2.133
	l-21.333-9.6c0,0-18.133-13.867-19.2-21.333l3.2-9.6v2.133c0,0,11.733,17.067,22.4,20.267c10.667,3.2,39.467,1.067,58.667-2.133
	C430.933,394.71,451.2,389.377,455.467,385.11z"/>
<path style="fill:#F26F5A;" d="M370.133,404.31l2.133,12.8c0,1.067,0,1.067-1.067,1.067c-3.2,0-11.733,1.067-23.467-4.267
	l-1.067-1.067l-1.067-13.867c0-1.067,1.067-2.133,2.133-1.067c4.267,2.133,13.867,5.333,21.333,5.333
	C370.133,403.244,370.133,403.244,370.133,404.31z"/>
<path style="fill:#67C5B8;" d="M382.933,183.51c0,0-6.4,4.267-8.533,6.4l-1.067,8.533c0,0,9.6-1.067,11.733-9.6
	c2.133-8.533,6.4-1.067,6.4-1.067c-3.2-6.4-5.333-12.8-8.533-17.067C382.933,171.777,381.867,179.244,382.933,183.51z"/>
<polyline style="fill:#CED6E0;" points="290.133,355.244 338.133,342.444 371.2,345.644 340.267,357.377 290.133,358.444 "/>
<polygon style="fill:#E8EAE8;" points="288,362.71 290.133,355.244 336,355.244 378.667,332.844 414.933,321.11 430.933,340.31 
	401.067,347.777 337.067,359.51 323.2,360.577 "/>
<path style="fill:#F26F5A;" d="M382.933,339.244l-35.2,16l-22.4,5.333l-39.467,2.133c-2.133,0-2.133,1.067,0,1.067l104.533-6.4
	l39.467-17.067L382.933,339.244z"/>
<path style="fill:#FFD15C;" d="M350.933,346.71c0,0-9.6-1.067-20.267,2.133c0,0-2.133-1.067-8.533,2.133c0,0-1.067-3.2-5.333,0
	s-7.467,5.333-7.467,5.333v11.733l12.8,5.333l8.533,7.467c0,0,4.267,1.067,12.8,0s20.267,1.067,20.267,1.067
	s10.667,2.133,12.8,1.067c2.133,0,11.733,0,11.733,0L384,361.644l-8.533-2.133c0,0-2.133,1.067-4.267,1.067
	c0,0-1.067-6.4-10.667-6.4l-4.267,1.067c0,0-5.333-4.267-10.667-3.2C346.667,350.977,352,350.977,350.933,346.71z"/>
<g>
	<path style="fill:#F5B54C;" d="M345.6,349.91c-2.133,0-7.467,3.2-3.2,7.467c1.067,2.133,7.467,5.333,7.467,5.333l4.267,2.133
		l-5.333-1.067l3.2,3.2l-4.267-2.133c0,0,1.067,3.2-1.067,4.267c0,0,1.067-2.133,0-3.2l-2.133-3.2c0,0-5.333-4.267-5.333-6.4
		c0-2.133,1.067-3.2-2.133-4.267c0,0,1.067-1.067,2.133,0C339.2,352.044,342.4,348.844,345.6,349.91z"/>
	<path style="fill:#F5B54C;" d="M328.533,349.91l-1.067,1.067v1.067c0,2.133,0,3.2,0,5.333c0,2.133,1.067,3.2,1.067,5.333
		s1.067,3.2,1.067,5.333c-1.067-3.2-1.067-7.467-2.133-10.667c0-2.133,0-3.2,0-5.333
		C328.533,350.977,328.533,350.977,328.533,349.91c1.067,0,1.067,0,1.067,0l1.067-1.067l0,0l0,0l0,0l0,0l0,0l0,0
		C329.6,348.844,329.6,348.844,328.533,349.91z"/>
	<path style="fill:#F5B54C;" d="M323.2,349.91L323.2,349.91L323.2,349.91c0,1.067-1.067,2.133-1.067,2.133
		c0,1.067-1.067,2.133,0,3.2v1.067v1.067l1.067,2.133c1.067,3.2,2.133,7.467,3.2,10.667c-1.067-3.2-2.133-7.467-3.2-10.667
		l-1.067-2.133c0-1.067-1.067-2.133-1.067-2.133c0-1.067,0-2.133,0-2.133C323.2,352.044,323.2,350.977,323.2,349.91L323.2,349.91
		L323.2,349.91L323.2,349.91L323.2,349.91L323.2,349.91L323.2,349.91L323.2,349.91z"/>
	<path style="fill:#F5B54C;" d="M315.733,359.51c0-1.067,0-1.067,0-1.067c0-1.067,0-1.067,0-1.067l1.067-1.067
		c2.133-2.133,3.2-3.2,5.333-5.333l0,0l0,0l0,0l0,0c-2.133,2.133-3.2,3.2-5.333,5.333l-1.067,1.067c0,1.067-1.067,1.067-1.067,2.133
		C314.667,358.444,314.667,358.444,315.733,359.51v2.133c2.133,4.267,4.267,7.467,6.4,11.733l0,0
		c-2.133-4.267-4.267-8.533-5.333-11.733L315.733,359.51z"/>
</g>
<g>
	<path style="fill:#67C5B8;" d="M510.933,284.844c0,0,0,0,0-27.733c0,0,0,0,0-1.067c0-19.2-16-35.2-35.2-35.2l0,0
		c-24.533,0-41.6,24.533-33.067,48c1.067,4.267,2.133,6.4,2.133,6.4c-2.133,25.6,13.867,52.267,14.933,53.333
		c2.133,1.067,0,2.133-1.067,2.133s-1.067,2.133-2.133,4.267c-1.067,2.133,1.067,2.133,3.2,4.267c2.133,2.133,0,2.133,0,2.133
		l-33.067,10.667c0,0-1.067,3.2-7.467,2.133c-6.4-1.067-8.533,4.267-8.533,4.267l-33.067,2.133c14.933,7.467,6.4,33.067,6.4,33.067
		c26.667,7.467,30.933,0,30.933,0l37.333-1.067c0,0,27.733-5.333,39.467-6.4c12.8-1.067,10.667-7.467,16-19.2
		c5.333-14.933,4.267-25.6,4.267-25.6L510.933,284.844z"/>
	<path style="fill:#67C5B8;" d="M392.533,185.644c0,0,26.667-14.933,34.133-21.333c7.467-5.333,13.867-8.533,8.533-12.8
		c0,0,4.267,1.067,4.267,4.267c1.067,3.2,6.4,13.867,6.4,13.867s-10.667,12.8-21.333,20.267c-10.667,7.467-16,13.867-16,13.867
		S393.6,188.844,392.533,185.644z"/>
</g>
<path style="fill:#425A6B;" d="M113.067,121.644l118.4,148.267c1.067,1.067,1.067,3.2,0,4.267c-1.067,1.067-3.2,1.067-4.267,0l0,0
	L112,122.71C112,121.644,112,121.644,113.067,121.644C113.067,120.577,113.067,120.577,113.067,121.644z"/>
<g>
	<path style="fill:#F5B54C;" d="M217.6,261.377h4.267H224c1.067,0,1.067,0,2.133,0s1.067,0,2.133-1.067c0-1.067,0-1.067,0-2.133
		v-1.067c0,0,0,0-1.067-1.067c-1.067,0-1.067,0-2.133,0l0,0v-1.067c1.067,0,1.067,0,1.067-1.067c0-1.067,1.067-1.067,0-2.133
		c0-1.067,0-1.067-1.067-2.133c0,0,0,0-1.067-1.067h-1.067c-1.067,0-1.067,0-2.133,0c-1.067,0-1.067,0-2.133,0
		c-1.067,0-3.2,0-4.267,0c1.067,0,3.2,0,4.267,0c1.067,0,1.067,0,2.133,0c1.067,0,1.067,0,2.133,0H224c0,0,1.067,0,1.067,1.067
		c1.067,1.067,1.067,1.067,1.067,2.133s0,2.133,0,2.133s0,1.067-1.067,1.067H224v-1.067l0,0c1.067,0,1.067,0,2.133,1.067
		c0,0,1.067,0,1.067,1.067v1.067c0,1.067,0,2.133,0,2.133c0,1.067-1.067,1.067-2.133,1.067c-1.067,0-1.067,0-2.133,0H220.8
		L217.6,261.377z"/>
	<path style="fill:#F5B54C;" d="M206.933,246.444c0,0,2.133,0,4.267,0c1.067,0,1.067,0,2.133,0c1.067,0,1.067,0,2.133-1.067
		c1.067,0,1.067-1.067,1.067-2.133c0-1.067,0-2.133-1.067-2.133c0-1.067-1.067-1.067-2.133-1.067c-1.067,0-2.133,0-2.133-1.067
		c-1.067,0-1.067,0-2.133,0c-1.067,0-1.067,0-2.133,0c-3.2,0-4.267,0-4.267,0s2.133,0,4.267-1.067c1.067,0,1.067,0,2.133,0h1.067
		h1.067c1.067,0,2.133,0,2.133,1.067h1.067c0,0,0,0,1.067,0l0,0l0,0c1.067,1.067,1.067,2.133,1.067,3.2c0,1.067,0,2.133-1.067,2.133
		c-1.067,0-2.133,1.067-2.133,1.067c-1.067,0-1.067,0-2.133,0C209.067,246.444,206.933,246.444,206.933,246.444z"/>
</g>
<path style="fill:#FFD15C;" d="M229.333,257.11c0-2.133-3.2-2.133-3.2-2.133c2.133,0,2.133-2.133,2.133-3.2
	c0-1.067,0-2.133-2.133-3.2c-2.133-1.067-9.6,0-9.6,0s-6.4,0-8.533,0c-4.267,0,0-2.133,0-2.133h5.333c1.067,0,2.133,0,4.267-1.067
	c2.133-1.067,1.067-4.267,0-5.333c-1.067-1.067-5.333-2.133-6.4-2.133c-1.067,0-5.333,0-7.467,1.067c-2.133,0-5.333,3.2-5.333,3.2
	l0,0c-1.067,0-1.067,2.133-1.067,4.267s6.4,5.333,6.4,5.333c-1.067,5.333,3.2,9.6,3.2,9.6c-2.133,6.4,4.267,9.6,4.267,9.6
	l1.067,1.067l6.4-10.667c0,0,6.4-1.067,8.533-1.067C228.267,260.31,229.333,259.244,229.333,257.11z"/>
<g>
	<path style="fill:#F5B54C;" d="M206.933,262.444L206.933,262.444L206.933,262.444z"/>
	<path style="fill:#F5B54C;" d="M225.067,254.977L225.067,254.977L225.067,254.977c-2.133,0-5.333,0-7.467,0c-1.067,0-2.133,0-3.2,0
		c-1.067,0-2.133,0-3.2,0c-1.067,1.067-1.067,2.133-2.133,2.133c-1.067,1.067-1.067,2.133-2.133,3.2l-1.067,1.067
		c1.067-2.133,2.133-3.2,3.2-5.333c0-1.067,1.067-1.067,1.067-2.133l0,0l0,0c1.067,0,2.133,0,3.2-1.067c1.067,0,1.067,0,2.133,0
		C218.667,254.977,221.867,254.977,225.067,254.977z"/>
	<path style="fill:#F5B54C;" d="M206.933,248.577c-1.067,1.067-2.133,2.133-2.133,2.133c0,1.067-1.067,1.067-1.067,2.133
		c0-1.067,1.067-2.133,1.067-2.133S205.867,248.577,206.933,248.577z"/>
</g>
<g>
	<path style="fill:#F3F3F3;" d="M211.2,244.31c0,0,0,1.067,2.133,1.067c2.133,0,2.133,0,2.133,0s2.133,0,2.133-2.133
		c0,0,0,0,0-1.067s-1.067-2.133-2.133-2.133c-1.067,0-2.133,0-2.133,0s-1.067,0-1.067,1.067
		C211.2,242.177,211.2,244.31,211.2,244.31z"/>
	<path style="fill:#F3F3F3;" d="M221.867,249.644c0,0,1.067,2.133,0,3.2c0,0,3.2,2.133,4.267,1.067c1.067-1.067,1.067-3.2,0-4.267
		C226.133,249.644,222.933,249.644,221.867,249.644z"/>
	<path style="fill:#F3F3F3;" d="M227.2,259.244c-1.067,0-2.133,0-3.2-1.067c0-1.067,0-2.133,0-2.133s2.133,0,3.2,0
		C229.333,257.11,229.333,259.244,227.2,259.244z"/>
</g>
<polygon style="fill:#344A5E;" points="372.267,512.044 354.133,512.044 369.067,459.777 "/>
<g>
</g>
<g>
</g>
<g>
</g>
<g>
</g>
<g>
</g>
<g>
</g>
<g>
</g>
<g>
</g>
<g>
</g>
<g>
</g>
<g>
</g>
<g>
</g>
<g>
</g>
<g>
</g>
<g>
</g>
</svg>
