<?xml version="1.0" encoding="iso-8859-1"?>
<!-- Generator: Adobe Illustrator 19.0.0, SVG Export Plug-In . SVG Version: 6.00 Build 0)  -->
<svg version="1.1" id="Capa_1" xmlns="http://www.w3.org/2000/svg" xmlns:xlink="http://www.w3.org/1999/xlink" x="0px" y="0px"
	 viewBox="0 0 511.804 511.804" style="enable-background:new 0 0 511.804 511.804;" xml:space="preserve">
<path style="fill:#344A5E;" d="M186.701,299.538l-32,149.333l-35.2-9.6c0,0,14.933-177.067,52.267-193.067L186.701,299.538z"/>
<path style="fill:#425A6B;" d="M403.235,235.538c0,0,26.667,5.333,29.867,7.467c4.267,2.133,17.067,32,9.6,65.067
	c-7.467,33.067-24.533,87.467-50.133,117.333s-57.6,49.067-57.6,49.067s-19.2,18.133-45.867,16s-142.933-7.467-142.933-7.467
	s-7.467-49.067,24.533-93.867l52.267,5.333l69.333-1.067l42.667-73.6l-1.067-41.6C334.968,278.204,386.168,237.671,403.235,235.538z
	"/>
<g>
	<path style="fill:#344A5E;" d="M134.435,511.804h65.067l34.133-78.933c0,0-20.267-52.267-17.067-94.933
		c2.133-42.667,26.667-119.467,26.667-119.467s-17.067,6.4-29.867,11.733c-12.8,5.333-40.533,16-40.533,16s-19.2,23.467-20.267,51.2
		c0,28.8,0,91.733,0,91.733C140.835,410.471,137.635,461.671,134.435,511.804z"/>
	<path style="fill:#344A5E;" d="M377.635,511.804c-3.2-25.6,2.133-52.267,13.867-74.667c28.8-57.6,38.4-82.133,38.4-82.133
		c-35.2,6.4-62.933,21.333-80,52.267c-9.6-38.4-16-76.8-13.867-91.733c6.4-35.2,43.733-64,59.733-72.533
		c12.8-6.4,29.867-3.2,35.2-1.067c-5.333-2.133-19.2-6.4-27.733-11.733c-10.667-5.333-38.4-19.2-38.4-19.2l-12.8,2.133
		c0,0-84.267,81.067-93.867,98.133c-9.6,17.067-48,123.733-48,123.733l-16,76.8H377.635z"/>
	<path style="fill:#344A5E;" d="M430.968,241.938c1.067,0,2.133,1.067,2.133,1.067C433.101,243.004,432.035,241.938,430.968,241.938
		z"/>
</g>
<g>
	<path style="fill:#FFD15C;" d="M217.635,499.004c0,0,30.933-6.4,48-20.267c16-13.867-26.667-29.867-26.667-29.867l-21.333,52.267"
		/>
	<path style="fill:#FFD15C;" d="M224.035,54.204l-4.267,27.733c0,0-2.133,8.533,0,14.933c2.133,6.4-1.067,12.8-1.067,22.4
		s9.6,37.333,8.533,43.733c0,6.4-2.133,34.133,20.267,34.133l3.2,48l89.6-40.533c0,0-8.533-23.467-8.533-33.067
		c0-10.667,8.533-38.4,8.533-38.4l7.467-35.2c0,0-10.667-57.6-39.467-69.333C280.568,16.871,237.901,16.871,224.035,54.204z"/>
</g>
<path style="fill:#425A6B;" d="M232.568,49.938c3.2-5.333,19.2-4.267,30.933-5.333c10.667-1.067,38.4,3.2,41.6,6.4
	c3.2,3.2-8.533,10.667-6.4,20.267c1.067,8.533,12.8,13.867,14.933,21.333c3.2,8.533,0,29.867,0,29.867l6.4,3.2
	c0,0,13.867-16,21.333-14.933c7.467,1.067-8.533,35.2-8.533,49.067s0,12.8,0,12.8s11.733-28.8,16-40.533
	c4.267-11.733,14.933-41.6,14.933-60.8s-17.067-45.867-33.067-53.333s-66.133-23.467-88.533-16s-27.733,37.333-25.6,46.933
	c2.133,9.6,3.2,34.133,3.2,34.133S229.368,55.271,232.568,49.938z"/>
<path style="fill:#F5B54C;" d="M327.501,158.738c-25.6,36.267-78.933,39.467-78.933,39.467l3.2,40.533
	C307.235,211.004,327.501,158.738,327.501,158.738z"/>
<path style="fill:#E8EAE8;" d="M301.901,263.271c-20.267,20.267-39.467,41.6-43.733,49.067c-6.4,10.667-24.533,58.667-36.267,90.667
	l-12.8-29.867l33.067-151.467l8.533-6.4l21.333,7.467h23.467L301.901,263.271z"/>
<path style="fill:#F26F5A;" d="M273.101,238.738l-1.067,11.733l-24.533,86.4l-17.067,42.667l-11.733-7.467l9.6-71.467
	c0,0,28.8-49.067,28.8-56.533c0-7.467,1.067-8.533,1.067-8.533L273.101,238.738z"/>
<path style="fill:#F05640;" d="M252.835,230.204c0,0,0,9.6,3.2,13.867c0,0,13.867-1.067,14.933,6.4c0,0,9.6-12.8,17.067-12.8
	c0,0-10.667-11.733-17.067-13.867s-8.533-2.133-8.533-2.133L252.835,230.204z"/>
<path style="fill:#F3F3F3;" d="M332.835,173.671c0,0,0,7.467-4.267,11.733s-57.6,37.333-57.6,37.333c9.6,6.4,16,16,18.133,25.6
	l57.6-52.267C347.768,197.138,338.168,176.871,332.835,173.671z"/>
<g>
	<path style="fill:#425A6B;" d="M342.435,186.471c0,0,2.133,3.2,0,6.4c-1.067,1.067-4.267,4.267-8.533,8.533
		c-25.6,25.6-49.067,53.333-69.333,83.2c-9.6,13.867-18.133,27.733-22.4,37.333c-11.733,27.733-33.067,90.667-34.133,116.267
		c0,0,38.4-88.533,58.667-116.267s73.6-72.533,80-75.733l-11.733-11.733h19.2c0,0,7.467-19.2,9.6-21.333l-3.2-5.333
		C361.635,206.738,348.835,184.338,342.435,186.471z"/>
	<path style="fill:#425A6B;" d="M225.101,233.404l4.267,3.2l-21.333,12.8c0,0-14.933,61.867-8.533,99.2
		c3.2,21.333,9.6,48,14.933,67.2c2.133-5.333,4.267-11.733,5.333-18.133c0-2.133,2.133-3.2,4.267-3.2
		c1.067-36.267,4.267-83.2,6.4-96c4.267-21.333,20.267-90.667,20.267-90.667S233.635,227.004,225.101,233.404z"/>
</g>
<path style="fill:#F3F3F3;" d="M248.568,198.204c0,0,8.533,20.267,22.4,24.533c0,0-17.067,3.2-22.4,23.467
	C248.568,246.204,244.301,209.938,248.568,198.204z"/>
<path style="fill:#425A6B;" d="M100.301,494.738l34.133,9.6l23.467,6.4h58.667l17.067-46.933l-11.733-4.267l-78.933-27.733
	l9.6-42.667c0,0,0-62.933,0-91.733c0-28.8,20.267-51.2,20.267-51.2c-16,2.133-32,38.4-36.267,46.933s-6.4,16-7.467,21.333
	c-1.067,5.333-5.333,11.733-10.667,20.267c-5.333,8.533-6.4,14.933-8.533,19.2c-3.2,3.2-28.8,40.533-34.133,49.067
	c-4.267,8.533-10.667,46.933-8.533,68.267C69.368,492.604,100.301,494.738,100.301,494.738z"/>
<path style="fill:#FFD15C;" d="M153.635,436.071l-10.667-4.267c0-11.733,1.067-22.4,4.267-32c2.133-6.4,8.533-9.6,14.933-7.467
	l20.267,7.467L153.635,436.071z"/>
<path style="fill:#344A5E;" d="M218.701,485.138l-18.133-1.067c-6.4,0-11.733-1.067-18.133-1.067c-6.4,0-11.733-1.067-18.133-1.067
	l-16-1.067c0-1.067,0-3.2,0-4.267c0-2.133,0-4.267,0-6.4c0-2.133,0-4.267,0-6.4c0-2.133,0-4.267,0-6.4c0-2.133,0-4.267,1.067-6.4
	v-3.2v-3.2c0-2.133,1.067-4.267,1.067-6.4c0-1.067,0-2.133,1.067-3.2v-1.067l-2.133,1.066v1.067c0,1.067,0,2.133-1.067,3.2
	c0,2.133-1.067,4.267-1.067,6.4v3.2v3.2c0,2.133,0,4.267-1.067,6.4c0,2.133,0,4.267,0,6.4c0,2.133,0,4.267,0,6.4
	c0,2.133,0,4.267,0,6.4c0,2.133,0,4.267,1.067,6.4v1.067h1.067l18.133,1.067c6.4,0,11.733,1.067,18.133,1.067
	c6.4,0,11.733,1.067,18.133,1.067l18.133,1.067h6.4l1.067-3.2L218.701,485.138z"/>
<path style="fill:#425A6B;" d="M440.568,319.804c-8.533,33.067-24.533,78.933-46.933,104.533c-25.6,29.867-57.6,49.067-57.6,49.067
	s-19.2,18.133-45.867,16c-26.667-2.133-142.933-7.467-142.933-7.467s-7.467-49.067,24.533-93.867l52.267,5.333l69.333-1.067
	l42.667-73.6h104.533V319.804z"/>
<g>
	<path style="fill:#FFD15C;" d="M292.301,394.471c5.333-4.267,11.733-8.533,18.133-12.8c0,0,2.133-5.333-3.2-6.4l3.2,1.067
		l19.2-10.667c0,0,4.267-5.333,0-7.467c0,0,9.6-3.2,7.467-6.4c-2.133-4.267-7.467-3.2-7.467-3.2s3.2-3.2,2.133-5.333
		c-1.067-2.133-4.267-1.067-6.4-1.067c-2.133,1.067-11.733,6.4-11.733,6.4l-13.867,12.8c0,0-4.267,4.267-6.4,7.467
		c-2.133,3.2-7.467,14.933-7.467,17.067c0,2.133-2.133,8.533-2.133,8.533H292.301z"/>
	<polygon style="fill:#FFD15C;" points="311.501,374.204 310.435,375.271 309.368,377.404 306.168,374.204 	"/>
</g>
<g>
	<path style="fill:#F5B54C;" d="M307.235,375.271c-1.067,1.067-1.067,1.067-2.133,1.067s-1.067,1.067-2.133,1.067l-2.133,1.067
		c-1.067,0-1.067,1.067-2.133,1.067l0,0l0,0c-1.067,1.067-2.133,1.067-4.267,2.133c-1.067,0-1.067,1.067-2.133,1.067
		c0,0-1.067,0-1.067,1.067c0,0,0,0-1.067,1.067s-2.133,2.133-2.133,3.2l0,4.267c1.067-1.067,1.067-2.133,2.133-3.2
		s2.133-2.133,2.133-3.2c0,0,0-1.067,1.067-1.067c0,0,1.067,0,1.067-1.067c1.067,0,1.067-1.067,2.133-1.067s1.067-1.067,2.133-1.067
		c1.067,0,1.067-1.067,2.133-1.067l0,0c1.067,0,1.067-1.067,2.133-1.067l2.133-1.067c1.067,0,1.067-1.067,2.133-1.067
		C306.168,375.271,307.235,375.271,307.235,375.271z"/>
	<path style="fill:#F5B54C;" d="M330.701,358.204C330.701,358.204,329.635,358.204,330.701,358.204c-1.067,0-1.067,0-1.067,0
		s-1.067,0-2.133,0c-1.067,0-1.067,0-2.133,0c-2.133,1.067-3.2,1.067-5.333,2.133c-1.067,0-2.133,1.067-3.2,1.067
		c-1.067,1.067-2.133,1.067-3.2,2.133c-2.133,1.067-4.267,2.133-6.4,3.2c-2.133,1.067-3.2,2.133-5.333,3.2
		c-1.067,1.067-3.2,2.133-3.2,3.2l-1.067,1.067l0,0l0,0c0,0,0,0,1.067-1.067c1.067-1.067,2.133-2.133,3.2-3.2s3.2-2.133,5.333-3.2
		c1.067-1.067,2.133-1.067,3.2-2.133c1.067-1.067,2.133-1.067,3.2-2.133c1.067-1.067,2.133-1.067,3.2-2.133
		c1.067-1.067,2.133-1.067,3.2-1.067s2.133-1.067,3.2-1.067c1.067,0,2.133-1.067,3.2-1.067c0,0,0,0,1.067,0c0,0,0,0,1.067,0l0,0l0,0
		l0,0c0,0,0,0,1.067,0c1.067,0,1.067,0,2.133,0C329.635,357.138,329.635,357.138,330.701,358.204
		C329.635,358.204,330.701,358.204,330.701,358.204z"/>
	<path style="fill:#F5B54C;" d="M329.635,347.538c0,0,0,0-1.067,1.067c-1.067,0-2.133,1.067-3.2,2.133
		c-1.067,0-1.067,1.067-2.133,1.067h-1.067c0,0,0,0-1.067,0c0,0,0,0-1.067,0c-1.067,0-2.133,0-3.2,1.067
		c-1.067,0-2.133,1.067-3.2,1.067c-1.067,0-2.133,1.067-3.2,1.067c-1.067,1.067-2.133,1.067-2.133,1.067
		c-2.133,1.067-3.2,2.133-4.267,3.2s-2.133,1.067-3.2,2.133c-1.067,0-1.067,1.067-1.067,1.067s0,0,1.067-1.067
		c1.067,0,2.133-1.067,3.2-2.133c1.067-1.067,3.2-2.133,4.267-3.2c1.067,0,2.133-1.067,2.133-2.133
		c1.067-1.067,2.133-1.067,3.2-1.067s2.133-1.067,3.2-1.067c1.067,0,2.133-1.067,3.2-1.067c0,0,0,0,1.067,0c0,0,0,0,1.067,0h1.067
		c1.067,0,2.133-1.067,2.133-1.067C327.501,348.604,329.635,347.538,329.635,347.538z"/>
</g>
<path style="fill:#FFD15C;" d="M342.435,125.671c-3.2,10.667-11.733,18.133-18.133,16c-6.4-2.133-8.533-12.8-5.333-23.467
	c3.2-10.667,11.733-18.133,18.133-16C343.501,104.338,345.635,115.004,342.435,125.671z"/>
<g>
</g>
<g>
</g>
<g>
</g>
<g>
</g>
<g>
</g>
<g>
</g>
<g>
</g>
<g>
</g>
<g>
</g>
<g>
</g>
<g>
</g>
<g>
</g>
<g>
</g>
<g>
</g>
<g>
</g>
</svg>
