<?xml version="1.0" encoding="UTF-8" standalone="no"?> <svg id="Capa_1" enable-background="new 0 0 512 512" height="512" viewBox="0 0 512 512" width="512" xmlns="http://www.w3.org/2000/svg"><path d="m286 31c0-16.569-13.431-31-30-31s-30 14.431-30 31c0 16.567 13.431 30 30 30s30-13.433 30-30z"/><circle cx="256" cy="256" r="30"/><path d="m256 421c-24.853 0-45 20.147-45 45s20.147 46 45 46 45-21.147 45-46-20.147-45-45-45z"/><circle cx="61" cy="376" r="30"/><circle cx="451" cy="376" r="30"/><circle cx="451" cy="151" r="45"/><circle cx="61" cy="151" r="45"/><path d="m241 313.87c-25.807-6.707-45-29.989-45-57.87 0-4.307.5-8.491 1.366-12.543l-82.059-41.025c-13.678 14.437-32.898 23.568-54.307 23.568v90c33.091 0 60 26.909 60 60 0 7.82-1.608 15.247-4.34 22.103l71.788 35.889c9.952-20.898 29.366-35.942 52.551-40.785v-79.337z"/><path d="m204.906 62.035-78.772 52.509c6.096 10.841 9.866 23.159 9.866 36.456 0 9.104-1.873 17.725-4.858 25.805l79.858 39.924c11.005-12.595 26.993-20.729 45-20.729s33.995 8.134 45 20.729l79.858-39.924c-2.985-8.08-4.858-16.701-4.858-25.805 0-13.297 3.77-25.615 9.866-36.456l-78.772-52.509c-10.54 17.288-29.401 28.965-51.094 28.965s-40.554-11.677-51.094-28.965z"/><path d="m451 316v-90c-21.409 0-40.629-9.131-54.307-23.568l-82.059 41.025c.866 4.052 1.366 8.236 1.366 12.543 0 27.881-19.193 51.163-45 57.87v79.336c23.185 4.843 42.599 19.887 52.551 40.785l71.788-35.889c-2.731-6.855-4.339-14.282-4.339-22.102 0-33.091 26.909-60 60-60z"/></svg>