<?xml version="1.0" encoding="UTF-8" standalone="no"?>
<!-- Created with Inkscape (http://www.inkscape.org/) -->

<svg
   xmlns:dc="http://purl.org/dc/elements/1.1/"
   xmlns:cc="http://creativecommons.org/ns#"
   xmlns:rdf="http://www.w3.org/1999/02/22-rdf-syntax-ns#"
   xmlns:svg="http://www.w3.org/2000/svg"
   xmlns="http://www.w3.org/2000/svg"
   xmlns:sodipodi="http://sodipodi.sourceforge.net/DTD/sodipodi-0.dtd"
   xmlns:inkscape="http://www.inkscape.org/namespaces/inkscape"
   width="32"
   height="32"
   viewBox="0 0 8.4666665 8.4666669"
   version="1.1"
   id="svg8"
   inkscape:version="0.92.4 (5da689c313, 2019-01-14)"
   sodipodi:docname="25. Contract Partner business, agreement, deal, partnership,legal.svg">
  <defs
     id="defs2">
    <pattern
       y="0"
       x="0"
       height="6"
       width="6"
       patternUnits="userSpaceOnUse"
       id="EMFhbasepattern" />
    <pattern
       y="0"
       x="0"
       height="6"
       width="6"
       patternUnits="userSpaceOnUse"
       id="EMFhbasepattern-3" />
    <pattern
       y="0"
       x="0"
       height="6"
       width="6"
       patternUnits="userSpaceOnUse"
       id="EMFhbasepattern-2" />
    <pattern
       y="0"
       x="0"
       height="6"
       width="6"
       patternUnits="userSpaceOnUse"
       id="EMFhbasepattern-1" />
    <pattern
       y="0"
       x="0"
       height="6"
       width="6"
       patternUnits="userSpaceOnUse"
       id="EMFhbasepattern-5" />
  </defs>
  <sodipodi:namedview
     id="base"
     pagecolor="#ffffff"
     bordercolor="#666666"
     borderopacity="1.0"
     inkscape:pageopacity="0.0"
     inkscape:pageshadow="2"
     inkscape:zoom="8"
     inkscape:cx="-9.6806793"
     inkscape:cy="1.3587705"
     inkscape:document-units="px"
     inkscape:current-layer="layer1"
     showgrid="false"
     units="px"
     inkscape:window-width="1280"
     inkscape:window-height="658"
     inkscape:window-x="-8"
     inkscape:window-y="-8"
     inkscape:window-maximized="1"
     showguides="true"
     guidecolor="#af0000"
     guideopacity="0.49803922"
     guidehicolor="#ff4b4b"
     guidehiopacity="0.49803922"
     inkscape:snap-global="true">
    <inkscape:grid
       type="xygrid"
       id="grid815"
       empspacing="1"
       originx="0"
       originy="0"
       spacingx="0"
       spacingy="0"
       snapvisiblegridlinesonly="true"
       visible="true"
       enabled="true"
       dotted="false" />
  </sodipodi:namedview>
  <metadata
     id="metadata5">
    <rdf:RDF>
      <cc:Work
         rdf:about="">
        <dc:format>image/svg+xml</dc:format>
        <dc:type
           rdf:resource="http://purl.org/dc/dcmitype/StillImage" />
        <dc:title />
      </cc:Work>
    </rdf:RDF>
  </metadata>
  <g
     inkscape:label="Guides"
     inkscape:groupmode="layer"
     id="layer1"
     transform="translate(0,-288.53332)">
    <path
       style="color:#27285f;font-style:normal;font-variant:normal;font-weight:normal;font-stretch:normal;font-size:medium;line-height:normal;font-family:sans-serif;font-variant-ligatures:normal;font-variant-position:normal;font-variant-caps:normal;font-variant-numeric:normal;font-variant-alternates:normal;font-feature-settings:normal;text-indent:0;text-align:start;text-decoration:none;text-decoration-line:none;text-decoration-style:solid;text-decoration-color:#27285f;letter-spacing:normal;word-spacing:normal;text-transform:none;writing-mode:lr-tb;direction:ltr;text-orientation:mixed;dominant-baseline:auto;baseline-shift:baseline;text-anchor:start;white-space:normal;shape-padding:0;clip-rule:nonzero;display:inline;overflow:visible;visibility:visible;opacity:1;isolation:auto;mix-blend-mode:normal;color-interpolation:sRGB;color-interpolation-filters:linearRGB;solid-color:#27285f;solid-opacity:1;vector-effect:none;fill:#27285f;fill-opacity:1;fill-rule:nonzero;stroke:none;stroke-width:0.26458335;stroke-linecap:butt;stroke-linejoin:miter;stroke-miterlimit:4;stroke-dasharray:none;stroke-dashoffset:1.79999995;stroke-opacity:1;paint-order:normal;color-rendering:auto;image-rendering:auto;shape-rendering:auto;text-rendering:auto;enable-background:accumulate"
       d="m 2.0250253,289.85615 -1.49585725,1.62125 v 0.0817 0.0975 l 0.99083875,0.87516 0.068449,-0.0741 0.1043425,0.0675 0.1444105,0.82437 a 0.21371526,0.21319032 0 0 0 0.040068,0.0915 c -0.032477,0.0748 -0.05699,0.15195 -0.061771,0.23233 -0.00751,0.12617 0.029404,0.28042 0.1544272,0.37388 0.1250212,0.0935 0.2733752,0.0769 0.3814769,0.0258 0.00397,-0.002 0.00694,-0.005 0.010851,-0.008 -0.020305,0.0585 -0.033892,0.11908 -0.037563,0.18069 -0.00751,0.12616 0.02775,0.28293 0.1527578,0.37638 0.1065516,0.0796 0.2291585,0.0756 0.3305575,0.0416 0.00402,0.11489 0.043071,0.2417 0.1519231,0.32309 0.1157867,0.0865 0.2503241,0.0772 0.3555999,0.035 0.00718,0.1107 0.047034,0.23094 0.1502538,0.30809 0.1250212,0.0935 0.2742099,0.0743 0.3823116,0.0234 0.057072,-0.0269 0.1089249,-0.0649 0.156097,-0.10989 0.1174462,0.102 0.2416775,0.20917 0.3739643,0.29728 0.106464,0.0709 0.2197419,0.136 0.3697905,0.13648 0.1494417,5.7e-4 0.305484,-0.10844 0.3806422,-0.25063 0.023912,-0.0448 0.00689,-0.0812 0.010851,-0.12407 0.030674,0.01 0.053122,0.0297 0.087648,0.0333 0.1026166,0.0113 0.229638,-0.0499 0.3121931,-0.14067 0.087606,-0.0802 0.1543314,-0.19621 0.1485843,-0.30144 -0.00171,-0.0316 -0.021626,-0.0522 -0.028383,-0.0807 0.077952,-0.0284 0.158063,-0.0538 0.2203718,-0.11569 0.069434,-0.0667 0.094048,-0.16228 0.1085168,-0.25313 0.00853,7.6e-4 0.013796,0.006 0.022536,0.008 0.1131245,0.005 0.2441257,-0.045 0.3313927,-0.13745 0.095189,-0.0984 0.1368526,-0.25252 0.1118551,-0.37137 -0.025216,-0.11988 -0.086546,-0.20812 -0.151088,-0.28895 -0.00938,-0.0113 -0.017848,-0.0184 -0.027545,-0.03 0.18985,-0.4029 0.3724997,-0.82569 0.5008451,-1.27569 l 0.2078507,0.20817 0.1519227,-0.14406 c 0.735213,-0.70104 -6.411e-4,8.2e-4 0.7345727,-0.69946 l 0.066779,-0.0657 v -0.1757 l -0.06344,-0.0633 -1.4983613,-1.50468 -1.0442623,0.99507 0.1619398,0.16238 -0.092656,0.0799 c -0.6358372,-0.0831 -1.186437,-0.003 -1.7003692,0.0658 a 0.21371527,0.21319033 0 0 0 -0.075961,0.0284 c -0.05806,0.0329 -0.1076992,0.0651 -0.1619402,0.0975 -0.1735827,-0.1078 -0.3424278,-0.22765 -0.507523,-0.35722 l 0.1519231,-0.16487 z m 0.031721,0.59538 0.4157013,0.36971 a 0.21371526,0.21319032 0 0 0 -0.014189,0.0145 l -0.9908384,1.08 -0.4173711,-0.37221 z m 4.3122762,0.0475 1.0509397,1.05419 c -0.1430902,0.13648 -0.2815827,0.26489 -0.4290571,0.40551 l -1.0509402,-1.05085 z m -3.6962369,0.78272 c 0.135923,0.10748 0.2745082,0.20559 0.4148666,0.29812 -0.1615936,0.12021 -0.2900377,0.24559 -0.3848157,0.3797 -0.03773,0.043 -0.069502,0.0878 -0.092656,0.13487 -0.020425,0.0403 -0.064074,0.1049 -0.083474,0.20983 0,0 0,8.5e-4 0,8.5e-4 -4.15e-4,0.002 3.689e-4,0.005 0,0.008 -0.016783,0.10474 0.012535,0.23819 0.090152,0.3439 0,0 8.547e-4,8.5e-4 8.547e-4,8.5e-4 a 0.21371526,0.21319032 0 0 0 0.012523,0.0161 0.21371527,0.21319033 0 0 0 8.548e-4,8.6e-4 0.21371526,0.21319032 0 0 0 0.014189,0.0145 0.21371527,0.21319033 0 0 0 0.064275,0.0416 c 0.3112358,0.12504 0.6237464,0.10361 0.9023559,0.0192 0.1394656,-0.0422 0.2727371,-0.0993 0.4015107,-0.16238 0.1210948,-0.0593 0.2374323,-0.12423 0.3522611,-0.18735 0.00972,-0.003 0.013561,-0.003 0.022536,-0.006 0.01301,-0.003 0.026374,-0.006 0.039234,-0.01 0.4702356,0.3407 0.8944376,0.69281 1.1469353,1.10081 a 0.21371526,0.21319032 0 0 0 0.014189,0.0208 c 0.055751,0.0702 0.118233,0.13519 0.1786349,0.19734 -0.020169,0.0419 -0.039931,0.0833 -0.060102,0.12488 -0.049843,-0.0421 -0.1000262,-0.0857 -0.1469145,-0.12826 -0.00107,-9.6e-4 -0.00227,-0.002 -0.00333,-0.003 a 0.21371526,0.21319032 0 0 0 -0.283812,0.3181 c 8.975e-4,8.1e-4 0.00244,0.002 0.00333,0.003 v 8.6e-4 c 0.1113687,0.0964 0.2292773,0.21437 0.2804732,0.2981 0.025596,0.0419 0.031627,0.0714 0.031721,0.0749 9.49e-5,0.003 0.0098,-0.0129 -0.00419,8.5e-4 a 0.21371526,0.21319032 0 0 0 -0.00501,0.005 c -0.045673,0.0459 -0.059726,0.0429 -0.055093,0.0425 0.00464,-4.3e-4 0.00171,0.003 -0.03005,-0.0176 -0.062169,-0.0416 -0.1804526,-0.17612 -0.3322274,-0.30975 -0.0012,-0.001 -0.00132,-0.002 -0.00252,-0.003 -0.00218,-0.002 -0.00282,-0.002 -0.00501,-0.005 a 0.21371526,0.21319032 0 0 0 -0.2854818,0.31726 c 0.1329817,0.12311 0.2772186,0.27682 0.3464179,0.38969 0.029674,0.0483 0.036114,0.0778 0.039234,0.0907 a 0.21371526,0.21319032 0 0 0 -0.00167,0.002 c -0.016681,-0.005 -0.046169,-0.0129 -0.092656,-0.0416 -0.1121278,-0.0688 -0.2555095,-0.20047 -0.3455832,-0.2956 a 0.21371526,0.21319032 0 0 0 -0.3230454,0.27812 c 0.055223,0.0698 0.1400114,0.1806 0.1953299,0.27812 0.027661,0.0488 0.046257,0.0944 0.052589,0.11908 9.83e-4,0.003 4.701e-4,0.002 8.548e-4,0.005 -0.00805,-0.002 -0.055069,-0.0145 -0.1252114,-0.0607 -0.1090339,-0.0725 -0.2494094,-0.19718 -0.3956675,-0.31975 0.00979,-0.0393 0.021788,-0.0785 0.024207,-0.11908 0.00751,-0.12617 -0.028571,-0.28041 -0.1535925,-0.37387 -0.1157593,-0.0865 -0.2503446,-0.078 -0.3555999,-0.0358 -0.00735,-0.11054 -0.046462,-0.23031 -0.1494187,-0.30727 -0.1065405,-0.0796 -0.2299987,-0.0756 -0.3313926,-0.0416 -0.00402,-0.11489 -0.043062,-0.24168 -0.1519231,-0.32307 -0.1139989,-0.0852 -0.2460361,-0.0772 -0.3505914,-0.0366 l -0.032554,-0.0266 c 0.012292,-0.0446 0.025622,-0.0894 0.028383,-0.13567 0.00751,-0.12617 -0.027737,-0.28291 -0.1527578,-0.37638 -0.122,-0.0912 -0.2665468,-0.0748 -0.3739643,-0.0266 l -0.1227411,-0.70292 a 0.21371526,0.21319032 0 0 0 -0.094326,-0.14245 l -0.1218722,-0.0783 z m 3.1219345,0.0815 0.6260561,0.62867 c -0.1021769,0.4417 -0.2686616,0.87129 -0.4591077,1.28984 -0.00992,-0.0113 -0.029054,-0.0301 -0.037563,-0.0408 l 0.014189,0.0208 c -0.1982242,-0.32031 -0.466031,-0.59363 -0.7629539,-0.84601 a 0.21371527,0.21319033 0 0 0 -0.093491,-0.27147 c -0.081766,-0.0538 -0.1839909,-0.13261 -0.3338967,-0.17902 -0.081992,-0.0255 -0.1765475,-0.0346 -0.2779692,-0.0258 -0.00665,5.5e-4 -0.014852,0.003 -0.021703,0.003 -0.077705,0.008 -0.159337,0.0263 -0.2437444,0.0599 a 0.21371527,0.21319033 0 0 0 -0.00668,0.005 0.21371526,0.21319032 0 0 0 -0.015027,0.008 c -0.1219427,0.0669 -0.2421703,0.13245 -0.358104,0.18902 -0.079613,0.0388 -0.1550233,0.0654 -0.2312236,0.0941 -0.034426,0.0129 -0.070636,0.0322 -0.1043429,0.0425 -5.556e-4,1.6e-4 -0.00111,6.7e-4 -0.00167,8.5e-4 -0.181609,0.0546 -0.3464876,0.0383 -0.5175397,-0.008 0.00735,-0.0161 0.00798,-0.0185 0.023374,-0.0491 a 0.21371526,0.21319032 0 0 0 0,-8.6e-4 c 0,0 8.548e-4,-8.5e-4 8.548e-4,-8.5e-4 6.411e-4,-0.001 0.00269,-0.003 0.00333,-0.005 0.075819,-0.14712 0.3742618,-0.39828 0.8063607,-0.64951 0.5500186,-0.0752 1.0499307,-0.17412 1.6444413,-0.0725 a 0.21371527,0.21319033 0 0 0 0.1727916,-0.0474 z"
       id="rect1085-8"
       inkscape:connector-curvature="0" />
  </g>
</svg>
