<?xml version="1.0" encoding="iso-8859-1"?>
<!-- Generator: Adobe Illustrator 19.0.0, SVG Export Plug-In . SVG Version: 6.00 Build 0)  -->
<svg version="1.1" id="Capa_1" xmlns="http://www.w3.org/2000/svg" xmlns:xlink="http://www.w3.org/1999/xlink" x="0px" y="0px"
	 viewBox="0 0 512 512" style="enable-background:new 0 0 512 512;" xml:space="preserve">
<g>
	<path style="fill:#E8EAE8;" d="M115.2,97.6c0,0-4.267,34.133,9.6,33.067s12.8-13.867,12.8-13.867S129.067,94.4,115.2,97.6z"/>
	<polygon style="fill:#E8EAE8;" points="435.2,127.467 448,203.2 489.6,201.067 503.467,200 489.6,116.8 	"/>
</g>
<path style="fill:#FFD15C;" d="M440.533,158.4l1.067,6.4c0,0,2.133,0,4.267,0s4.267-2.133,5.333-2.133l3.2-3.2
	c0,0,4.267,4.267,0,7.467c-4.267,4.267-8.533,4.267-8.533,4.267s-1.067,4.267-4.267,5.333l1.067,7.467c0,0-3.2,4.267-9.6,5.333
	c-6.4,1.067-12.8,6.4-12.8,6.4l3.2-20.267c0,0,4.267-1.067,6.4-4.267C433.067,169.067,437.333,159.467,440.533,158.4z"/>
<path style="fill:#344A5E;" d="M13.867,189.333l57.6-4.267c3.2,0,5.333-3.2,5.333-6.4L65.067,72c0-3.2-3.2-5.333-6.4-5.333
	L5.333,68.8C2.133,68.8,0,72,0,75.2L8.533,184C8.533,187.2,10.667,189.333,13.867,189.333z"/>
<path style="fill:#F5B54C;" d="M117.333,131.733c0-2.133-10.667-1.067-14.933,0c-4.267,0-7.467,2.133-6.4,4.267
	c0,2.133,3.2,3.2,7.467,2.133C106.667,137.067,117.333,132.8,117.333,131.733z"/>
<path style="fill:#F05640;" d="M96,147.733h-6.4v-7.467H96c2.133,0,4.267-2.133,4.267-4.267v-26.667c0-2.133-2.133-3.2-4.267-3.2
	h-8.533V97.6H96c6.4,0,11.733,5.333,11.733,11.733V136C107.733,142.4,102.4,147.733,96,147.733z"/>
<path style="fill:#FFD15C;" d="M124.8,105.067c0,0-1.067,0-4.267-1.067c-4.267-1.067-14.933,0-18.133,1.067
	c-3.2,1.067-6.4,3.2-6.4,3.2s-3.2,3.2,1.067,5.333c0,0-5.333,4.267,0,7.467c0,0-4.267,2.133,0,6.4c0,0-3.2,5.333,1.067,7.467
	c4.267,2.133,11.733,0,13.867-1.067c2.133-1.067,8.533-4.267,14.933-6.4c5.333-2.133,5.333-3.2,5.333-3.2L124.8,105.067z"/>
<g>
	<path style="fill:#F5B54C;" d="M97.067,113.6L97.067,113.6c1.067,0,2.133-1.067,2.133-1.067c1.067,0,1.067,0,2.133,0h1.067
		c0,0,0,0-1.067,0c0,0-1.067,0-2.133,0C99.2,113.6,98.133,113.6,97.067,113.6L97.067,113.6z"/>
	<path style="fill:#F5B54C;" d="M97.067,121.067L97.067,121.067c1.067,0,1.067-1.067,1.067-1.067H99.2l0,0l0,0l0,0h-1.067
		C98.133,121.067,98.133,121.067,97.067,121.067L97.067,121.067z"/>
	<path style="fill:#F5B54C;" d="M98.133,127.467L98.133,127.467c1.067,0,1.067,0,1.067-1.067h1.067l0,0l0,0H99.2
		C99.2,127.467,98.133,127.467,98.133,127.467L98.133,127.467z"/>
</g>
<g>
	<path style="fill:#67C5B8;" d="M329.6,190.4c0,0,20.267,24.533,24.533,26.667c4.267,2.133,16,0,23.467-1.067
		c7.467-2.133,40.533-11.733,51.2-11.733c0,0,1.067-11.733,0-19.2c-2.133-7.467-1.067-10.667-1.067-10.667s-35.2,5.333-42.667,8.533
		c-8.533,2.133-14.933,3.2-14.933,3.2s-6.4,0-10.667-7.467c-5.333-9.6-7.467-16-7.467-16L329.6,190.4z"/>
	<path style="fill:#67C5B8;" d="M265.6,81.6l-8.533-5.333c0,0-9.6,4.267-14.933,6.4c-4.267,2.133-18.133,3.2-32,1.067
		C195.2,81.6,115.2,96.533,115.2,96.533s11.733,9.6,11.733,20.267c-1.067,10.667-2.133,13.867-4.267,14.933
		c0,0,25.6-3.2,33.067-4.267c6.4-1.067,41.6-4.267,51.2-4.267c9.6,0,34.133,5.333,37.333,7.467c3.2,2.133,8.533,2.133,8.533,2.133
		S291.2,90.133,265.6,81.6z"/>
</g>
<path style="fill:#CED6E0;" d="M85.333,401.6c0,0,20.267-5.333,29.867-3.2s10.667,2.133,10.667,2.133L115.2,376
	c0,0-18.133-6.4-22.4-8.533c-4.267-3.2-4.267-3.2-4.267-3.2S60.8,384.533,85.333,401.6z"/>
<path style="fill:#344A5E;" d="M78.933,362.133l-3.2-2.133l-7.467-2.133L58.667,376l2.133,4.267c0,0-9.6,10.667-13.867,26.667
	c-5.333,16-4.267,32-3.2,34.133c1.067,2.133,3.2,2.133,3.2,2.133L78.933,362.133z"/>
<path style="fill:#CED6E0;" d="M466.133,419.733L460.8,414.4c0,0-5.333,0-9.6-1.067C446.933,412.267,428.8,392,428.8,392l-9.6,22.4
	c0,0,10.667,17.067,12.8,20.267c1.067,3.2,6.4,4.267,6.4,4.267S466.133,429.333,466.133,419.733z"/>
<path style="fill:#344A5E;" d="M440.533,454.933l3.2,5.333l21.333-12.8L464,443.2c0,0,23.467-10.667,33.067-18.133
	c9.6-7.467,14.933-19.2,14.933-19.2l-2.133-2.133l-17.067,12.8C493.867,416.533,442.667,445.333,440.533,454.933z"/>
<path style="fill:#425A6B;" d="M211.2,242.667c0,0,22.4,3.2,39.467,8.533c17.067,5.333,27.733,11.733,27.733,11.733
	s2.133,5.333,6.4,5.333s29.867,4.267,60.8,16c30.933,12.8,36.267,19.2,38.4,23.467c2.133,4.267,5.333,14.933,16,23.467
	c10.667,8.533,13.867,20.267,24.533,26.667c10.667,6.4,26.667,19.2,26.667,19.2s-23.467,36.267-32,39.467c0,0-24.533-27.733-28.8-32
	s-32-42.667-35.2-48c-2.133-3.2-8.533-4.267-12.8-5.333c-4.267-1.067-82.133-11.733-82.133-11.733s-8.533,29.867-12.8,60.8
	c-4.267,30.933-6.4,41.6-17.067,45.867c-9.6,5.333-28.8,1.067-36.267-1.067c-7.467-2.133-84.267-23.467-84.267-23.467
	s-3.2-26.667,0-30.933l28.8,4.267c0,0,53.333,3.2,59.733,7.467c0,0-2.133-36.267,0-50.133c2.133-13.867,1.067-22.4,1.067-22.4
	s-17.067-28.8-3.2-62.933"/>
<path style="fill:#48B9A5;" d="M349.867,126.4c0,0,16,13.867,16,18.133c0,3.2-5.333,20.267-7.467,25.6
	c-2.133,5.333-14.933,25.6-16,30.933c-1.067,5.333-1.067,8.533,3.2,12.8c4.267,3.2,20.267,13.867,20.267,13.867
	c-2.133,6.4-10.667,10.667-19.2,16L304,216L349.867,126.4z"/>
<path style="fill:#CED6E0;" d="M349.867,240.533c0,0-7.467,1.067-11.733-11.733c-4.267-12.8-7.467-28.8,0-40.533
	c7.467-11.733,24.533-33.067,23.467-37.333c-1.067-5.333-16-21.333-16-21.333h-14.933L284.8,245.867c0,0,24.533,3.2,34.133,1.067
	C327.467,244.8,339.2,245.867,349.867,240.533z"/>
<path style="fill:#E8EAE8;" d="M332.8,133.867c0,0,5.333,17.067,0,32c-4.267,13.867-30.933,51.2-35.2,57.6
	c-4.267,6.4-19.2,33.067-20.267,39.467l-60.8-16L263.467,184l45.867-69.333l18.133,18.133L332.8,133.867z"/>
<path style="fill:#48B9A5;" d="M297.6,98.667c0,0-5.333-7.467-17.067-11.733C268.8,81.6,257.067,78.4,257.067,78.4
	s11.733,5.333,9.6,17.067c-2.133,11.733-11.733,32-22.4,36.267c0,0-23.467,48-39.467,69.333s-24.533,48-30.933,53.333
	c0,0,36.267,2.133,56.533-8.533c20.267-10.667,61.867-51.2,65.067-66.133c4.267-14.933,4.267-16,4.267-16
	S307.2,108.267,297.6,98.667z"/>
<path style="fill:#FFD15C;" d="M366.933,111.467c-2.133,2.133-4.267,1.067-4.267,1.067s-1.067,1.067-1.067,2.133
	s-1.067,3.2-2.133,3.2c0,0,2.133,1.067,0,3.2C358.4,123.2,355.2,126.4,355.2,129.6c0,3.2-3.2,7.467-6.4,6.4
	c-4.267-1.067-10.667-3.2-13.867-3.2c-1.067,0-1.067,0-2.133,0l-5.333-1.067L320,124.267L304,97.6l5.333-1.067
	c0,0,27.733-59.733,56.533-24.533v6.4l1.067,13.867c0,0-3.2,3.2-2.133,6.4C365.867,102.933,369.067,109.333,366.933,111.467z"/>
<path style="fill:#F26F5A;" d="M330.667,139.2c0,0,1.067,9.6,1.067,11.733c0,1.067,1.067,12.8,1.067,22.4
	c1.067,8.533,0,17.067-2.133,25.6l0,0c-2.133,8.533-5.333,17.067-9.6,24.533c-4.267,7.467-9.6,16-12.8,21.333
	c-3.2,5.333-7.467,10.667-11.733,14.933l-1.067,1.067c0,0-10.667-2.133-10.667-7.467c0,0,7.467-6.4,10.667-12.8
	c3.2-6.4,14.933-21.333,17.067-26.667c2.133-5.333,10.667-16,11.733-33.067c1.067-16,0-41.6,0-41.6S327.467,133.867,330.667,139.2z"
	/>
<path style="fill:#F05640;" d="M317.867,128.533c0,0,2.133,7.467,5.333,10.667c0,0,6.4-2.133,7.467,0l2.133-4.267l-5.333-2.133
	L317.867,128.533z"/>
<path style="fill:#F3F3F3;" d="M311.467,99.733c0,0,12.8,12.8,14.933,19.2s2.133,14.933,2.133,14.933L316.8,132.8l-16-24.533
	C299.733,107.2,300.8,107.2,311.467,99.733z"/>
<path style="fill:#425A6B;" d="M297.6,102.933c0,0,23.467-1.067,27.733-3.2c0,0,1.067-13.867,6.4-16
	c6.4-2.133,2.133,10.667,2.133,10.667h4.267c0,0,5.333-6.4,5.333-12.8c0,0,6.4-1.067,4.267-7.467c-2.133-6.4,5.333-8.533,9.6-6.4
	c3.2,3.2,8.533,12.8,8.533,12.8s5.333-7.467,5.333-12.8c-1.067-8.533-19.2-16-34.133-16c-13.867,0-26.667,8.533-29.867,14.933
	C304,73.067,296.533,90.133,297.6,102.933z"/>
<path style="fill:#FFD15C;" d="M336,90.133c1.067-6.4-1.067-10.667-4.267-10.667c-3.2,0-6.4,4.267-7.467,10.667
	c-1.067,6.4,1.067,10.667,4.267,10.667C331.733,100.8,334.933,96.533,336,90.133z"/>
<path style="fill:#67C5B8;" d="M296.533,95.467c2.133,1.067,4.267,2.133,6.4,3.2c4.267,3.2,10.667,9.6,10.667,13.867
	c1.067,6.4-6.4,33.067-8.533,38.4C302.933,156.267,294.4,180.8,294.4,180.8s0-37.333,1.067-44.8S297.6,99.733,296.533,95.467
	L296.533,95.467z"/>
<path style="fill:#344A5E;" d="M350.933,333.333c-1.067-1.067-82.133-24.533-75.733-33.067c2.133-3.2,17.067-16,20.267-19.2
	c3.2-3.2-14.933,11.733-20.267,18.133c-5.333,6.4-3.2,2.133,5.333-11.733c8.533-13.867,5.333-10.667,5.333-10.667
	s-11.733,17.067-14.933,23.467c-3.2,6.4-8.533,19.2-8.533,19.2s77.867,10.667,82.133,11.733
	C345.6,332.267,348.8,332.267,350.933,333.333z"/>
<g>
	<path style="fill:#425A6B;" d="M433.067,434.667c0,0,21.333-1.067,25.6-21.333c0,0,21.333,0,24.533,0
		c3.2,0,11.733-2.133,13.867-4.267c2.133-3.2,9.6-10.667,13.867-5.333c0,0-7.467,12.8-14.933,18.133
		c-7.467,5.333-33.067,17.067-36.267,19.2c-3.2,2.133-19.2,12.8-19.2,12.8S430.933,443.2,433.067,434.667z"/>
	<path style="fill:#425A6B;" d="M92.8,367.467c0,0-10.667,8.533-10.667,17.067s6.4,18.133,6.4,18.133s-16,7.467-20.267,11.733
		s-11.733,12.8-12.8,19.2c-1.067,5.333-3.2,10.667-8.533,8.533c0,0-3.2-13.867,0-25.6s9.6-26.667,13.867-32
		c5.333-5.333,11.733-23.467,14.933-25.6C75.733,358.933,89.6,358.933,92.8,367.467z"/>
	<path style="fill:#425A6B;" d="M86.4,64.533l7.467,118.4c0,0-3.2,8.533-39.467,4.267L48,64.533C48,64.533,86.4,61.333,86.4,64.533z
		"/>
</g>
<g>
</g>
<g>
</g>
<g>
</g>
<g>
</g>
<g>
</g>
<g>
</g>
<g>
</g>
<g>
</g>
<g>
</g>
<g>
</g>
<g>
</g>
<g>
</g>
<g>
</g>
<g>
</g>
<g>
</g>
</svg>
