<?xml version="1.0" encoding="iso-8859-1"?>
<!-- Generator: Adobe Illustrator 19.0.0, SVG Export Plug-In . SVG Version: 6.00 Build 0)  -->
<svg version="1.1" id="Capa_1" xmlns="http://www.w3.org/2000/svg" xmlns:xlink="http://www.w3.org/1999/xlink" x="0px" y="0px"
	 viewBox="0 0 512.682 512.682" style="enable-background:new 0 0 512.682 512.682;" xml:space="preserve">
<polygon style="fill:#425A6B;" points="468.267,442.474 461.867,427.541 356.267,416.874 356.267,442.474 "/>
<path style="fill:#2B4151;" d="M13.867,209.941c0,0-3.2,4.267-6.4,23.467s0,41.6,0,50.133s-8.533,66.133,10.667,97.067
	c19.2,30.933,19.2,30.933,19.2,30.933s13.867-119.467,13.867-128C51.2,276.074,13.867,209.941,13.867,209.941z"/>
<path style="fill:#FFD15C;" d="M144,88.341c0,0,12.8,16,13.867,30.933c0,0,0,3.2-1.067,4.267c-1.067,1.067-1.067,3.2,0,4.267
	c1.067,1.067,7.467,12.8,7.467,12.8s2.133,2.133,0,4.267s-6.4,3.2-6.4,3.2c-1.067,1.067,1.067,7.467-2.133,6.4
	c0,0,1.067,1.067,0,3.2c-1.067,2.133-5.333,7.467-4.267,10.667c1.067,3.2-1.067,7.467-5.333,8.533
	c-4.267,0-14.933-1.067-14.933-1.067s-4.267,11.733-6.4,14.933c-2.133,3.2-2.133,3.2-2.133,3.2l-43.733-32l3.2-12.8l18.133-49.067
	L144,88.341z"/>
<path style="fill:#425A6B;" d="M78.933,160.874c0,0,18.133-1.067,19.2-7.467c1.067-7.467-2.133-19.2,2.133-24.533
	c3.2-6.4,8.533-7.467,13.867-5.333c4.267,2.133,10.667,12.8,10.667,16h2.133c0,0,3.2-14.933,7.467-21.333
	c4.267-5.333,1.067-9.6,0-12.8c-1.067-3.2,5.333-12.8,12.8-13.867s1.067-11.733-6.4-14.933c-7.467-3.2-18.133-6.4-35.2-6.4
	c-16,0-26.667,7.467-33.067,16c-7.467,10.667-13.867,30.933-13.867,34.133c0,3.2,6.4,19.2,14.933,26.667
	C78.933,153.408,78.933,160.874,78.933,160.874z"/>
<ellipse transform="matrix(-0.2551 -0.9669 0.9669 -0.2551 6.3651 279.7886)" style="fill:#FFD15C;" cx="110.955" cy="137.442" rx="13.866" ry="7.467"/>
<path style="fill:#F3F3F3;" d="M75.733,164.074c0-1.067,1.067-4.267,4.267-4.267c3.2,0,12.8,1.067,26.667,8.533
	c12.8,7.467,28.8,26.667,30.933,34.133l-24.533-9.6L75.733,164.074z"/>
<path style="fill:#425A6B;" d="M20.267,337.941C19.2,357.141,0,427.541,0,442.474h157.867c1.067-8.533,7.467-84.267,6.4-98.133
	c0-14.933-5.333-91.733-10.667-112c-4.267-20.267-12.8-30.933-27.733-39.467s-14.933-8.533-14.933-8.533l-35.2-13.867l-13.867,4.267
	c0,0-2.133,4.267-9.6,6.4c-6.4,2.133-26.667,12.8-29.867,14.933c-3.2,2.133-9.6,11.733-11.733,22.4c-1.067,10.667,0,41.6,3.2,52.267
	C17.067,281.408,20.267,318.741,20.267,337.941z"/>
<g>
	<path style="fill:#F26F5A;" d="M377.6,232.341l-5.333-13.867c0,0-2.133-10.667,2.133-22.4c4.267-11.733,6.4-21.333,6.4-21.333
		l9.6,12.8l9.6,18.133l-2.133,18.133l-5.333,3.2"/>
	<path style="fill:#F26F5A;" d="M442.667,147.007c1.067,7.467,3.2,14.933,4.267,22.4c2.133,11.733,4.267,23.467,8.533,35.2
		c2.133,5.333,4.267,11.733,7.467,16c3.2,5.333,8.533,8.533,13.867,10.667c-2.133,1.067-5.333,0-7.467-1.067
		c-2.133-1.067-4.267-2.133-6.4-3.2c-4.267-1.067-8.533,0-11.733-1.067c-3.2-1.067-6.4-4.267-7.467-7.467
		c-2.133-3.2-2.133-6.4-3.2-10.667c-2.133-13.867-4.267-28.8-5.333-42.667"/>
</g>
<path style="fill:#FFD15C;" d="M384,232.341l12.8-12.8c0,0-2.133-12.8-4.267-13.867c-2.133-1.067-6.4-4.267-12.8-3.2
	c-6.4,1.067-8.533-5.333-6.4-8.533c1.067-4.267,0-4.267,0-4.267s-1.067-2.133,2.133-2.133c0,0-2.133,0-3.2-2.133
	c0-2.133-2.133-5.333-2.133-5.333s-7.467-2.133-5.333-6.4s4.267-8.533,4.267-9.6c1.067-2.133,0-2.133,0-2.133
	s-4.267-4.267-2.133-11.733c3.2-7.467,16-17.067,16-17.067l21.333,4.267l12.8,9.6l2.133,49.067l6.4,9.6l3.2,17.067l-19.2,34.133
	l-18.133,13.867l-19.2-4.267L384,232.341z"/>
<path style="fill:#E8EAE8;" d="M381.867,252.608c3.2,12.8,16,10.667,29.867,4.267l-38.4,104.533l-19.2-19.2L381.867,252.608z"/>
<path style="fill:#425A6B;" d="M507.733,372.074c-3.2,4.267-27.733,23.467-49.067,40.533c-16,12.8-29.867,23.467-29.867,23.467
	s-12.8-16-19.2-27.733c-6.4-11.733-7.467-16-7.467-16s20.267-7.467,25.6-9.6c5.333-2.133,11.733-6.4,16-8.533
	c1.067-1.067,5.333-3.2,9.6-5.333c6.4-3.2,14.933-8.533,16-9.6c2.133-3.2,7.467-8.533,7.467-8.533s-5.333-3.2-7.467-10.667
	c-3.2-6.4-9.6-29.867-9.6-29.867c-1.067-12.8-5.333-27.733-5.333-34.133c-1.067-10.667,3.2-34.133,10.667-39.467
	c7.467-5.333,17.067-1.067,17.067-1.067c5.333,5.333,5.333,22.4,2.133,27.733c0,0,3.2,13.867,7.467,21.333
	C496,291.008,512,356.074,512,356.074S515.2,365.674,507.733,372.074z"/>
<g>
	<path style="fill:#344A5E;" d="M437.333,217.408l7.467-1.067c0,0,23.467,10.667,28.8,12.8c5.333,2.133,8.533,4.267,8.533,4.267
		s-9.6-4.267-17.067,1.067c-7.467,5.333-11.733,28.8-10.667,39.467c1.067,10.667,9.6,40.533,5.333,52.267s-16,48,8.533,109.867
		c0,0-16,0-39.467,1.067s-24.533,5.333-39.467,1.067c-14.933-3.2-22.4-3.2-24.533-21.333c-2.133-16-2.133-16-2.133-16
		s1.067-42.667,13.867-70.4c13.867-26.667,23.467-48,23.467-48L437.333,217.408z"/>
	<path style="fill:#344A5E;" d="M368,382.741c0,0,0,0,0,1.067c0,6.4-1.067,33.067-5.333,39.467
		c-4.267,7.467-8.533,12.8-14.933,8.533c0,0,4.267-30.933,7.467-38.4c3.2-7.467,4.267-18.133,4.267-20.267
		c0-1.067,4.267-34.133,4.267-34.133l5.333,4.267v39.467H368z"/>
</g>
<path style="fill:#2B4151;" d="M269.867,390.208H262.4l-4.267-12.8l9.6-6.4h7.467C276.267,371.008,274.133,388.074,269.867,390.208z
	"/>
<path style="fill:#F5B54C;" d="M234.667,383.808c0,0-1.067,2.133-2.133,3.2c-1.067,1.067-2.133,4.267,4.267,4.267
	c0,0-3.2,4.267,5.333,4.267s8.533,0,8.533,0S238.933,382.741,234.667,383.808z"/>
<path style="fill:#FFD15C;" d="M268.8,371.008v5.333c0,0,1.067,3.2,1.067,4.267c0,1.067-6.4,6.4-6.4,6.4s0,3.2-2.133,4.267
	s-5.333,0-5.333,0s-2.133,4.267-7.467,4.267c0,0-2.133,2.133-3.2,3.2c-1.067,1.067-4.267,2.133-7.467,0c0,0-1.067-3.2,1.067-4.267
	h2.133c0,0-1.067-2.133-1.067-3.2c0,0-6.4-6.4-8.533-9.6c-1.067-3.2-1.067-3.2-1.067-3.2l2.133-32c0,0,8.533,1.067,10.667,2.133
	c2.133,1.067,2.133,2.133,2.133,2.133l12.8,9.6L268.8,371.008z"/>
<path style="fill:#F5B54C;" d="M268.8,375.274L268.8,375.274c-1.067-2.133-3.2-5.333-4.267-6.4s-2.133-2.133-2.133-2.133
	s-1.067-3.2-3.2-5.333c-1.067-2.133-4.267-4.267-4.267-4.267l0,0l0,0c-2.133,2.133-4.267,2.133-5.333,1.067
	c-1.067-1.067-2.133-2.133-2.133-3.2s2.133-3.2,2.133-3.2s0,0-1.067,0c0,0-2.133,2.133-2.133,4.267c0,1.067,1.067,3.2,3.2,3.2
	c1.067,1.067,3.2,1.067,5.333-1.067c1.067,1.067,3.2,2.133,4.267,4.267c2.133,2.133,2.133,4.267,2.133,4.267
	c0,1.067,1.067,1.067,2.133,3.2C265.6,371.008,267.733,376.341,268.8,375.274v1.067V375.274
	C268.8,376.341,268.8,376.341,268.8,375.274C268.8,376.341,268.8,375.274,268.8,375.274z"/>
<path style="fill:#FFD15C;" d="M248.533,351.808c0,0-2.133,2.133-2.133,4.267c0,2.133,4.267,6.4,8.533,2.133
	c0,0,3.2,2.133,4.267,4.267c1.067,2.133,2.133,4.267,2.133,4.267s1.067,1.067,2.133,3.2c1.067,1.067,4.267,6.4,4.267,6.4
	s3.2-1.067,6.4-4.267c3.2-3.2,3.2-3.2,3.2-3.2l-6.4-13.867l-7.467-2.133c0,0-3.2-1.067-4.267-2.133
	c-1.067-1.067-3.2-1.067-3.2-1.067S251.733,348.607,248.533,351.808z"/>
<path style="fill:#F5B54C;" d="M254.933,358.208L254.933,358.208C254.933,357.141,254.933,357.141,254.933,358.208
	c0-1.067,1.067-1.067,1.067-2.133c0,0,0,0,0-1.067c0,0,0,0,0-1.067l0,0l0,0l0,0l0,0c0,0,0,0,0,1.067v1.067
	C256,356.074,256,357.141,254.933,358.208C256,358.208,256,358.208,254.933,358.208C256,358.208,256,358.208,254.933,358.208
	C256,358.208,256,358.208,254.933,358.208L254.933,358.208z"/>
<path style="fill:#FFFFFF;" d="M247.467,357.141c0,0,3.2,0,4.267,1.067c0,0,2.133-2.133,2.133-3.2c0,0,0-1.067-2.133-2.133
	c-2.133,0-3.2,1.067-3.2,1.067C248.533,353.941,247.467,357.141,247.467,357.141z"/>
<g>
	<path style="fill:#F5B54C;" d="M263.467,387.008v-1.067v-1.067c0-1.067,0-1.067,0-2.133v-1.067v-1.067c0-1.067,0-1.067,0-1.067
		c0-1.067,0-1.067,0-1.067s0,1.067,1.067,1.067c0,0,0,1.067,1.067,1.067c0,1.067,0,1.067,1.067,2.133v1.067v1.067
		c0,1.067,0,1.067,0,2.133C263.467,387.008,263.467,387.008,263.467,387.008z"/>
	<path style="fill:#F5B54C;" d="M256,391.274c0,0,0-1.067,0-2.133c0,0,0-1.067,0-2.133c0-1.067,0-1.067,0-2.133v-1.067v-1.067
		v-1.067v-1.067v-1.067l0,0l0,0v1.067c0,0,0,0,0,1.067v1.067v1.067v1.067c0,1.067,0,1.067,0,2.133c0,1.067,0,1.067,0,2.133
		C256,391.274,256,391.274,256,391.274z"/>
	<path style="fill:#F5B54C;" d="M248.533,395.541v-1.067c0-1.067,0-2.133,0-3.2s0-1.067,0-2.133v-1.067c0-1.067,0-1.067,0-1.067
		s0,0,1.067,1.067c0,0,0,1.067,1.067,1.067c0,0,0,0,0,1.067v1.067l0,0l0,0v1.067c0,1.067,0,1.067,0,1.067
		C249.6,394.474,248.533,395.541,248.533,395.541z"/>
</g>
<path style="fill:#344A5E;" d="M372.267,232.341l-9.6,69.333v37.333c0,0-27.733,21.333-32,24.533c-3.2,3.2-11.733,6.4-14.933,8.533
	c-3.2,2.133-22.4,13.867-35.2,17.067c-8.533,2.133-16,2.133-19.2,1.067l0,0c6.4,0,8.533-8.533,8.533-10.667
	s-1.067-10.667-2.133-17.067c-1.067-6.4-5.333-9.6-5.333-9.6c6.4,0,29.867-9.6,29.867-9.6s13.867-5.333,19.2-8.533
	c5.333-3.2,12.8-12.8,14.933-17.067c2.133-5.333,5.333-9.6,8.533-13.867c3.2-5.333,4.267-12.8,6.4-17.067
	c1.067-4.267,2.133-5.333,4.267-9.6c2.133-4.267,5.333-16,6.4-21.333c1.067-5.333,6.4-17.067,10.667-21.333
	C369.067,231.274,372.267,232.341,372.267,232.341z"/>
<g>
	<path style="fill:#425A6B;" d="M370.133,231.274c0,0-7.467,20.267-11.733,35.2c-4.267,14.933-2.133,38.4,0,50.133
		c2.133,11.733,8.533,56.533,9.6,66.133c0,0,8.533-59.733,4.267-74.667c-3.2-14.933,8.533-51.2,12.8-64
		c4.267-12.8,10.667-25.6,10.667-25.6s-5.333,6.4-11.733,8.533C377.6,229.141,370.133,231.274,370.133,231.274z"/>
	<path style="fill:#425A6B;" d="M427.733,204.608c0,4.267-1.067,8.533-2.133,11.733c-2.133,5.333-5.333,13.867-8.533,19.2
		c-6.4,8.533-13.867,22.4-20.267,34.133c-6.4,11.733-18.133,35.2-23.467,55.467c-5.333,20.267-2.133,38.4-2.133,38.4
		s22.4-59.733,34.133-75.733c11.733-16,36.267-45.867,36.267-45.867l-12.8-5.333l13.867-3.2l3.2-17.067L427.733,204.608
		L427.733,204.608z"/>
</g>
<path style="fill:#67C5B8;" d="M316.8,358.208l100.267,82.133c1.067,1.067,3.2,1.067,4.267,0l55.467-70.4
	c1.067-1.067,1.067-3.2,0-4.267l-99.2-82.133c-1.067-1.067-3.2-1.067-4.267,0l-56.533,70.4
	C314.667,355.008,315.733,357.141,316.8,358.208z"/>
<polygon style="fill:#F3F3F3;" points="470.4,366.741 417.067,433.941 326.4,360.341 381.867,292.074 "/>
<path style="fill:#FFD15C;" d="M408.533,393.408l-5.333-2.133c0,0-10.667,1.067-13.867,1.067s-3.2,1.067-6.4,1.067
	c-4.267,0-9.6,0-12.8,1.067l-7.467,1.067c0,0-1.067,9.6,11.733,5.333c0,0,8.533,0,9.6,0c1.067,0,3.2,3.2,2.133,4.267
	c-1.067,1.067-2.133,4.267-2.133,4.267s-3.2,0-3.2,1.067l-2.133-2.133c0,0-3.2,2.133-3.2,5.333c0,3.2,5.333,4.267,5.333,4.267
	s2.133,4.267,5.333,4.267c0,0,2.133,5.333,6.4,4.267c0,0,2.133,4.267,7.467,4.267c5.333,0,7.467-3.2,8.533-4.267
	c1.067-1.067,4.267-7.467,10.667-11.733c6.4-4.267,6.4-4.267,6.4-4.267L408.533,393.408z"/>
<path style="fill:#425A6B;" d="M509.867,349.674H476.8l0,0c0,0-5.333,5.333-7.467,8.533c-1.067,2.133-9.6,6.4-16,9.6
	c-4.267,2.133-8.533,4.267-9.6,5.333c-4.267,2.133-10.667,6.4-16,8.533c-5.333,2.133-25.6,9.6-25.6,9.6s1.067,5.333,7.467,16
	c6.4,11.733,19.2,27.733,19.2,27.733s13.867-10.667,29.867-23.467c20.267-16,44.8-36.267,49.067-39.467
	c6.4-6.4,3.2-18.133,3.2-18.133S510.933,351.808,509.867,349.674z"/>
<path style="fill:#FFFFFF;" d="M369.067,394.474L369.067,394.474c0,2.133-2.133,4.267-4.267,3.2c-2.133,0-2.133-2.133-2.133-2.133
	L369.067,394.474z"/>
<g>
	<path style="fill:#F26F5A;" d="M365.867,156.607c0,0,7.467-5.333,21.333,0c13.867,5.333,20.267,10.667,20.267,10.667
		s-8.533,56.533-5.333,72.533c3.2,17.067,8.533,21.333,7.467,26.667c0,0,2.133-5.333,0-13.867c0,0,5.333,3.2,5.333,11.733
		s-3.2,13.867-3.2,13.867s9.6-7.467,11.733-18.133c2.133-10.667,8.533-18.133,13.867-27.733c5.333-9.6,8.533-10.667,8.533-22.4
		s-2.133-60.8-5.333-73.6c-3.2-12.8-11.733-22.4-25.6-23.467c-13.867-1.067-30.933,0-41.6,10.667
		C364.8,134.208,363.733,151.274,365.867,156.607z"/>
	<path style="fill:#F26F5A;" d="M445.867,206.741L445.867,206.741c0,1.067,0,1.067,0,1.067v1.067v1.067c0,0,0,1.067,0,2.133
		c0,1.067,0,2.133,0,4.267c0,3.2,0,6.4-2.133,9.6c0,1.067-1.067,2.133-1.067,2.133s0,1.067-1.067,1.067v1.067v1.067
		c-1.067,2.133-2.133,3.2-3.2,4.267c-2.133,3.2-4.267,5.333-6.4,8.533c-1.067,1.067-2.133,3.2-2.133,4.267
		c-1.067,1.067-1.067,3.2-2.133,4.267c0,1.067-1.067,2.133-1.067,3.2c0,1.067,0,2.133,0,3.2c0,1.067,0,1.067,0,2.133v1.067
		c0,0,0,0,0-1.067c0,0,0-1.067,0-2.133c0-1.067,0-2.133,0-3.2c0-1.067,0-2.133,1.067-3.2c0-1.067,1.067-3.2,2.133-4.267
		c1.067-1.067,1.067-3.2,2.133-4.267c2.133-3.2,4.267-6.4,6.4-8.533c1.067-1.067,2.133-3.2,3.2-4.267v-1.067v-1.067v-1.067
		c0-1.067,1.067-1.067,1.067-2.133c1.067-3.2,1.067-6.4,1.067-8.533c0-1.067,0-2.133,0-3.2v-1.067v-1.067v-1.067c0,0,0,0,0-1.067
		v-1.067L445.867,206.741z"/>
	<path style="fill:#F26F5A;" d="M372.267,218.474c0,2.133-1.067,5.333-1.067,7.467c-1.067,4.267-1.067,8.533-1.067,11.733
		c0,10.667,2.133,20.267,6.4,29.867c2.133-10.667,5.333-21.333,9.6-30.933c-2.133,6.4,0,13.867,4.267,18.133
		c-2.133-4.267-1.067-9.6,1.067-13.867c2.133-4.267,4.267-8.533,6.4-12.8c1.067-3.2,0-8.533-1.067-11.733L372.267,218.474z"/>
</g>
<g>
	<path style="fill:#2B4151;" d="M94.933,269.674c-1.067-9.6-1.067-19.2,0-27.733c2.133-10.667,5.333-22.4,14.933-29.867
		c18.133-14.933,36.267-3.2,40.533,20.267c4.267,22.4,3.2,41.6,4.267,48c1.067,6.4,10.667,26.667,11.733,30.933
		c0,5.333,4.267,7.467,8.533,10.667c4.267,4.267,17.067,10.667,22.4,11.733c5.333,1.067,33.067,7.467,33.067,7.467s9.6,9.6,0,44.8
		c0,0-17.067-2.133-38.4-9.6s-38.4-8.533-44.8-10.667c-6.4-3.2-34.133-13.867-39.467-25.6
		C103.467,331.541,97.067,286.741,94.933,269.674z"/>
	<path style="fill:#2B4151;" d="M62.933,174.741c0,0,4.267-3.2,6.4-6.4s4.267-5.333,7.467-5.333s16,1.067,25.6,7.467
		c9.6,6.4,21.333,19.2,24.533,23.467c0,0-23.467-9.6-35.2-13.867C78.933,175.807,62.933,174.741,62.933,174.741z"/>
</g>
<g>
</g>
<g>
</g>
<g>
</g>
<g>
</g>
<g>
</g>
<g>
</g>
<g>
</g>
<g>
</g>
<g>
</g>
<g>
</g>
<g>
</g>
<g>
</g>
<g>
</g>
<g>
</g>
<g>
</g>
</svg>
