<svg id="Capa_1" enable-background="new 0 0 512 512" height="512" viewBox="0 0 512 512" width="512" xmlns="http://www.w3.org/2000/svg"><g><circle cx="236.056" cy="275.944" fill="#e94444" r="236.056"/><circle cx="236.057" cy="275.944" fill="#ebebeb" r="171.169"/><circle cx="236.057" cy="275.944" fill="#e94444" r="106.281"/><circle cx="236.057" cy="275.944" fill="#5a5a5a" r="41.394"/><path d="m236.056 39.887c-6.886 0-13.698.312-20.434.89 120.8 10.361 215.622 111.682 215.622 235.166s-94.822 224.806-215.622 235.167c6.736.578 13.548.89 20.434.89 130.37 0 236.056-105.686 236.056-236.056s-105.685-236.057-236.056-236.057z" fill="#d83131"/><g><path d="m454.893 1.077-51.785 51.785c-2.226 2.226-3.388 5.3-3.19 8.441l2.999 47.781 61.011-61.011-2.802-44.64c-.197-3.142-4.007-4.582-6.233-2.356z" fill="#0055a3"/><path d="m510.924 57.107-51.785 51.785c-2.226 2.226-5.3 3.388-8.441 3.19l-47.781-2.999 61.011-61.011 44.64 2.802c3.141.197 4.581 4.008 2.356 6.233z" fill="#0055a3"/><g><path d="m236.056 283.667c-1.976 0-3.953-.754-5.462-2.262-3.016-3.016-3.016-7.907 0-10.923l257.957-257.956c3.017-3.016 7.907-3.016 10.924 0 3.016 3.016 3.016 7.907 0 10.923l-257.957 257.956c-1.508 1.508-3.486 2.262-5.462 2.262z" fill="#bfbfbf"/></g></g></g></svg>