<?xml version="1.0" encoding="UTF-8" standalone="no"?> <svg id="Layer_1" data-name="Layer 1" xmlns="http://www.w3.org/2000/svg" viewBox="0 0 128 128"><defs><style>.cls-1{fill:#d63e39;}.cls-2{fill:#2d3e50;}</style></defs><title>a</title><path class="cls-1" d="M73.25148,110.6527a44.383,44.383,0,0,1-16.22308.92748l1.05182-4.96907L46.06485,111.8788l8.85042,9.68441,1.11556-5.27019a49.17452,49.17452,0,0,0,18.3673-.97626,2.40147,2.40147,0,0,0-1.14665-4.66406Z"/><path class="cls-1" d="M103.69728,51.58072,98.49774,53.23l10.5083,7.85449,4.05978-12.47542-4.77909,1.5159a49.04066,49.04066,0,0,0-21.56141-24.93,2.40154,2.40154,0,1,0-2.36647,4.17964A44.23288,44.23288,0,0,1,103.69728,51.58072Z"/><path class="cls-2" d="M79.99966,39.07624c-3.923-1.95563-12.52775-4.84215-12.52775-4.84215V31.39061l.23857-.17992a8.22066,8.22066,0,0,0,3.12117-5.22545l.047-.30506h.23467a3.17763,3.17763,0,0,0,2.94127-1.9752,3.49888,3.49888,0,0,0,.43024-1.67792,3.22994,3.22994,0,0,0-.22294-1.17729,1.66311,1.66311,0,0,0-.63754-1.02476l-.794-.48108.19557-.86438c1.43543-6.25019-3.41063-11.88633-9.915-12.03884-.16036-.00392-.31681-.00392-.46936-.00392-.15643,0-.31291,0-.46934.00392-6.50833.15251-11.35048,5.78865-9.919,12.03884l.19949.86438-.794.48108a1.62981,1.62981,0,0,0-.63754,1.02476,3.15337,3.15337,0,0,0-.22685,1.17729,3.45864,3.45864,0,0,0,.43414,1.67792,3.17629,3.17629,0,0,0,2.93735,1.9752h.23471l.04692.30506a8.24238,8.24238,0,0,0,3.12509,5.22545l.23857.17992v2.84348s-8.60868,2.88652-12.53165,4.84215a4.18575,4.18575,0,0,0-2.25289,3.039,91.22322,91.22322,0,0,0-.794,10.53692h40.814a90.86465,90.86465,0,0,0-.79009-10.53692A4.19056,4.19056,0,0,0,79.99966,39.07624Z"/><path class="cls-2" d="M125.79137,100.85552a4.1906,4.1906,0,0,0-2.25679-3.039c-3.923-1.95563-12.52775-4.84213-12.52775-4.84213v-2.8435l.23857-.17992a8.22066,8.22066,0,0,0,3.12117-5.22543l.047-.30506h.23467a3.17763,3.17763,0,0,0,2.94127-1.9752,3.499,3.499,0,0,0,.43024-1.67794,3.22994,3.22994,0,0,0-.22294-1.17729,1.66312,1.66312,0,0,0-.63754-1.02474l-.794-.48108.19557-.8644c1.43543-6.25019-3.41063-11.88631-9.915-12.03884-.16036-.0039-.31681-.0039-.46936-.0039-.15643,0-.31291,0-.46934.0039-6.50833.15253-11.35048,5.78865-9.919,12.03884l.19949.8644-.794.48108A1.62974,1.62974,0,0,0,94.55608,79.59a3.153,3.153,0,0,0-.22686,1.17729,3.45891,3.45891,0,0,0,.43414,1.67794,3.17629,3.17629,0,0,0,2.93736,1.9752h.23469l.04692.30506a8.24239,8.24239,0,0,0,3.12509,5.22543l.23859.17992v2.8435s-8.60868,2.8865-12.53167,4.84213a4.18582,4.18582,0,0,0-2.25289,3.039,91.22343,91.22343,0,0,0-.794,10.53694h40.814A90.86486,90.86486,0,0,0,125.79137,100.85552Z"/><path class="cls-2" d="M39.18566,97.81649c-3.923-1.95563-12.52775-4.84213-12.52775-4.84213v-2.8435l.23857-.17992a8.22066,8.22066,0,0,0,3.12117-5.22543l.047-.30506h.23467a3.17763,3.17763,0,0,0,2.94127-1.9752,3.499,3.499,0,0,0,.43024-1.67794A3.22994,3.22994,0,0,0,33.44785,79.59a1.66312,1.66312,0,0,0-.63754-1.02474l-.794-.48108.19555-.8644c1.43543-6.25019-3.41063-11.88631-9.915-12.03884-.16036-.0039-.31681-.0039-.46936-.0039-.15643,0-.31291,0-.46934.0039-6.50833.15253-11.35048,5.78865-9.919,12.03884l.19949.8644-.794.48108A1.62974,1.62974,0,0,0,10.20717,79.59,3.15338,3.15338,0,0,0,9.9803,80.7673a3.45891,3.45891,0,0,0,.43414,1.67794,3.17629,3.17629,0,0,0,2.93736,1.9752h.23469l.04692.30506a8.24239,8.24239,0,0,0,3.12509,5.22543l.23859.17992v2.8435s-8.60868,2.8865-12.53167,4.84213a4.18582,4.18582,0,0,0-2.25289,3.039,91.22343,91.22343,0,0,0-.794,10.53694h40.814a90.86487,90.86487,0,0,0-.79009-10.53694A4.1906,4.1906,0,0,0,39.18566,97.81649Z"/><path class="cls-1" d="M26.486,53.29263l-5.05875-1.317A44.17348,44.17348,0,0,1,40.92286,29.37085,2.40153,2.40153,0,1,0,38.55329,25.193,48.97245,48.97245,0,0,0,16.75544,50.75938L11.6956,49.44209,16.40405,61.6874Z"/></svg>