<?xml version="1.0" encoding="iso-8859-1"?>
<!-- Generator: Adobe Illustrator 19.0.0, SVG Export Plug-In . SVG Version: 6.00 Build 0)  -->
<svg version="1.1" id="Capa_1" xmlns="http://www.w3.org/2000/svg" xmlns:xlink="http://www.w3.org/1999/xlink" x="0px" y="0px"
	 viewBox="0 0 512.048 512.048" style="enable-background:new 0 0 512.048 512.048;" xml:space="preserve">
<path style="fill:#ACB2BA;" d="M428.8,148.374c0,0-3.2,0-4.267,0c-1.067,1.067-1.067,4.267-1.067,4.267l5.333,3.2
	C428.8,156.908,433.067,149.441,428.8,148.374z"/>
<g>
	<path style="fill:#425A6B;" d="M141.867,182.508c4.267,11.733,0,23.467-5.333,34.133c-5.333,10.667-12.8,20.267-14.933,32
		c-4.267,17.067,2.133,36.267,14.933,48c3.2,2.133,6.4,4.267,9.6,5.333c3.2,1.067,7.467,0,10.667-2.133
		c3.2-2.133,4.267-6.4,5.333-9.6c2.133-8.533,2.133-18.133,2.133-27.733c-1.067-27.733-7.467-55.467-17.067-82.133"/>
	<path style="fill:#425A6B;" d="M68.267,229.441c4.267,12.8,9.6,24.533,17.067,36.267c6.4-11.733,11.733-23.467,12.8-37.333
		c1.067-18.133-8.533-34.133-17.067-49.067c-8.533,12.8-11.733,28.8-11.733,43.733"/>
</g>
<g>
	
		<ellipse transform="matrix(-0.3245 -0.9459 0.9459 -0.3245 -81.9898 350.9791)" style="fill:#FFD15C;" cx="84.331" cy="204.766" rx="14.934" ry="7.467"/>
	<path style="fill:#FFD15C;" d="M144,172.908c11.733,21.333,6.4,56.533-4.267,66.133c0,0,1.067,16,21.333,25.6
		c20.267,9.6-7.467,62.933-16,81.067c-8.533,18.133-16,27.733-16,27.733l-16-2.133L89.6,253.974l4.267-8.533
		c0,0-2.133-14.933-4.267-18.133c-1.067-4.267-12.8-35.2-11.733-58.667C77.867,146.241,132.267,152.641,144,172.908z"/>
</g>
<path style="fill:#F5B54C;" d="M161.067,278.508l-11.733-21.333c-8.533-8.533-9.6-17.067-9.6-17.067s-26.667,14.933-49.067-10.667
	c0,0,9.6,24.533,40.533,37.333C161.067,278.508,161.067,278.508,161.067,278.508z"/>
<path style="fill:#67C5B8;" d="M51.2,255.041l-11.733-5.333c0,0-11.733,2.133-18.133,20.267C13.867,288.108,9.6,326.508,9.6,337.174
	c0,9.6,0,19.2,0,28.8c0,8.533,0,24.533,2.133,28.8c3.2,4.267,9.6,26.667,21.333,29.867s33.067-8.533,35.2-9.6
	c2.133-1.067,1.067,0,1.067,0s-10.667,1.067-18.133-10.667c-6.4-11.733-3.2-20.267,3.2-25.6c6.4-5.333,11.733-2.133,11.733-2.133
	s-13.867-3.2-17.067-4.267c-3.2,0-1.067-6.4,1.067-17.067c2.133-10.667,4.267-36.267,4.267-36.267S80,262.508,51.2,255.041z"/>
<path style="fill:#425A6B;" d="M173.867,450.241c0,0-7.467,3.2-13.867-1.067c-7.467-4.267,1.067-33.067,14.933-35.2
	c12.8-2.133,12.8-2.133,12.8-2.133S190.933,440.641,173.867,450.241z"/>
<path style="fill:#48B9A5;" d="M76.8,249.708c0,0-8.533,1.067-13.867,2.133c-5.333,1.067-23.467-1.067-23.467-1.067
	s14.933,35.2,16,69.333c0,0-26.667,92.8-34.133,110.933C12.8,447.041,0,473.708,0,473.708h167.467l-27.733-96L99.2,324.374
	C100.267,324.374,83.2,262.508,76.8,249.708z"/>
<path style="fill:#F5B54C;" d="M96,397.974c-3.2,4.267-26.667,16-27.733,16l0,0H67.2l0,0l0,0c0,0-1.067,0-2.133,0l0,0l0,0l0,0l0,0
	l0,0l0,0H64l0,0c-1.067,0-1.067,0-2.133-1.067l0,0l0,0l0,0l0,0c-2.133-1.067-4.267-3.2-5.333-5.333l0,0l0,0
	c0-1.067-1.067-1.067-1.067-2.133c-6.4-11.733-3.2-20.267,3.2-25.6c5.333-2.133,17.067,0,17.067,0L96,397.974z"/>
<g>
	<path style="fill:#67C5B8;" d="M66.133,375.574c0,0-2.133,0-4.267-1.067C64,374.508,65.067,375.574,66.133,375.574z"/>
	<path style="fill:#67C5B8;" d="M67.2,413.974L67.2,413.974c-2.133,1.067-23.467,12.8-35.2,9.6s-18.133-24.533-21.333-29.867
		c-3.2-4.267-2.133-20.267-2.133-28.8s0-18.133,0-28.8c0-3.2,1.067-9.6,2.133-17.067h44.8c0,0-3.2,25.6-4.267,36.267
		c-2.133,10.667-4.267,16-1.067,17.067c2.133,0,7.467,1.067,11.733,2.133c-2.133,0-4.267,1.067-7.467,3.2
		c-6.4,5.333-9.6,13.867-3.2,25.6C55.467,412.908,64,413.974,67.2,413.974z"/>
	<path style="fill:#67C5B8;" d="M68.267,413.974L68.267,413.974C69.333,412.908,68.267,413.974,68.267,413.974z"/>
	<path style="fill:#67C5B8;" d="M126.933,411.841l-57.6-118.4l18.133-7.467L70.4,280.641l4.267-30.933l19.2-4.267
		c0,0,2.133,9.6,3.2,12.8c0,4.267,8.533,48,11.733,57.6C110.933,325.441,126.933,411.841,126.933,411.841z"/>
	<path style="fill:#67C5B8;" d="M153.6,419.308c16-1.067,29.867-7.467,29.867,12.8c0,0-2.133,6.4-8.533,13.867
		c-6.4,7.467-11.733,4.267-16,3.2c0,0,5.333,7.467,20.267,0s19.2-13.867,20.267-17.067s1.067-4.267,3.2-8.533
		c2.133-4.267,2.133-8.533,3.2-14.933c0-6.4-4.267-24.533-3.2-33.067c1.067-8.533-9.6-28.8-16-43.733
		c-6.4-14.933-14.933-28.8-14.933-28.8l-12.8-19.2l-7.467,68.267l-17.067,32L153.6,419.308z"/>
</g>
<g>
	<path style="fill:#48B9A5;" d="M148.267,272.108c0,0,2.133,30.933-1.067,45.867c-3.2,14.933-10.667,48-10.667,48
		s25.6-39.467,32-60.8C168.533,305.174,179.2,282.774,148.267,272.108z"/>
	<path style="fill:#48B9A5;" d="M135.467,368.108v-1.067c0,0,8.533-33.067,10.667-48c2.133-14.933,1.067-45.867,1.067-45.867l0,0
		l0,0c10.667,3.2,17.067,8.533,20.267,16c4.267,9.6,0,18.133,0,18.133C161.067,328.641,135.467,368.108,135.467,368.108
		L135.467,368.108z M148.267,273.174c0,3.2,1.067,32-1.067,45.867c-2.133,12.8-9.6,40.533-10.667,46.933
		c4.267-6.4,25.6-40.533,30.933-59.733c0,0,4.267-8.533,0-18.133C165.333,280.641,158.933,276.374,148.267,273.174z"/>
</g>
<path style="fill:#425A6B;" d="M80,189.974c0,6.4-3.2,17.067-5.333,22.4c-3.2,8.533-3.2,17.067-1.067,24.533
	c1.067,4.267,4.267,9.6,7.467,13.867c5.333,5.333,11.733,2.133,11.733,2.133s-3.2,4.267-13.867-1.067
	c-9.6-3.2-14.933-11.733-14.933-11.733s-10.667-14.933-10.667-27.733c0-12.8,6.4-38.4,6.4-38.4s-7.467,19.2-8.533,33.067
	c0,0-2.133-17.067,6.4-37.333c0,0,9.6-29.867,26.667-32c0,0,10.667-13.867,35.2-6.4C144,138.774,155.733,180.374,160,183.574
	s12.8,8.533,14.933,19.2c3.2,10.667,8.533,20.267,10.667,25.6c3.2,5.333-5.333,24.533,2.133,30.933c7.467,6.4,19.2-1.067,19.2-1.067
	s-7.467,8.533-17.067,5.333c0,0,13.867,18.133,14.933,30.933c1.067,12.8,0,17.067,4.267,22.4S176,331.841,176,331.841
	s-13.867-9.6-16-22.4s-9.6-23.467-16-29.867c-6.4-6.4-5.333-23.467-2.133-32c3.2-7.467,9.6-23.467,9.6-33.067
	c-2.133-38.4-24.533-54.4-28.8-56.533c-5.333,2.133-23.467-5.333-29.867-2.133C85.333,160.108,80,179.308,80,189.974z"/>
<path style="fill:#48B9A5;" d="M157.867,419.308C157.867,419.308,157.867,418.241,157.867,419.308c0-1.067,0-1.067,1.067-1.067
	c0-1.067,1.067-2.133,2.133-3.2s2.133-3.2,3.2-4.267c1.067-1.067,1.067-1.067,2.133-2.133l1.067-1.067l1.067-1.067
	c1.067-1.067,1.067-1.067,2.133-2.133c1.067-1.067,1.067-1.067,2.133-2.133c1.067-1.067,3.2-2.133,4.267-3.2
	c2.133-2.133,4.267-3.2,4.267-3.2s-1.067,2.133-3.2,4.267c-1.067,1.067-2.133,2.133-3.2,4.267c-1.067,1.067-1.067,1.067-2.133,2.133
	c-2.133-1.067-2.133-1.067-3.2,0l-1.067,1.067l-1.067,1.067c-1.067,1.067-1.067,1.067-2.133,2.133
	c-1.067,1.067-1.067,1.067-2.133,2.133c-1.067,1.067-1.067,1.067-2.133,2.133c-1.067,1.067-1.067,2.133-2.133,3.2L157.867,419.308z"
	/>
<path style="fill:#F3F3F3;" d="M181.333,319.041v6.4l-74.667,23.467l-74.667-32l1.067-1.067l6.4-4.267c0,0,18.133,6.4,32,8.533
	c13.867,1.067,29.867,4.267,33.067,9.6c0,0,16-6.4,33.067-6.4C154.667,322.241,181.333,319.041,181.333,319.041z"/>
<polygon style="fill:#344A5E;" points="197.333,401.174 123.733,409.708 123.733,412.908 119.467,412.908 53.333,390.508 
	30.933,315.841 100.267,337.174 102.4,337.174 106.667,333.974 184.533,323.308 "/>
<polygon style="fill:#425A6B;" points="119.467,412.908 53.333,390.508 30.933,315.841 100.267,337.174 "/>
<polygon style="fill:#344A5E;" points="100.267,337.174 119.467,412.908 123.733,412.908 123.733,409.708 197.333,401.174 
	184.533,323.308 106.667,333.974 102.4,337.174 "/>
<path style="fill:#FFD15C;" d="M116.267,381.974c-1.067-2.133,2.133-5.333,5.333-4.267c0,0,5.333,3.2,7.467,5.333
	c2.133,2.133,5.333,5.333,6.4,7.467c1.067,2.133,5.333,8.533,5.333,10.667c0,0,4.267,5.333,6.4,5.333l6.4-1.067
	c0,0,3.2,7.467,3.2,9.6s1.067,3.2,4.267,2.133s7.467-4.267,13.867-1.067c6.4,2.133,9.6,11.733,8.533,17.067
	c-1.067,5.333-7.467,9.6-12.8,11.733c-5.333,2.133-16,0-16,0s-2.133,2.133-7.467,1.067c-5.333-1.067-18.133-6.4-21.333-7.467
	c-3.2-1.067-8.533,0-12.8-4.267s-22.4-29.867-22.4-29.867s0-1.067,1.067-1.067c0,0-8.533-4.267-6.4-9.6s13.867,5.333,14.933,6.4
	c2.133,1.067,17.067,12.8,17.067,12.8s-12.8-14.933-14.933-16c-1.067-1.067-11.733-9.6-10.667-12.8c1.067-3.2,4.267-3.2,7.467,0
	c3.2,3.2,14.933,10.667,17.067,12.8c2.133,2.133,9.6,10.667,9.6,10.667s2.133-1.067,2.133-3.2c0-2.133-3.2-9.6-5.333-11.733
	C122.667,391.574,116.267,381.974,116.267,381.974z"/>
<path style="fill:#F5B54C;" d="M89.6,403.308c0,0,0,0,1.067,1.067c1.067,1.067,2.133,1.067,3.2,2.133
	c1.067,0,1.067,1.067,2.133,2.133c1.067,1.067,1.067,1.067,2.133,2.133c1.067,1.067,3.2,3.2,4.267,4.267
	c1.067,1.067,1.067,1.067,2.133,2.133l1.067,1.067l1.067,1.067c1.067,1.067,1.067,1.067,2.133,2.133
	c1.067,0,1.067,1.067,2.133,1.067c1.067,1.067,2.133,2.133,3.2,2.133c0,0,0,1.067,1.067,1.067l0,0l0,0c0,0,0,0-1.067-1.067
	c-1.067-1.067-2.133-1.067-3.2-2.133c-1.067,0-1.067-1.067-2.133-1.067c-1.067,0-1.067-1.067-2.133-2.133l-1.067-1.067l-1.067-1.067
	c-1.067-1.067-1.067-1.067-2.133-2.133c-1.067-1.067-1.067-1.067-2.133-2.133c-1.067-1.067-1.067-1.067-2.133-2.133
	c-2.133-1.067-2.133-2.133-3.2-2.133c-1.067-1.067-1.067-1.067-2.133-2.133C92.8,405.441,91.733,404.374,89.6,403.308
	C90.667,403.308,89.6,403.308,89.6,403.308z"/>
<path style="fill:#CED6E0;" d="M219.733,291.308l16,53.333c1.067,2.133,0,4.267-2.133,5.333l-27.733,11.733
	c-2.133,1.067-4.267,0-5.333-2.133l-26.667-50.133L219.733,291.308z"/>
<polygon style="fill:#F05640;" points="227.2,317.974 222.933,301.974 179.2,320.108 187.733,335.041 "/>
<path style="fill:#F3F3F3;" d="M218.667,285.974l-48,19.2c-1.067,1.067-2.133,2.133-1.067,3.2l0,0
	c1.067,1.067,2.133,2.133,3.2,1.067l46.933-19.2c1.067-1.067,2.133-2.133,1.067-3.2l0,0
	C220.8,285.974,219.733,284.908,218.667,285.974z"/>
<path style="fill:#F05640;" d="M214.4,287.041c-4.267-9.6-13.867-6.4-24.533-2.133s-19.2,8.533-16,18.133L214.4,287.041z"/>
<path style="fill:#344A5E;" d="M269.867,201.708c0,0,4.267-6.4,7.467-6.4c3.2,0,12.8,6.4,12.8,6.4l-6.4,10.667L269.867,201.708z"/>
<path style="fill:#CED6E0;" d="M281.6,189.974c0,0-3.2-5.333,4.267-6.4c7.467-1.067,34.133,8.533,34.133,12.8
	c0,0,0,1.067-1.067,2.133c-1.067,1.067-1.067,1.067-1.067,1.067l-33.067-3.2L281.6,189.974z"/>
<path style="fill:#FFD15C;" d="M348.8,167.574c0,0-6.4,6.4-8.533,11.733c-2.133,4.267-9.6,10.667-16,13.867
	c-6.4,3.2-10.667,14.933-10.667,14.933l-32-9.6c0,0,0,0,5.333-5.333c5.333-5.333,5.333-11.733,6.4-18.133
	c1.067-6.4,4.267-17.067,6.4-22.4s4.267-7.467,4.267-7.467c-1.067-4.267,6.4-3.2,6.4-3.2c0-3.2,5.333-2.133,5.333-2.133
	l21.333,1.067l2.133,25.6L348.8,167.574z"/>
<g>
	<path style="fill:#F5B54C;" d="M322.133,176.108l1.067-4.267l0,0l0,0l2.133-4.267v-1.067v-1.067v-1.067v-1.067l-2.133-8.533l0,0
		l0,0l0,0c0,0,0-1.067-1.067-1.067c0,0,0,0-1.067-1.067l0,0l0,0l0,0c-1.067,0-1.067-1.067-2.133-1.067
		c-1.067,0-1.067-1.067-2.133-1.067c-1.067-1.067-3.2-1.067-4.267-2.133c-1.067-1.067-3.2-1.067-4.267-2.133l0,0
		c1.067,0,3.2,1.067,4.267,1.067c1.067,0,3.2,1.067,4.267,2.133c1.067,0,1.067,1.067,2.133,1.067
		c1.067-1.067,1.067-1.067,2.133-1.067l0,0l0,0c0,0,0,0,1.067,0c0,0,1.067,0,1.067,1.067c0,0,0,1.067,1.067,1.067c0,0,0,0,0,1.067
		l0,0l0,0l2.133,8.533v1.067v1.067v1.067v1.067l-3.2,5.333l0,0L322.133,176.108L322.133,176.108z"/>
	<path style="fill:#F5B54C;" d="M301.867,157.974c1.067,0,1.067,0,2.133,1.067c1.067,0,1.067,0,2.133,1.067h1.067h1.067h1.067h1.067
		h1.067l0,0c1.067,0,2.133-1.067,2.133-1.067s0,0,1.067,0l0,0l0,0l0,0l0,0l0,0l0,0v-1.067v1.067c0,1.067,1.067,2.133,1.067,3.2
		s0,1.067,1.067,2.133l0,0l0,0l0,0l0,0l0,0l0,0c0,1.067,0,1.067,0,2.133s0,1.067,0,2.133s0,1.067,0,2.133c0,1.067,0,1.067,0,2.133
		v1.067v1.067c0,0,0,0,0,1.067l0,0l0,0c0,0,0,0,1.067,0h1.067c0,0,0,0,1.067,0l0,0l0,0l1.067-1.067v1.067l0,0l0,0v1.067l0,0l0,0l0,0
		l0,0l0,0l0,0l0,0l0,0l0,0l0,0l0,0l0,0l0,0l0,0l2.133-4.267v-1.067l0,0l0,0v-1.067l7.467,0v-1.067v1.067l0,0l0,0
		c0,0,0,0,1.067,1.067c0,0,0,0,1.067,1.067c0,0,0,0,1.067,0l0,0l0,0l0,0l0,0l0,0l0,0l0,0l0,0l0,0l0,0l0,0l0,0l0,0l0,0l0,0l0,0H332.8
		c0,0,0,0-1.067-1.067c0,0,0,0-1.067-1.067l0,0l0,0h1.067l-1.067,2.133v1.067l0,0l0,0v1.067l-1.067,4.267l0,0l0,0h-1.067
		c0,0,0,0-1.067,0H326.4c0,0,0,0-1.067,0l0,0l0,0c0,0,0,0-1.067,0l0,0l0,0l0,0l0,0l0,0l0,0v-1.067l0,0c0,0,0,0,0-1.067h1.067l0,0
		l0,0c0,0,0,0-1.067,0H323.2h-1.067h-1.067l0,0l0,0c0,0,0-1.067-1.067-1.067v-1.067v-1.067c0-1.067,0-1.067,0-2.133s0-1.067,0-2.133
		s0-1.067,0-2.133s0-1.067,1.067-2.133v1.067l0,0l0,0l0,0l0,0c0-1.067,0-1.067-1.067-2.133c0-1.067-1.067-2.133-1.067-3.2H320l0,0
		l0,0l0,0l0,0l0,0l0,0c0,0,0,0-1.067,0c-1.067,0-2.133,1.067-2.133,1.067l0,0l0,0c0,0,0,0-1.067,0h-1.067H313.6h-1.067h-1.067
		C304,159.041,302.933,159.041,301.867,157.974z"/>
	<path style="fill:#F5B54C;" d="M313.6,159.041c0,0-1.067,0-1.067-1.067c-1.067,0-2.133-1.067-3.2-2.133l-1.067-1.067
		c0,0,0,0-1.067-1.067c0,0,0,0,0-1.067c0,0,0,0,0-1.067l0,0l0,0l0,0l0,0l0,0l0,0c0,0,0,0,0,1.067c0,0,0,0,1.067,1.067l1.067,1.067
		c1.067,1.067,2.133,1.067,2.133,2.133C313.6,157.974,313.6,159.041,313.6,159.041L313.6,159.041z"/>
	<path style="fill:#F5B54C;" d="M338.133,186.774l-1.067-1.067L336,184.641c0,0,0-1.067-1.067-2.133v-1.067v-1.067
		c0-1.067,0-2.133,0-3.2c0-1.067,0-2.133,0-3.2c0-1.067,0-2.133-1.067-3.2c0,0,0-1.067-1.067-1.067c0,0-1.067,0-1.067-1.067l0,0
		c0,0,0,0,0-1.067c0,0,0,0,0-1.067c0,0,0,0,0-1.067c0-1.067,1.067-1.067,1.067-2.133c0,0,1.067-1.067,2.133-1.067
		c1.067,0,1.067,0,2.133,0v2.133l0,0l0,0H336h-1.067h-1.067l0,0l0,0l0,0l0,0l0,0l0,0c0,0,0,0,0-1.067v-1.067l0,0l0,0v-1.067v-1.067
		c0-1.067,0-1.067,0-2.133s0-1.067,0-2.133l0,0l0,0l0,0l0,0h1.067c-1.067,0-1.067,0-2.133,0h-1.067c-1.067,0-2.133,0-3.2,0
		c0,0,0,0-1.067,0H326.4l0,0l0,0l0,0l0,0l0,0l0,0l0,0l0,0c-1.067-1.067-2.133-2.133-2.133-3.2c0-1.067,0-1.067,0-2.133v-1.067
		c0,0,0,0,0-1.067s1.067-2.133,1.067-3.2c0-1.067,1.067-2.133,1.067-3.2c0-1.067,1.067-2.133,1.067-3.2c0,1.067,0,2.133,0,3.2
		c0,1.067,0,2.133-1.067,3.2c0,1.067,0,2.133-1.067,3.2c0,0,0,0,0,1.067c0,0,0,0,0,1.067v1.067c0,1.067,1.067,1.067,2.133,2.133l0,0
		l0,0l0,0l0,0l0,0l0,0l0,0l0,0l0,0l0,0h1.067c0,0,0,0,1.067,0s2.133,0,3.2,0h1.067h1.067l0,0l0,0c0,0,0,0,0,1.067c0,0,0,0,0,1.067
		c0,0,0,0,0,1.067l0,0c0,1.067,0,1.067,0,2.133s0,1.067,0,2.133v1.067v1.067l0,0l0,0l0,0l0,0l0,0l0,0l0,0l0,0l0,0c0,0,0,0,1.067,0
		c0,0,0,0,1.067,0c0,0,0,0,1.067,0l0,0l0,0l7.467,2.133h-7.467h-1.067c0,0-1.067,0-1.067,1.067v1.067c0,0,0,0,0,1.067l0,0l0,0l0,0
		l0,0l0,0l0,0l0,0l0,0l0,0l0,0l0,0l1.067,1.067v1.067c0,1.067,1.067,2.133,1.067,3.2c0,1.067,0,2.133,0,3.2c0,1.067,0,2.133,0,3.2
		v1.067c0,0,0,0,0,1.067v1.067c0,0,0,1.067,1.067,1.067C337.067,186.774,338.133,186.774,338.133,186.774z"/>
</g>
<path style="fill:#FFD15C;" d="M421.333,133.441l3.2,14.933l9.6,19.2l-58.667,39.467l-11.733-22.4c0,0-16,7.467-26.667,2.133
	c-2.133-1.067-3.2-3.2-3.2-4.267c0-4.267,0-10.667-3.2-11.733s-1.067-4.267,2.133-4.267c0,0-5.333-1.067-5.333-4.267
	c0,0,1.067-5.333,0-7.467c0,0-4.267,1.067-8.533,0c-2.133-1.067-3.2-3.2-3.2-5.333c1.067-5.333,5.333-19.2,6.4-22.4l1.067-2.133
	c0,0-6.4-2.133-7.467-6.4c1.067-3.2,4.267-28.8,4.267-28.8l61.867-2.133C380.8,87.574,419.2,98.241,421.333,133.441z"/>
<path style="fill:#E8EAE8;" d="M288,183.574c0,0-6.4,1.067-6.4,3.2c2.133,7.467,34.133,14.933,37.333,9.6c0,0,0,1.067,0,3.2
	c-1.067,2.133-7.467,16-7.467,16l-37.333-7.467c0,0,4.267-16,6.4-21.333C280.533,186.774,280.533,183.574,288,183.574z"/>
<path style="fill:#425A6B;" d="M320,230.508c0,0-7.467,2.133-9.6,5.333c-2.133,3.2-3.2,8.533-5.333,10.667s-5.333,5.333-5.333,5.333
	s4.267-7.467,4.267-9.6c0-2.133,12.8-37.333,12.8-37.333s-7.467,7.467-38.4-2.133c-3.2-1.067-4.267-6.4,0-7.467l0,0
	c0,0-5.333,1.067-8.533,6.4c-2.133,5.333-6.4,27.733-10.667,38.4c-4.267,10.667-11.733,58.667-11.733,64v1.067
	c-1.067,9.6,7.467,18.133,17.067,18.133c0,0,0,0,1.067,0c13.867-1.067,41.6-7.467,45.867-10.667L320,230.508z"/>
<g>
	<path style="fill:#344A5E;" d="M361.6,191.041c0,0-16,7.467-20.267,11.733c-5.333,4.267-17.067,13.867-22.4,26.667
		c-4.267,12.8-13.867,90.667-12.8,107.733c1.067,18.133-3.2,89.6-23.467,136.533l0,0H480c0,0-14.933-55.467-13.867-77.867
		c1.067-21.333,33.067-92.8,37.333-104.533c4.267-10.667,11.733-67.2,4.267-85.333c-7.467-18.133-22.4-9.6-51.2-35.2l-37.333,12.8
		l-44.8,10.667L361.6,191.041z"/>
	<path style="fill:#344A5E;" d="M502.4,292.374c0,1.067-1.067,3.2-2.133,5.333l0,0c-8.533,20.267-34.133,78.933-34.133,98.133
		C465.067,417.174,480,473.708,480,473.708H282.667l0,0c11.733-27.733,19.2-62.933,22.4-91.733c2.133-20.267,3.2-37.333,2.133-44.8
		c0-3.2,0-8.533,0-14.933c1.067-28.8,8.533-82.133,12.8-92.8c4.267-12.8,17.067-22.4,22.4-26.667
		c5.333-4.267,20.267-11.733,20.267-11.733l10.667,4.267l44.8-10.667l37.333-12.8c26.667,22.4,40.533,18.133,49.067,29.867
		c1.067,1.067,2.133,3.2,3.2,5.333C513.067,226.241,505.6,281.708,502.4,292.374z"/>
</g>
<path style="fill:#F5B54C;" d="M364.8,184.641l11.733,22.4l7.467-5.333c23.467-33.067,25.6-61.867,25.6-61.867
	C398.933,168.641,364.8,184.641,364.8,184.641z"/>
<path style="fill:#CED6E0;" d="M374.4,195.308H368l-23.467,33.067c0,0-28.8,52.267-27.733,93.867l34.133-55.467l55.467-61.867
	L374.4,195.308z"/>
<path style="fill:#F05640;" d="M334.933,291.308c3.2-5.333,7.467-10.667,11.733-16c2.133-2.133,4.267-4.267,6.4-7.467
	c2.133-2.133,3.2-4.267,5.333-6.4c3.2-4.267,6.4-9.6,9.6-13.867c2.133-13.867,2.133-28.8,2.133-28.8l-5.333-7.467l-9.6,5.333
	c0,0-16,23.467-17.067,30.933c-1.067,7.467-4.267,23.467-6.4,33.067c-2.133,5.333-3.2,14.933-4.267,20.267
	C330.667,297.708,332.8,294.508,334.933,291.308z"/>
<path style="fill:#F26F5A;" d="M356.267,216.641c0,0,9.6-1.067,14.933,2.133c0,0,11.733-7.467,13.867-16l-10.667-7.467h-1.067
	l-6.4,1.067C366.933,196.374,357.333,208.108,356.267,216.641z"/>
<path style="fill:#E8EAE8;" d="M424.533,148.374c0,0,4.267-1.067,3.2,2.133c-1.067,3.2-54.4,44.8-54.4,44.8
	c7.467,4.267,12.8,12.8,19.2,22.4l45.867-48c1.067-1.067,2.133-3.2,1.067-5.333L432,149.441c0-1.067-1.067-2.133-2.133-2.133
	C428.8,147.308,426.667,147.308,424.533,148.374z"/>
<g>
	<path style="fill:#425A6B;" d="M441.6,156.908L441.6,156.908c-14.933,9.6-27.733,21.333-38.4,35.2
		c-8.533,10.667-18.133,22.4-22.4,27.733c-7.467,9.6-28.8,40.533-33.067,45.867S320,308.374,316.8,321.174
		c0,0,18.133-27.733,33.067-44.8c14.933-17.067,33.067-37.333,38.4-41.6c4.267-4.267,36.267-32,43.733-35.2l-6.4-7.467l13.867-2.133
		c0,0,11.733-16,14.933-17.067C454.4,171.841,443.733,159.041,441.6,156.908z"/>
	<path style="fill:#425A6B;" d="M309.333,88.641c1.067,3.2,4.267,6.4,8.533,7.467c0,0,20.267,0,28.8-3.2
		c9.6-3.2,4.267,6.4,3.2,11.733c-1.067,6.4,7.467,7.467,16,11.733l8.533,20.267l8.533-1.067c0,0-1.067-18.133,13.867-24.533
		c14.933-5.333,16,26.667,27.733,37.333c0,0,0-12.8,2.133-17.067c1.067-3.2,6.4-60.8-10.667-78.933c-17.067-19.2-48-16-65.067-6.4
		c-13.867,7.467-29.867,18.133-38.4,26.667C308.267,76.908,307.2,83.308,309.333,88.641z"/>
</g>
<ellipse transform="matrix(0.2386 -0.9711 0.9711 0.2386 179.2531 478.3797)" style="fill:#FFD15C;" cx="394.7" cy="124.876" rx="18.133" ry="10.666"/>
<path style="fill:#E8EAE8;" d="M374.4,195.308c0,0-10.667,3.2-16,16l7.467-24.533C365.867,186.774,371.2,193.174,374.4,195.308z"/>
<path style="fill:#425A6B;" d="M365.867,186.774c-3.2,5.333-8.533,8.533-13.867,11.733l1.067,3.2l-6.4,2.133
	c0,0-17.067,24.533-22.4,45.867c-8.533,30.933-6.4,71.467-6.4,71.467s6.4-21.333,9.6-46.933c2.133-14.933,13.867-35.2,23.467-48
	C357.333,213.441,362.667,200.641,365.867,186.774L365.867,186.774z"/>
<g>
	<path style="fill:#344A5E;" d="M300.8,250.774C300.8,250.774,300.8,251.841,300.8,250.774c0,1.067,0,2.133-1.067,3.2
		c0,2.133-1.067,4.267-2.133,6.4c-1.067,2.133-2.133,4.267-3.2,6.4c0,1.067-1.067,1.067-1.067,2.133v1.067c0,0,0,0,0-1.067
		c0-1.067,0-1.067,0-2.133c0-2.133,1.067-4.267,2.133-6.4c1.067-2.133,2.133-4.267,3.2-6.4
		C299.733,252.908,299.733,251.841,300.8,250.774C300.8,251.841,300.8,250.774,300.8,250.774z"/>
	<path style="fill:#344A5E;" d="M296.533,261.441C296.533,261.441,296.533,262.508,296.533,261.441
		c1.067,1.067,2.133,1.067,2.133,2.133l1.067,1.067c0,0,0,0,1.067,1.067c0,0,0,1.067,1.067,1.067c0,0,0,1.067,1.067,1.067
		c0,0,0,1.067,1.067,1.067c0,1.067,1.067,1.067,1.067,2.133v1.067v1.067c0,1.067,1.067,2.133,1.067,2.133
		c0,1.067,0,2.133,1.067,2.133c0,1.067,0,2.133,0,2.133c0,1.067,0,1.067,0,2.133s0,1.067,0,2.133c0,1.067,0,1.067,0,1.067
		c0,1.067,0,1.067,0,1.067l0,0c0,0,0,0,0-1.067v-1.067v-1.067v-1.067v-1.067v-1.067c0-1.067,0-1.067,0-2.133
		c0-1.067,0-1.067,0-2.133s0-2.133-1.067-2.133v-1.067v-1.067c0-1.067-1.067-1.067-1.067-2.133c0,0,0-1.067-1.067-1.067
		c0,0,0-1.067-1.067-1.067c0,0,0-1.067-1.067-1.067c0,0,0-1.067-1.067-1.067l-1.067-1.067
		C297.6,263.574,297.6,263.574,296.533,261.441C296.533,262.508,296.533,262.508,296.533,261.441L296.533,261.441z"/>
</g>
<path style="fill:#FFD15C;" d="M278.4,353.174L278.4,353.174c-3.2,0-14.933,0-18.133,1.067c-3.2,2.133-16,4.267-22.4,4.267
	c0,0-8.533,1.067-13.867,2.133c-5.333,1.067-16,4.267-18.133,4.267c-3.2,0-10.667,1.067-12.8-2.133c-2.133-3.2,0-5.333,4.267-5.333
	s7.467,0,9.6-1.067s13.867-4.267,13.867-4.267v-1.067c0,0-7.467,1.067-9.6,2.133c-2.133,1.067-8.533,2.133-11.733,3.2
	c-3.2,0-13.867,3.2-13.867,3.2l-2.133-9.6c0,0,8.533-2.133,12.8-3.2c4.267-1.067,5.333-2.133,8.533-3.2c3.2,0,9.6-2.133,9.6-2.133
	v-1.067c0,0-13.867,1.067-18.133,3.2c-5.333,1.067-9.6,3.2-9.6,3.2l-5.333-9.6l-4.267-10.667c0,0,9.6-5.333,16-7.467
	c7.467-2.133,12.8-3.2,16-5.333c3.2-2.133,11.733-4.267,16-4.267s4.267,0,4.267,0s2.133-1.067,9.6-2.133
	c6.4,0,17.067,1.067,23.467,3.2c6.4,2.133,17.067,8.533,26.667,9.6c10.667,2.133,10.667,2.133,10.667,2.133L278.4,353.174"/>
<path style="fill:#E8EAE8;" d="M269.867,313.708c0,0-9.6,34.133-7.467,48c0,0,1.067,2.133,4.267,4.267c3.2,2.133,25.6,3.2,25.6,3.2
	l4.267-46.933L269.867,313.708z"/>
<path style="fill:#F5B54C;" d="M181.333,337.174c0,0,2.133-1.067,4.267-3.2c1.067,0,1.067-1.067,2.133-1.067
	c0,0,1.067,0,1.067-1.067c0,0,0,0,1.067,0l0,0l0,0l0,0l0,0c0,0,0,0,1.067,0c0,0,0,0,1.067,0h1.067c1.067,0,2.133,0,3.2-1.067
	c1.067,0,2.133,0,3.2,0c1.067,0,2.133,0,3.2,0c1.067,0,2.133,0,2.133,0c1.067,0,1.067,0,2.133,0c1.067,0,3.2,0,3.2,0
	c1.067,0,1.067,0,1.067,0s0,0-1.067,0s-2.133,0-3.2,1.067h-1.067c0,0,0,0-1.067,0c0,0,0,0-1.067,0c-1.067,0-2.133,0-3.2,0
	c-1.067,0-2.133,0-3.2,0c-1.067,0-2.133,0-3.2,0c-1.067,0-2.133,0-3.2,0c0,0,0,0-1.067,0c0,0,0,0-1.067,0c0,0,0,0-1.067,0
	c0,0,0,0-1.067,0c-1.067,0-2.133,1.067-2.133,1.067c-1.067,0-1.067,1.067-2.133,1.067
	C183.467,336.108,181.333,337.174,181.333,337.174z"/>
<g>
	<path style="fill:#425A6B;" d="M502.4,291.308L502.4,291.308v1.067c0,1.067-1.067,3.2-2.133,5.333l0,0c0,0-35.2,55.467-39.467,64
		c-4.267,8.533-29.867,33.067-29.867,33.067s-7.467,11.733-34.133,4.267c-18.133-4.267-61.867-13.867-91.733-19.2
		c-13.867-2.133-25.6-4.267-28.8-4.267c0,0-9.6-42.667,10.667-60.8c0,0,10.667,3.2,20.267,5.333c8.533,2.133,16,4.267,18.133,4.267
		c5.333,1.067,22.4,7.467,34.133,7.467c12.8,0,38.4,1.067,38.4,1.067s1.067-12.8,6.4-19.2c0,0,2.133-10.667,5.333-16
		s3.2-10.667,5.333-14.933c2.133-4.267,7.467-18.133,8.533-21.333c0,0,16-77.867,65.067-67.2c11.733,2.133,20.267,11.733,22.4,22.4
		C513.067,232.641,513.067,256.108,502.4,291.308z"/>
	<path style="fill:#425A6B;" d="M152.533,237.974c0,0-1.067,1.067-2.133,3.2c-1.067,2.133-2.133,4.267-4.267,8.533
		c-1.067,2.133-1.067,3.2-2.133,5.333c0,1.067-1.067,2.133-1.067,3.2s-1.067,2.133-1.067,3.2c-1.067,2.133-1.067,4.267-1.067,7.467
		c0,2.133,0,5.333,0,7.467c0,1.067,0,2.133,1.067,3.2v1.067v1.067c0,1.067,0,1.067,1.067,2.133c1.067,2.133,2.133,4.267,3.2,6.4
		c1.067,2.133,2.133,4.267,3.2,6.4c1.067,2.133,2.133,3.2,3.2,5.333c3.2,6.4,6.4,10.667,6.4,10.667s-2.133-4.267-6.4-10.667
		c-1.067-2.133-2.133-3.2-3.2-5.333c-1.067-2.133-2.133-4.267-3.2-6.4c-1.067-2.133-2.133-4.267-3.2-6.4
		c0-1.067,0-1.067-1.067-2.133v-1.067v-1.067c0-1.067-1.067-2.133-1.067-4.267s0-5.333,0-7.467c0-2.133,1.067-5.333,1.067-7.467
		c0-1.067,1.067-2.133,1.067-3.2c0-1.067,1.067-2.133,1.067-3.2c1.067-2.133,1.067-4.267,2.133-5.333c1.067-3.2,3.2-6.4,4.267-8.533
		c1.067-2.133,1.067-3.2,1.067-3.2L152.533,237.974z"/>
	<path style="fill:#425A6B;" d="M130.133,138.774L130.133,138.774c1.067,1.067,1.067,1.067,2.133,2.133
		c1.067,1.067,1.067,1.067,2.133,2.133c1.067,1.067,2.133,2.133,2.133,3.2c1.067,1.067,2.133,2.133,3.2,3.2
		c1.067,1.067,2.133,2.133,3.2,4.267c2.133,3.2,4.267,6.4,6.4,9.6c1.067,1.067,2.133,3.2,3.2,5.333s2.133,3.2,3.2,5.333
		c1.067,2.133,1.067,3.2,2.133,4.267c1.067,1.067,1.067,3.2,1.067,4.267c0,1.067,0,1.067,1.067,2.133c0,1.067,0,1.067,0,2.133
		s0,1.067,0,2.133v1.067c0,1.067,0,1.067,0,2.133v1.067c0,0,0,0,0-1.067c0,0,0-1.067,0-2.133v-1.067v-1.067c0-1.067,0-1.067,0-2.133
		c0-1.067,0-1.067-1.067-2.133c0-1.067-1.067-3.2-2.133-4.267c-1.067-1.067-1.067-3.2-2.133-4.267c-1.067-1.067-2.133-3.2-3.2-4.267
		c-1.067-1.067-2.133-3.2-3.2-4.267c-2.133-3.2-4.267-6.4-6.4-8.533c-1.067-1.067-2.133-3.2-3.2-4.267s-2.133-2.133-3.2-3.2
		c-1.067-1.067-2.133-2.133-3.2-3.2c-1.067-1.067-1.067-1.067-2.133-2.133c-1.067-1.067-1.067-1.067-1.067-1.067l0,0
		L130.133,138.774z"/>
	<path style="fill:#425A6B;" d="M142.933,161.174L142.933,161.174c1.067,0,1.067,0,2.133,1.067c1.067,0,3.2,1.067,4.267,2.133
		c1.067,0,2.133,1.067,3.2,2.133c1.067,1.067,2.133,1.067,3.2,2.133l1.067,1.067l1.067,1.067c0,0,0,0,1.067,1.067
		c0,0,0,0,1.067,1.067c0,0,1.067,1.067,1.067,2.133c0,1.067,1.067,1.067,1.067,2.133s1.067,1.067,1.067,2.133
		c0,1.067,1.067,1.067,1.067,2.133c0,1.067,1.067,1.067,1.067,2.133s0,1.067,1.067,2.133c0,1.067,0,1.067,1.067,2.133
		c0,1.067,0,1.067,0,2.133v1.067c0,1.067,0,2.133,1.067,3.2c0,1.067,0,1.067,0,2.133c0,1.067,0,2.133,0,2.133s0-1.067,0-2.133
		c0-1.067,0-1.067,0-2.133s0-2.133-1.067-2.133v-1.067c0,0,0-1.067-1.067-1.067c0,0,0-1.067-1.067-2.133
		c0-1.067,0-1.067-1.067-2.133c0-1.067-1.067-1.067-1.067-2.133c0-1.067-1.067-1.067-1.067-2.133s-1.067-1.067-1.067-2.133
		L160,178.241l-1.067-1.067c0,0,0,0-1.067-1.067c0,0,0,0-1.067-1.067l-1.067-1.067l-1.067-1.067c-1.067-1.067-2.133-1.067-3.2-2.133
		s-2.133-1.067-3.2-1.067c-2.133-1.067-3.2-1.067-4.267-2.133c-1.067,0-1.067,0-1.067,0l0,0L142.933,161.174z"/>
	<path style="fill:#425A6B;" d="M170.667,195.308c0,0,5.333,10.667,10.667,21.333c1.067,1.067,1.067,2.133,2.133,4.267
		c1.067,1.067,1.067,2.133,2.133,4.267c1.067,1.067,1.067,2.133,1.067,3.2c0,1.067,1.067,2.133,1.067,3.2c0,2.133,0,4.267,0,5.333
		s0,1.067,0,1.067l0,0l0,0v-1.067c0-1.067,0-3.2,0-5.333c0-1.067,0-2.133-1.067-3.2c0-1.067-1.067-2.133-1.067-3.2
		c-1.067-1.067-1.067-2.133-2.133-4.267c-1.067-1.067-1.067-2.133-2.133-4.267C176,205.974,169.6,196.374,169.6,196.374
		L170.667,195.308z"/>
	<path style="fill:#425A6B;" d="M183.467,245.441L183.467,245.441c0,1.067,0,1.067,0,1.067c0,1.067,0,2.133,0,3.2
		c0,1.067,0,3.2,1.067,4.267c0,0,0,0,0,1.067l0,0l0,0l0,0l0,0c0,0,0,1.067,1.067,1.067c0,1.067,1.067,1.067,2.133,2.133
		c1.067,1.067,1.067,1.067,2.133,2.133c0,0,0,0,1.067,0c0,0,0,0,1.067,0c0,0,0,0,1.067,0c0,0,0,0,1.067,0c2.133,0,3.2,0,4.267,0
		h1.067h1.067c1.067,0,1.067,0,1.067-1.067l0,0l0,0l0,0l0,0l0,0l0,0c0,0-1.067,0-1.067,1.067h-1.067H198.4c-1.067,0-3.2,0-5.333,0
		c0,0,0,0-1.067,0c0,0,0,0-1.067,0c0,0,0,0-1.067,0c0,0,0,0-1.067,0s-2.133-1.067-2.133-2.133c-1.067-1.067-1.067-1.067-2.133-2.133
		l-1.067-1.067l0,0l0,0l0,0l0,0c0,0,0,0,0-1.067c-1.067-2.133-1.067-3.2-1.067-5.333c0-1.067,0-3.2,0-3.2v-1.067l0,0
		L183.467,245.441z"/>
	<path style="fill:#425A6B;" d="M145.067,271.041c0,0,0,1.067,1.067,2.133c1.067,1.067,2.133,3.2,3.2,5.333
		c1.067,2.133,2.133,5.333,4.267,8.533c1.067,1.067,1.067,3.2,2.133,4.267c1.067,2.133,1.067,3.2,2.133,5.333
		c0,2.133,1.067,3.2,1.067,5.333c0,2.133,1.067,3.2,1.067,5.333s0,3.2,0,4.267s0,3.2,0,4.267s0,1.067,0,2.133
		c0,1.067,0,1.067,0,2.133v1.067v1.067c0,1.067,0,1.067,0,2.133v1.067c0,0,0,0,0-1.067c0,0,0-1.067,0-2.133v-1.067v-1.067
		c0,0,0-1.067,0-2.133c0-1.067,0-1.067,0-2.133s0-3.2,0-4.267s0-3.2,0-4.267s-1.067-3.2-1.067-5.333c0-2.133-1.067-3.2-1.067-5.333
		c-2.133-6.4-5.333-12.8-7.467-17.067c-1.067-2.133-2.133-4.267-3.2-5.333c-1.067-1.067-1.067-2.133-1.067-2.133L145.067,271.041z"
		/>
	<path style="fill:#425A6B;" d="M59.733,217.708L59.733,217.708c0,1.067,0,1.067,0,2.133c0,0,0,0,0,1.067c0,0,0,0,0,1.067v1.067
		c0,1.067,0,1.067,0,2.133s0,1.067,1.067,2.133v1.067v1.067v1.067v1.067c3.2,0,3.2,1.067,3.2,2.133c0,1.067,1.067,2.133,1.067,3.2
		c0,0,0,1.067,1.067,1.067l1.067,1.067l1.067,1.067l1.067,1.067c1.067,1.067,1.067,2.133,2.133,3.2l1.067,1.067l1.067,1.067
		l1.067,2.133l1.067,1.067l1.067,1.067l1.067,1.067l1.067,1.067L80,253.974l1.067,1.067c2.133,1.067,4.267,2.133,5.333,3.2
		c2.133,1.067,3.2,3.2,4.267,5.333c0,0,0,0,0,1.067c0,0,0,0,0,1.067c0,0,0,1.067,1.067,1.067c0,1.067,1.067,2.133,1.067,2.133
		c1.067,2.133,1.067,3.2,1.067,5.333c0,1.067,0,3.2,0,4.267c0,1.067,0,2.133,0,2.133c0,1.067,0,1.067,0,1.067s0,0,0-1.067
		s0-1.067,0-2.133c0-1.067,0-2.133,0-3.2s-1.067-3.2-1.067-4.267c0-1.067-1.067-2.133-1.067-2.133s0-1.067-1.067-1.067
		c0,0,0,0,0-1.067c0,0,0,0,0-1.067c-1.067-1.067-3.2-3.2-4.267-4.267c-2.133-1.067-3.2-2.133-5.333-4.267L80,256.108l-1.067-1.067
		l-1.067-1.067l-1.067-1.067l-2.133-1.067l-1.067-1.067l-1.067-1.067l-1.067-1.067l-1.067-1.067c-1.067-1.067-1.067-2.133-2.133-3.2
		l-1.067-1.067l-1.067-1.067l-1.067-1.067L64,240.108c-1.067-1.067-1.067-2.133-2.133-3.2c0-1.067-1.067-2.133-1.067-3.2
		c0,0,0-1.067-1.067-1.067c0,0,0-1.067-1.067-1.067c0,0,0-1.067-1.067-1.067v-1.067c0-1.067-1.067-1.067-1.067-2.133
		c0-1.067,0-1.067-1.067-2.133c0-1.067,0-1.067,0-2.133c0,0,0,0,0-1.067c0,0,0,0,0-1.067v-1.067c0-1.067,0-1.067,0-1.067
		L59.733,217.708z"/>
</g>
<g>
</g>
<g>
</g>
<g>
</g>
<g>
</g>
<g>
</g>
<g>
</g>
<g>
</g>
<g>
</g>
<g>
</g>
<g>
</g>
<g>
</g>
<g>
</g>
<g>
</g>
<g>
</g>
<g>
</g>
</svg>
