<?xml version="1.0" encoding="iso-8859-1"?>
<!-- Generator: Adobe Illustrator 19.0.0, SVG Export Plug-In . SVG Version: 6.00 Build 0)  -->
<svg version="1.1" id="Capa_1" xmlns="http://www.w3.org/2000/svg" xmlns:xlink="http://www.w3.org/1999/xlink" x="0px" y="0px"
	 viewBox="0 0 512.401 512.401" style="enable-background:new 0 0 512.401 512.401;" xml:space="preserve">
<path style="fill:#344A5E;" d="M248.817,67.203c0,0-3.2,14.933,1.067,23.467s6.4,3.2,6.4,3.2S262.684,69.336,248.817,67.203z"/>
<path style="fill:#425A6B;" d="M230.684,201.603l-7.467-6.4c0,0-9.6,3.2-13.867,18.133c-3.2,14.933-7.467,32-9.6,40.533
	c-1.067,8.533-76.8,151.467-76.8,151.467s-8.533,18.133,8.533,43.733c5.333,8.533,16,10.667,24.533,5.333
	c11.733-7.467,27.733-18.133,33.067-21.333c7.467-6.4,9.6-7.467,9.6-7.467l39.467-85.333L230.684,201.603z"/>
<path style="fill:#CED6E0;" d="M317.084,181.336c0,0,2.133,2.133,9.6,0c6.4-1.067,6.4-1.067,6.4-1.067h46.933l-73.6,133.333
	l-14.933,10.667l-6.4-26.667V184.536C286.15,184.536,304.284,176.003,317.084,181.336z"/>
<path style="fill:#F05640;" d="M324.55,206.936l1.067,7.467c0,0,4.267,20.267,5.333,24.533c1.067,4.267-35.2,74.667-35.2,74.667
	l-6.4-24.533c0,0,6.4-28.8,8.533-40.533c2.133-11.733,9.6-33.067,12.8-36.267C313.884,209.07,324.55,206.936,324.55,206.936z"/>
<ellipse style="fill:#FFD15C;" cx="359.75" cy="100.27" rx="11.733" ry="22.4"/>
<path style="fill:#344A5E;" d="M401.35,162.136c0,0,25.6,12.8,34.133,14.933s54.4,19.2,54.4,19.2s-19.2,6.4-30.933,26.667
	c-11.733,20.267-23.467,58.667-23.467,58.667l17.067,117.333l4.267,108.8H199.75c0,0,20.267-77.867,22.4-93.867
	s-6.4-123.733-6.4-123.733s-11.733-56.533,7.467-93.867c0,0,26.667-16,36.267-17.067c9.6-1.067,37.333-12.8,37.333-12.8
	l-14.933,38.4l8.533,122.667l85.333-119.467L401.35,162.136z"/>
<path style="fill:#FFD15C;" d="M377.884,109.87l-2.133,18.133c0,0,1.067,7.467,4.267,14.933c3.2,7.467,3.2,7.467,3.2,7.467
	l-59.733,43.733l-7.467-17.067c0,0-26.667,2.133-29.867-5.333c-3.2-8.533-6.4-10.667-8.533-13.867
	c-2.133-2.133-13.867-22.4-14.933-34.133s-1.067-12.8-1.067-12.8s-4.267-5.333-5.333-7.467c-1.067-2.133-5.333-4.267-5.333-7.467
	c-1.067-10.667-1.067-24.533-2.133-33.067c-1.067-8.533,6.4-8.533,6.4-8.533l56.533-6.4l51.2,19.2
	C362.95,67.203,376.817,71.47,377.884,109.87z"/>
<path style="fill:#F5B54C;" d="M359.75,135.47c-8.533,19.2-43.733,42.667-43.733,42.667l7.467,17.067
	C348.017,171.736,359.75,135.47,359.75,135.47z"/>
<path style="fill:#F26F5A;" d="M303.217,182.403c0,0,28.8,5.333,36.267,5.333s7.467,0,7.467,0s-18.133,20.267-20.267,26.667
	c0,0-11.733-3.2-14.933-2.133C311.75,212.27,309.617,189.87,303.217,182.403z"/>
<path style="fill:#F3F3F3;" d="M319.217,185.603c-3.2,0-12.8-2.133-16,6.4c-2.133,5.333-6.4,9.6-8.533,11.733
	c-3.2,2.133-5.333,3.2-5.333,3.2l6.4-29.867h1.067c8.533,1.067,19.2,0,19.2,0L319.217,185.603z"/>
<g>
	<path style="fill:#425A6B;" d="M285.084,337.07c0,0,0-1.067,1.067-4.267C286.15,336.003,285.084,337.07,285.084,337.07z"/>
	<path style="fill:#425A6B;" d="M294.684,263.47c3.2,30.933-4.267,58.667-7.467,69.333c0-3.2-1.067-8.533-4.267-17.067
		c-7.467-18.133-32-82.133-32-82.133l17.067-16l-11.733-10.667c0,0,0,0,1.067,0c3.2-2.133,14.933-13.867,19.2-19.2
		c3.2-4.267,8.533-10.667,10.667-13.867c2.133,2.133,5.333,3.2,8.533,3.2h1.067c-1.067,4.267-2.133,13.867-3.2,26.667
		C292.55,220.803,292.55,242.136,294.684,263.47z"/>
</g>
<path style="fill:#F3F3F3;" d="M375.75,130.136c0,0,3.2,8.533,0,12.8c-3.2,5.333-51.2,43.733-51.2,43.733
	c11.733,4.267,21.333,16,26.667,22.4l38.4-51.2c0,0-1.067-5.333-4.267-10.667C383.217,142.936,381.084,133.336,375.75,130.136z"/>
<g>
	<path style="fill:#425A6B;" d="M381.084,137.603c0,0,7.467,3.2,3.2,11.733c-4.267,8.533-27.733,38.4-41.6,57.6
		c-13.867,19.2-33.067,62.933-37.333,70.4c-3.2,7.467-21.333,50.133-24.533,62.933c0,0,56.533-66.133,101.333-103.467l-6.4-17.067
		c0,0,20.267-5.333,23.467-7.467c0,0,4.267-32,6.4-39.467c2.133-7.467,2.133-8.533-2.133-12.8
		c-4.267-4.267-10.667-13.867-12.8-17.067C390.684,139.736,387.484,136.536,381.084,137.603z"/>
	<path style="fill:#425A6B;" d="M249.884,90.67c-8.533-12.8-5.333-30.933-5.333-30.933s6.4-26.667,32-43.733
		s49.067-10.667,59.733-7.467C346.95,10.67,366.15,23.47,369.35,29.87c4.267,5.333,14.933,33.067,12.8,59.733
		s-6.4,39.467-6.4,39.467s-1.067-14.933-5.333-28.8c-2.133-12.8-14.933-26.667-18.133-6.4v13.867l-6.4,3.2c0,0-7.467-32-21.333-38.4
		c0,0-7.467,2.133-14.933-4.267c-6.4-6.4,0-11.733-13.867-12.8c-11.733-1.067-37.333,5.333-42.667,9.6
		C247.75,70.403,247.75,82.136,249.884,90.67z"/>
	<path style="fill:#425A6B;" d="M499.484,409.603c-7.467,10.667-16,11.733-21.333,11.733c-2.133,0-11.733-1.067-24.533-2.133
		c-19.2-2.133-44.8-4.267-54.4-5.333c-14.933-1.067-88.533-16-88.533-16s19.2-69.333,18.133-82.133c0,0,7.467-3.2,20.267,2.133
		c11.733,5.333,77.867,19.2,77.867,19.2s6.4-51.2,8.533-57.6c0,0,12.8-37.333,23.467-58.667
		c11.733-20.267,30.933-26.667,30.933-26.667c8.533,3.2,20.267,25.6,17.067,37.333c-3.2,11.733-4.267,23.467-1.067,34.133
		c3.2,11.733,6.4,13.867,6.4,21.333s-1.067,55.467,0,68.267C513.35,371.203,506.95,398.936,499.484,409.603z"/>
</g>
<path style="fill:#67C5B8;" d="M0.284,259.203L30.15,360.536l8.533,9.6L206.15,439.47l108.8-24.533l-171.733-72.533l-34.133-43.733
	l-1.067-1.067L4.55,256.003C2.417,254.936-0.783,257.07,0.284,259.203z"/>
<path style="fill:#48B9A5;" d="M144.284,340.27l-105.6,28.8l-8.533-9.6L0.284,259.203c-1.067-2.133,1.067-4.267,3.2-3.2
	l103.467,41.6c1.067,0,2.133,1.067,2.133,2.133L144.284,340.27z"/>
<polygon style="fill:#E8EAE8;" points="138.95,341.336 45.084,366.936 40.817,364.803 34.417,357.336 5.617,260.27 106.95,300.803 
	"/>
<path style="fill:#F3F3F3;" d="M111.217,213.336l-62.933,115.2c-1.067,2.133,0,5.333,2.133,6.4l152.533,70.4
	c2.133,1.067,4.267,0,6.4-1.067l70.4-94.933c2.133-2.133,1.067-5.333-1.067-7.467l-161.067-90.667
	C115.484,210.136,112.284,211.203,111.217,213.336z"/>
<path style="fill:#FFD15C;" d="M255.217,323.203c0,0,2.133,3.2,7.467,4.267c0,0,9.6,2.133,11.733,2.133c0,0,9.6,2.133,10.667,2.133
	c0,0,4.267,7.467,6.4,7.467c0,0,7.467,17.067,22.4,20.267c7.467-10.667,12.8-21.333,14.933-34.133c0,0,2.133-6.4-1.067-13.867
	c-3.2-6.4-8.533-20.267-8.533-20.267s-2.133-3.2-7.467-5.333c-5.333-2.133-22.4-10.667-22.4-10.667s-2.133-1.067-6.4,0
	s-13.867,3.2-17.067,5.333c-2.133,2.133-8.533,6.4-9.6,9.6c-1.067,4.267,3.2,4.267,3.2,4.267l-1.067,3.2l-5.333,5.333
	c0,0,6.4,9.6,14.933-1.067c0,0,9.6-2.133,10.667-3.2l10.667,5.333c0,0-1.067,2.133-3.2,2.133c-1.067,0-10.667-1.067-10.667-1.067
	s-3.2-1.067-5.333,0c-2.133,1.067-14.933,5.333-14.933,5.333s-3.2,1.067-3.2,2.133l-5.333,1.067
	C248.817,315.736,245.617,324.27,255.217,323.203z"/>
<g>
	<path style="fill:#F5B54C;" d="M261.617,295.47C261.617,295.47,261.617,294.403,261.617,295.47c0-1.067,1.067-1.067,1.067-2.133
		c0,0,1.067-1.067,2.133-2.133l1.067-1.067c0,0,1.067,0,1.067-1.067c1.067,0,2.133-1.067,3.2-1.067c1.067,0,2.133-1.067,4.267-1.067
		c1.067,0,2.133-1.067,4.267-1.067c1.067,0,1.067,0,2.133-1.067h1.067c0,0,0,0,1.067,0l0,0l0,0l0,0l0,0l0,0l0,0l0,0l0,0h1.067
		c0,0,0,0,1.067,0l0,0c1.067,0,1.067,1.067,2.133,1.067c1.067,1.067,3.2,1.067,4.267,2.133c2.133,1.067,5.333,2.133,7.467,3.2
		c4.267,2.133,6.4,3.2,6.4,3.2s-3.2-1.067-7.467-2.133c-2.133-1.067-4.267-2.133-7.467-3.2c-1.067,0-2.133-1.067-4.267-2.133
		c-1.067,0-1.067-1.067-2.133-1.067l0,0l0,0l0,0l0,0l0,0l0,0l0,0l0,0l0,0l0,0l0,0l0,0h-1.067c-1.067,0-1.067,0-2.133,1.067
		c-1.067,0-3.2,1.067-4.267,1.067c-2.133,1.067-5.333,2.133-7.467,2.133c0,0-1.067,0-1.067,1.067c0,0-1.067,0-1.067,1.067
		c-1.067,0-1.067,1.067-2.133,1.067C262.684,294.403,261.617,295.47,261.617,295.47z"/>
	<path style="fill:#F5B54C;" d="M255.217,323.203c0,0,0,0,1.067-1.067c1.067,0,2.133-1.067,4.267-2.133
		c1.067,0,2.133-1.067,2.133-1.067c1.067,0,2.133-1.067,3.2-1.067s2.133,0,3.2-1.067c1.067,0,2.133,0,3.2-1.067
		c1.067,0,2.133,0,3.2,0s1.067,0,2.133,0s1.067,0,1.067,0c2.133,0,4.267,1.067,5.333,1.067c2.133,0,3.2,0,4.267,0
		c1.067,0,1.067,0,1.067,0l0,0h-1.067c-1.067,0-2.133,0-4.267,0c-2.133,0-3.2,0-5.333,0c-1.067,0-2.133,0-3.2,0s-2.133,0-3.2,0
		c-1.067,0-2.133,0-3.2,0c-1.067,0-2.133,0-3.2,1.067c-1.067,0-2.133,0-3.2,1.067c-1.067,0-2.133,0-2.133,1.067
		C257.35,322.136,255.217,323.203,255.217,323.203z"/>
</g>
<path style="fill:#E8EAE8;" d="M328.817,325.336c0,0-14.933,32-22.4,36.267l32,11.733
	C339.484,374.403,338.417,332.803,328.817,325.336z"/>
<path style="fill:#425A6B;" d="M387.484,412.803v-83.2c-16-4.267-33.067-8.533-38.4-10.667c-11.733-5.333-20.267-2.133-20.267-2.133
	c1.067,12.8-18.133,82.133-18.133,82.133S361.884,408.536,387.484,412.803z"/>
<polygon style="fill:#67C5B8;" points="316.017,412.803 206.15,438.403 38.684,369.07 144.284,340.27 "/>
<path style="fill:#FFD15C;" d="M112.284,398.936l14.933,6.4c0,0,14.933-5.333,18.133-2.133c3.2,3.2,3.2,7.467,1.067,8.533
	c-1.067,2.133-7.467,4.267-7.467,4.267s6.4-1.067,8.533-1.067s18.133-2.133,19.2-2.133c0,0,11.733-3.2,16-1.067
	c4.267,2.133,3.2,6.4,3.2,6.4s4.267-3.2,8.533-1.067c4.267,1.067,2.133,6.4,2.133,6.4s4.267,2.133,4.267,5.333
	c0,3.2-6.4,4.267-10.667,6.4c-3.2,2.133-10.667,2.133-13.867,3.2s-16,4.267-16,4.267s-6.4,1.067-8.533-1.067
	c-2.133-3.2-3.2-1.067-5.333-2.133c-3.2-1.067-3.2-2.133-5.333-3.2s-8.533-1.067-10.667-3.2c-3.2-2.133-2.133-6.4-7.467-9.6
	c-5.333-3.2-6.4-8.533-6.4-11.733C114.417,407.47,112.284,403.203,112.284,398.936z"/>
<g>
	<path style="fill:#F5B54C;" d="M184.817,418.136c0,0,0,0-1.067,1.067c-1.067,0-2.133,1.067-4.267,2.133
		c-1.067,0-2.133,1.067-2.133,1.067c-1.067,0-2.133,1.067-3.2,1.067c-1.067,0-2.133,1.067-3.2,1.067s-2.133,1.067-3.2,1.067
		c-1.067,0-1.067,0-2.133,0c-1.067,0-1.067,0-2.133,0c-1.067,0-2.133,0-3.2,1.067c-1.067,0-2.133,0-3.2,0s-2.133,0-3.2,0
		c-2.133,0-3.2,1.067-4.267,1.067c-1.067,0-1.067,0-1.067,0s1.067,0,1.067-1.067c1.067,0,2.133-1.067,4.267-1.067
		c1.067,0,2.133,0,3.2-1.067c1.067,0,2.133,0,3.2-1.067c1.067,0,2.133-1.067,3.2-1.067c1.067,0,1.067,0,2.133,0s1.067,0,2.133,0
		s2.133,0,3.2-1.067c1.067,0,2.133-1.067,3.2-1.067c1.067,0,2.133-1.067,3.2-1.067c1.067,0,2.133-1.067,2.133-1.067
		c2.133-1.067,3.2-1.067,4.267-2.133C184.817,418.136,184.817,418.136,184.817,418.136z"/>
	<path style="fill:#F5B54C;" d="M195.484,423.47c0,0,0,0-1.067,1.067c-1.067,1.067-2.133,1.067-3.2,2.133
		c-1.067,0-2.133,1.067-3.2,1.067c-1.067,0-2.133,0-3.2,1.067c-1.067,0-2.133,1.067-3.2,1.067c-1.067,0-1.067,0-2.133,0h-1.067l0,0
		l0,0c-1.067,0-2.133,1.067-3.2,1.067c-1.067,0-2.133,1.067-3.2,1.067c-2.133,1.067-4.267,1.067-5.333,2.133
		c-1.067,0-2.133,0-2.133,1.067c-1.067,0-1.067,0-2.133,0h-1.067l0,0l0,0h1.067c0,0,1.067,0,2.133-1.067
		c1.067,0,1.067,0,2.133-1.067c2.133-1.067,3.2-1.067,5.333-2.133c1.067,0,2.133-1.067,3.2-1.067c1.067,0,2.133-1.067,3.2-1.067l0,0
		l0,0h1.067c1.067,0,1.067,0,2.133,0c1.067,0,2.133-1.067,3.2-1.067c1.067,0,2.133-1.067,3.2-1.067c1.067,0,2.133,0,2.133-1.067
		c2.133-1.067,3.2-1.067,4.267-2.133H195.484z"/>
	<path style="fill:#F5B54C;" d="M127.217,405.336c0,0-3.2,2.133-4.267-2.133L127.217,405.336z"/>
</g>
<g>
</g>
<g>
</g>
<g>
</g>
<g>
</g>
<g>
</g>
<g>
</g>
<g>
</g>
<g>
</g>
<g>
</g>
<g>
</g>
<g>
</g>
<g>
</g>
<g>
</g>
<g>
</g>
<g>
</g>
</svg>
